solid US C 130 Hercules Airplane
  facet normal -0.9892356607708014 0.0013572358936766065 0.14632486244683435
    outer loop
      vertex 4.637609958648682 0.005000114440917969 1.7542620897293095
      vertex 4.63752007484436 0.44190025329589844 1.7496019601821902
      vertex 4.582720041275024 0.43780040740966797 1.3791619539260866
    endloop
  endfacet
  facet normal -0.9892357137828333 0.0013569210901852849 0.14632450697584254
    outer loop
      vertex 4.582720041275024 0.43780040740966797 1.3791619539260866
      vertex 4.582809925079346 0.0008001327514648438 1.3838220834732058
      vertex 4.637609958648682 0.005000114440917969 1.7542620897293095
    endloop
  endfacet
  facet normal 0.9892395310627138 -0.0013569560116241876 -0.1462986973735738
    outer loop
      vertex 4.667609930038452 0.005000114440917969 1.7542520761489873
      vertex 4.6128199100494385 0.0009002685546875 1.3838120698928835
      vertex 4.612730026245117 0.43780040740966797 1.3791519403457644
    endloop
  endfacet
  facet normal 0.9892395310627139 -0.0013569560116241895 -0.146298697373574
    outer loop
      vertex 4.612730026245117 0.43780040740966797 1.3791519403457644
      vertex 4.667520046234131 0.44190025329589844 1.749591946601868
      vertex 4.667609930038452 0.005000114440917969 1.7542520761489873
    endloop
  endfacet
  facet normal 0.9894538733683504 0.0017487211627168276 0.14483775215966094
    outer loop
      vertex 0.4683198928833008 0.004099845886230469 1.7558919191360478
      vertex 0.5225600004196167 0 1.3854020833969118
      vertex 0.5224699974060059 0.43690013885498047 1.3807419538497927
    endloop
  endfacet
  facet normal 0.9894539324020313 0.0017483679053357138 0.14483735313731833
    outer loop
      vertex 0.5224699974060059 0.43690013885498047 1.3807419538497927
      vertex 0.4682300090789795 0.44099998474121094 1.7512320280075075
      vertex 0.4683198928833008 0.004099845886230469 1.7558919191360478
    endloop
  endfacet
  facet normal -0.9894533713651156 -0.0017484086630908014 -0.14484118530774828
    outer loop
      vertex 0.4383199214935303 0.004099845886230469 1.75590193271637
      vertex 0.438230037689209 0.44099998474121094 1.7512420415878298
      vertex 0.49247002601623535 0.43690013885498047 1.3807619810104372
    endloop
  endfacet
  facet normal -0.9894539328747516 -0.0017450486815967726 -0.144837389937079
    outer loop
      vertex 0.49247002601623535 0.43690013885498047 1.3807619810104372
      vertex 0.49255990982055664 0 1.385411858558655
      vertex 0.4383199214935303 0.004099845886230469 1.75590193271637
    endloop
  endfacet
  facet normal -0.18277712631574586 0.9826704344024274 -0.030843791062423912
    outer loop
      vertex 4.992779970169067 5.710190296173096 0.027805984020233154
      vertex 4.986910104751587 5.710520267486572 0.07310295104980469
      vertex 5.043999910354614 5.7206501960754395 0.057529985904693604
    endloop
  endfacet
  facet normal -0.10898500093870965 0.9814737748922987 -0.15758013443657978
    outer loop
      vertex 5.02866005897522 5.709710121154785 0
      vertex 4.992779970169067 5.710190296173096 0.027805984020233154
      vertex 5.043999910354614 5.7206501960754395 0.057529985904693604
    endloop
  endfacet
  facet normal 0.019665887356754157 0.9812296862406816 -0.19183731575083318
    outer loop
      vertex 5.073519945144653 5.709969997406006 0.005927979946136475
      vertex 5.02866005897522 5.709710121154785 0
      vertex 5.043999910354614 5.7206501960754395 0.057529985904693604
    endloop
  endfacet
  facet normal 0.14782356188340717 0.9818703022453279 -0.11865455794351532
    outer loop
      vertex 5.101079940795898 5.71019983291626 0.04216498136520386
      vertex 5.073519945144653 5.709969997406006 0.005927979946136475
      vertex 5.043999910354614 5.7206501960754395 0.057529985904693604
    endloop
  endfacet
  facet normal 0.18238015553493278 0.9831884903525349 0.00882447195912021
    outer loop
      vertex 5.09522008895874 5.710880279541016 0.08746099472045898
      vertex 5.101079940795898 5.71019983291626 0.04216498136520386
      vertex 5.043999910354614 5.7206501960754395 0.057529985904693604
    endloop
  endfacet
  facet normal 0.1085104646649426 0.9847821036452483 0.135755984760296
    outer loop
      vertex 5.059340000152588 5.710999965667725 0.1152719259262085
      vertex 5.09522008895874 5.710880279541016 0.08746099472045898
      vertex 5.043999910354614 5.7206501960754395 0.057529985904693604
    endloop
  endfacet
  facet normal -0.020055013597062694 0.9852419770093105 0.16998836186164823
    outer loop
      vertex 5.014479875564575 5.7111101150512695 0.10934096574783325
      vertex 5.059340000152588 5.710999965667725 0.1152719259262085
      vertex 5.043999910354614 5.7206501960754395 0.057529985904693604
    endloop
  endfacet
  facet normal -0.14824138922837926 0.9842061148662908 0.096761634853085
    outer loop
      vertex 4.986910104751587 5.710520267486572 0.07310295104980469
      vertex 5.014479875564575 5.7111101150512695 0.10934096574783325
      vertex 5.043999910354614 5.7206501960754395 0.057529985904693604
    endloop
  endfacet
  facet normal -0.9995277450295544 0.00011180363960987955 0.030729048408307574
    outer loop
      vertex 4.626420021057129 7.332910060882568 1.905202031135559
      vertex 4.626349925994873 7.657279968261719 1.901741862297058
      vertex 4.6162800788879395 7.653620004653931 1.5742119550704954
    endloop
  endfacet
  facet normal -0.9995267911757851 0.00014370155459065103 0.030759926392987205
    outer loop
      vertex 4.6162800788879395 7.653620004653931 1.5742119550704954
      vertex 4.616339921951294 7.32925009727478 1.5776718854904175
      vertex 4.626420021057129 7.332910060882568 1.905202031135559
    endloop
  endfacet
  facet normal 0.9995268131176651 -0.0001118895279254999 -0.03075934556484354
    outer loop
      vertex 4.656430006027222 7.332910060882568 1.9051920175552368
      vertex 4.646349906921387 7.3292601108551025 1.577651858329773
      vertex 4.64628005027771 7.653630018234253 1.5742019414901731
    endloop
  endfacet
  facet normal 0.9995268067291493 -0.00011210316944476515 -0.030759552381484718
    outer loop
      vertex 4.64628005027771 7.653630018234253 1.5742019414901731
      vertex 4.656359910964966 7.657289981842041 1.901732087135315
      vertex 4.656430006027222 7.332910060882568 1.9051920175552368
    endloop
  endfacet
  facet normal -0.9518457900612033 0.003064987531377656 0.3065618987972842
    outer loop
      vertex 4.551939964294434 9.184320092201233 1.2068818807601926
      vertex 4.551870107650757 9.508690118789673 1.2034219503402708
      vertex 4.446380019187927 9.50501012802124 0.8759219646453855
    endloop
  endfacet
  facet normal -0.9518458585130416 0.0030647481266130976 0.30656168865416156
    outer loop
      vertex 4.446380019187927 9.50501012802124 0.8759219646453855
      vertex 4.4464499950408936 9.1806401014328 0.879382014274597
      vertex 4.551939964294434 9.184320092201233 1.2068818807601926
    endloop
  endfacet
  facet normal 0.9518431883819539 -0.0030647436516063964 -0.3065699790867103
    outer loop
      vertex 4.581939935684204 9.184320092201233 1.2068620920181272
      vertex 4.476449966430664 9.1806401014328 0.8793720006942747
      vertex 4.476379990577698 9.505020022392273 0.8759119510650633
    endloop
  endfacet
  facet normal 0.9518457866472738 -0.003055656928897571 -0.30656200254200705
    outer loop
      vertex 4.476379990577698 9.505020022392273 0.8759119510650633
      vertex 4.581870079040527 9.508700013160706 1.2034119367599485
      vertex 4.581939935684204 9.184320092201233 1.2068620920181272
    endloop
  endfacet
  facet normal 0.9995717174882695 0.0005264467287525217 0.029259262659759713
    outer loop
      vertex 0.4768099784851074 7.3320300579071045 1.9068220853805542
      vertex 0.48639988899230957 7.328370094299316 1.579271912574768
      vertex 0.4863300323486328 7.652750015258789 1.5758219957351682
    endloop
  endfacet
  facet normal 0.9995725677690126 0.0004969604524693623 0.029230716617480258
    outer loop
      vertex 0.4863300323486328 7.652750015258789 1.5758219957351682
      vertex 0.47674989700317383 7.656399965286255 1.9033619165420532
      vertex 0.4768099784851074 7.3320300579071045 1.9068220853805542
    endloop
  endfacet
  facet normal -0.9995716686155833 -0.0005281184220567978 -0.02926090210486661
    outer loop
      vertex 0.4468100070953369 7.332020044326782 1.9068318605422974
      vertex 0.44673991203308105 7.656389951705933 1.9033719301223755
      vertex 0.4563300609588623 7.652740001678467 1.5758320093154905
    endloop
  endfacet
  facet normal -0.9995716900459536 -0.0005273760548104187 -0.029260183409760138
    outer loop
      vertex 0.4563300609588623 7.652740001678467 1.5758320093154905
      vertex 0.45639991760253906 7.328370094299316 1.5792919397354126
      vertex 0.4468100070953369 7.332020044326782 1.9068318605422974
    endloop
  endfacet
  facet normal -0.986402098021187 -0.0019653625891395627 -0.16433818293170344
    outer loop
      vertex 4.593169927597046 1.3130197525024414 2.1774920225143433
      vertex 4.593100070953369 1.63739013671875 2.1740320920944214
      vertex 4.647680044174194 1.6337499618530273 1.8464719057083132
    endloop
  endfacet
  facet normal -0.986402087898293 -0.0019654262337014403 -0.1643382429308776
    outer loop
      vertex 4.647680044174194 1.6337499618530273 1.8464719057083132
      vertex 4.647749900817871 1.3093700408935547 1.8499320745468142
      vertex 4.593169927597046 1.3130197525024414 2.1774920225143433
    endloop
  endfacet
  facet normal 0.9863971890702381 0.0019658023298043652 0.16436763980642027
    outer loop
      vertex 4.623169898986816 1.3130197525024414 2.177482008934021
      vertex 4.677759885787964 1.3093805313110352 1.849922060966492
      vertex 4.677690029144287 1.6337499618530273 1.846461892127991
    endloop
  endfacet
  facet normal 0.9864021108786004 0.0019348576997712487 0.16433846774240932
    outer loop
      vertex 4.677690029144287 1.6337499618530273 1.846461892127991
      vertex 4.623110055923462 1.637399673461914 2.174022078514099
      vertex 4.623169898986816 1.3130197525024414 2.177482008934021
    endloop
  endfacet
  facet normal -0.9864020878180499 -0.001966030376988366 -0.16433823618607085
    outer loop
      vertex 4.592950105667114 2.3918800354003906 2.1659919023513794
      vertex 4.592880010604858 2.7162599563598633 2.1625319719314575
      vertex 4.647459983825684 2.7126102447509766 1.8349720239639282
    endloop
  endfacet
  facet normal -0.9864020785311896 -0.0019660887649425363 -0.16433829122975954
    outer loop
      vertex 4.647459983825684 2.7126102447509766 1.8349720239639282
      vertex 4.6475300788879395 2.388239860534668 1.8384319543838503
      vertex 4.592950105667114 2.3918800354003906 2.1659919023513794
    endloop
  endfacet
  facet normal 0.9864029037625641 0.001960903127117291 0.16433339985440473
    outer loop
      vertex 4.622950077056885 2.391890525817871 2.165981888771057
      vertex 4.67753005027771 2.388239860534668 1.8384119272232058
      vertex 4.677459955215454 2.712620258331299 1.834962010383606
    endloop
  endfacet
  facet normal 0.9864020780664328 0.0019660945743281786 0.16433829394985205
    outer loop
      vertex 4.677459955215454 2.712620258331299 1.834962010383606
      vertex 4.622879981994629 2.7162599563598633 2.1625219583511353
      vertex 4.622950077056885 2.391890525817871 2.165981888771057
    endloop
  endfacet
  facet normal -0.9518542801326964 0.003064660476946595 0.3065355399447631
    outer loop
      vertex 4.55174994468689 10.234713077545166 1.1956819295883176
      vertex 4.551680088043213 10.55908776819706 1.1922219991683958
      vertex 4.446200013160706 10.555408470332623 0.8647220134735104
    endloop
  endfacet
  facet normal -0.9518543803056502 0.003064310108689743 0.30653523239018515
    outer loop
      vertex 4.446200013160706 10.555408470332623 0.8647220134735104
      vertex 4.446269989013672 10.231034070253372 0.8681819438934324
      vertex 4.55174994468689 10.234713077545166 1.1956819295883176
    endloop
  endfacet
  facet normal 0.9518543905000777 -0.0030936935554729495 -0.30653490559137025
    outer loop
      vertex 4.58174991607666 10.234719067811966 1.1956719160079954
      vertex 4.476269960403442 10.231040060520172 0.8681719303131101
      vertex 4.476209998130798 10.55541417002678 0.8647119998931881
    endloop
  endfacet
  facet normal 0.9518542903250171 -0.0030940438943521395 -0.30653521311953313
    outer loop
      vertex 4.476209998130798 10.55541417002678 0.8647119998931881
      vertex 4.581690073013306 10.559093467891216 1.1922119855880735
      vertex 4.58174991607666 10.234719067811966 1.1956719160079954
    endloop
  endfacet
  facet normal -0.9518373404391893 0.00309464036834493 0.30658783496192626
    outer loop
      vertex 4.551539897918701 11.285114049911499 1.1844819784164424
      vertex 4.551480054855347 11.6094850897789 1.1810220479965206
      vertex 4.445979952812195 11.605805039405823 0.8535219430923457
    endloop
  endfacet
  facet normal -0.9518459892792608 0.003064394555124427 0.30656128617129064
    outer loop
      vertex 4.445979952812195 11.605805039405823 0.8535219430923457
      vertex 4.446050047874451 11.281435072422028 0.8569819927215572
      vertex 4.551539897918701 11.285114049911499 1.1844819784164424
    endloop
  endfacet
  facet normal 0.9518459892758044 -0.0030643849836205017 -0.306561286277699
    outer loop
      vertex 4.581549882888794 11.28511905670166 1.1844719648361202
      vertex 4.4760600328445435 11.281440079212189 0.8569719791412349
      vertex 4.475989937782288 11.605811059474945 0.8535119295120235
    endloop
  endfacet
  facet normal 0.9518458200142761 -0.0030649769595560714 -0.3065618059014976
    outer loop
      vertex 4.475989937782288 11.605811059474945 0.8535119295120235
      vertex 4.581480026245117 11.609490096569061 1.1810120344161983
      vertex 4.581549882888794 11.28511905670166 1.1844719648361202
    endloop
  endfacet
  facet normal 0.9861585584838877 -0.0015560727839440335 -0.16579769650532433
    outer loop
      vertex 0.5128699541091919 1.312150001525879 2.1790820360183716
      vertex 0.45779991149902344 1.3084802627563477 1.8515619039535525
      vertex 0.4577300548553467 1.6328601837158203 1.8481019735336306
    endloop
  endfacet
  facet normal 0.986153675924756 -0.001586582437606883 -0.16582644607016092
    outer loop
      vertex 0.4577300548553467 1.6328601837158203 1.8481019735336306
      vertex 0.5128099918365479 1.6365299224853516 2.1756218671798706
      vertex 0.5128699541091919 1.312150001525879 2.1790820360183716
    endloop
  endfacet
  facet normal -0.986158598011514 0.0015555130919120246 0.16579746664827602
    outer loop
      vertex 0.48287010192871094 1.312150001525879 2.179092049598694
      vertex 0.4828000068664551 1.6365203857421875 2.175631880760193
      vertex 0.42773008346557617 1.6328496932983398 1.8481119871139529
    endloop
  endfacet
  facet normal -0.9861584998126401 0.0015561268384282146 0.16579804497202616
    outer loop
      vertex 0.42773008346557617 1.6328496932983398 1.8481119871139529
      vertex 0.42779994010925293 1.3084802627563477 1.8515719175338747
      vertex 0.48287010192871094 1.312150001525879 2.179092049598694
    endloop
  endfacet
  facet normal 0.9861585898304315 -0.0015553940467467869 -0.16579751642595306
    outer loop
      vertex 0.5126500129699707 2.391010284423828 2.1675819158554077
      vertex 0.4575800895690918 2.387350082397461 1.8400620222091677
      vertex 0.45750999450683594 2.7117199897766113 1.8366020917892456
    endloop
  endfacet
  facet normal 0.9861585390131404 -0.001555711647306008 -0.16579781570557134
    outer loop
      vertex 0.45750999450683594 2.7117199897766113 1.8366020917892456
      vertex 0.5125800371170044 2.715390205383301 2.164121985435486
      vertex 0.5126500129699707 2.391010284423828 2.1675819158554077
    endloop
  endfacet
  facet normal -0.9861586095635827 0.0015553927906433332 0.16579739906551075
    outer loop
      vertex 0.4826500415802002 2.391010284423828 2.16759192943573
      vertex 0.48257994651794434 2.7153801918029785 2.164131999015808
      vertex 0.42751002311706543 2.7117199897766113 1.8366118669509888
    endloop
  endfacet
  facet normal -0.9861536765823609 0.001586217690789506 0.165826445648847
    outer loop
      vertex 0.42751002311706543 2.7117199897766113 1.8366118669509888
      vertex 0.427570104598999 2.3873395919799805 1.84007203578949
      vertex 0.4826500415802002 2.391010284423828 2.16759192943573
    endloop
  endfacet
  facet normal 0.9522823553145673 0.003460878596192279 0.3051988500566191
    outer loop
      vertex 0.5495100021362305 9.183470010757446 1.2084420919418333
      vertex 0.6545100212097168 9.179830074310303 0.8808619976043699
      vertex 0.6544400453567505 9.504210114479065 0.8774019479751585
    endloop
  endfacet
  facet normal 0.9522822922712726 0.003461099658172571 0.3051990442575582
    outer loop
      vertex 0.6544400453567505 9.504210114479065 0.8774019479751585
      vertex 0.5494400262832642 9.507840037345886 1.2049819231033323
      vertex 0.5495100021362305 9.183470010757446 1.2084420919418333
    endloop
  endfacet
  facet normal -0.9522822922616959 -0.00346122656110233 -0.3051990428482737
    outer loop
      vertex 0.51951003074646 9.183460116386414 1.2084518671035764
      vertex 0.5194399356842041 9.507830023765564 1.2049919366836546
      vertex 0.6244399547576904 9.504200100898743 0.8774119615554807
    endloop
  endfacet
  facet normal -0.9522822603399491 -0.0034613384948401138 -0.3051991411810678
    outer loop
      vertex 0.6244399547576904 9.504200100898743 0.8774119615554807
      vertex 0.6245100498199463 9.179830074310303 0.8808720111846922
      vertex 0.51951003074646 9.183460116386414 1.2084518671035764
    endloop
  endfacet
  facet normal 0.9522907726308395 0.003431497763274284 0.30517291686068665
    outer loop
      vertex 0.5492600202560425 10.233864068984985 1.1972419023513792
      vertex 0.6542500257492065 10.230228066444397 0.8696619272232053
      vertex 0.654189944267273 10.554603070020676 0.8662019968032834
    endloop
  endfacet
  facet normal 0.9522907707933617 0.0034315042076056425 0.305172922522065
    outer loop
      vertex 0.654189944267273 10.554603070020676 0.8662019968032834
      vertex 0.5491999387741089 10.558238469064236 1.1937819719314573
      vertex 0.5492600202560425 10.233864068984985 1.1972419023513792
    endloop
  endfacet
  facet normal -0.9522907574623437 -0.0034608932581221643 -0.30517263224223024
    outer loop
      vertex 0.519260048866272 10.233854055404663 1.1972519159317014
      vertex 0.5191899538040161 10.558228969573975 1.1937919855117796
      vertex 0.6241799592971802 10.554597370326519 0.8662120103836056
    endloop
  endfacet
  facet normal -0.9522908563463126 -0.0034605464971150923 -0.3051723276071211
    outer loop
      vertex 0.6241799592971802 10.554597370326519 0.8662120103836056
      vertex 0.6242499351501465 10.230223059654236 0.8696719408035276
      vertex 0.519260048866272 10.233854055404663 1.1972519159317014
    endloop
  endfacet
  facet normal 0.9522823078376524 0.003460976818980053 0.30519899708035214
    outer loop
      vertex 0.5490399599075317 11.284264087677002 1.186041951179504
      vertex 0.6540399789810181 11.280629098415375 0.8584619760513301
      vertex 0.6539700031280518 11.605000078678131 0.8550019264221187
    endloop
  endfacet
  facet normal 0.9522823401249959 0.003460863601644725 0.30519889762119484
    outer loop
      vertex 0.6539700031280518 11.605000078678131 0.8550019264221187
      vertex 0.5489699840545654 11.608635067939758 1.182582020759582
      vertex 0.5490399599075317 11.284264087677002 1.186041951179504
    endloop
  endfacet
  facet normal -0.9522907927616681 -0.0034311897207029694 -0.30517285750612577
    outer loop
      vertex 0.519029974937439 11.28425508737564 1.1860519647598262
      vertex 0.5189700126647949 11.608626067638397 1.1825920343399043
      vertex 0.623960018157959 11.604994058609009 0.855011940002441
    endloop
  endfacet
  facet normal -0.9522822986863807 -0.003460977121551374 -0.3051990256307299
    outer loop
      vertex 0.623960018157959 11.604994058609009 0.855011940002441
      vertex 0.6240299940109253 11.280623078346252 0.8584719896316524
      vertex 0.519029974937439 11.28425508737564 1.1860519647598262
    endloop
  endfacet
  facet normal -0.7931926731906792 -0.33861650851768343 -0.5061464643321316
    outer loop
      vertex 3.912909984588623 14.458500146865845 2.360321879386901
      vertex 3.6702300310134888 14.349800109863281 2.813351988792419
      vertex 3.5293500423431396 14.6839599609375 2.8105720281600943
    endloop
  endfacet
  facet normal -0.7893746739821965 -0.37999386482896624 -0.48217453973415725
    outer loop
      vertex 3.5293500423431396 14.6839599609375 2.8105720281600943
      vertex 3.7237900495529175 14.854360103607178 2.3579620122909537
      vertex 3.912909984588623 14.458500146865845 2.360321879386901
    endloop
  endfacet
  facet normal 0.9277728004413445 0.3716370377448835 0.03351929201867577
    outer loop
      vertex 3.746649980545044 15.601840019226074 1.7503319978713983
      vertex 3.8455499410629272 15.351200103759766 1.791812062263488
      vertex 3.856860041618347 15.348100185394287 1.5131319761276238
    endloop
  endfacet
  facet normal 0.9275749658454244 0.37219162199546457 0.03283411721433916
    outer loop
      vertex 3.856860041618347 15.348100185394287 1.5131319761276238
      vertex 3.7579699754714966 15.59867000579834 1.4664720296859735
      vertex 3.746649980545044 15.601840019226074 1.7503319978713983
    endloop
  endfacet
  facet normal 0.9301741986306122 0.3665182910513579 0.02098338692133852
    outer loop
      vertex 3.859820008277893 15.346370220184326 1.3584920167922967
      vertex 3.760949969291687 15.597440242767334 1.355852007865905
      vertex 3.7579699754714966 15.59867000579834 1.4664720296859735
    endloop
  endfacet
  facet normal 0.9292217692132514 0.36927014351157905 0.013655208937711895
    outer loop
      vertex 3.7579699754714966 15.59867000579834 1.4664720296859735
      vertex 3.856860041618347 15.348100185394287 1.5131319761276238
      vertex 3.859820008277893 15.346370220184326 1.3584920167922967
    endloop
  endfacet
  facet normal -0.7033546841179827 -0.4809124444783198 -0.5234648116876431
    outer loop
      vertex 3.1558820009231567 15.0378999710083 3.0784720182418814
      vertex 3.1924989819526672 15.2399001121521 2.843691945075988
      vertex 3.3293039798736572 15.058919906616211 2.826141953468322
    endloop
  endfacet
  facet normal -0.6726195348632289 -0.5388541179528652 -0.5071678231962404
    outer loop
      vertex 3.3293039798736572 15.058919906616211 2.826141953468322
      vertex 3.2705699801445007 14.893330097198486 3.0799719095230094
      vertex 3.1558820009231567 15.0378999710083 3.0784720182418814
    endloop
  endfacet
  facet normal -0.7949128648346722 -0.4027399976017582 -0.4537775133830124
    outer loop
      vertex 3.286861002445221 14.858630180358887 3.0803319215774527
      vertex 3.356409013271332 15.029799938201904 2.8065820932388297
      vertex 3.5293500423431396 14.6839599609375 2.8105720281600943
    endloop
  endfacet
  facet normal -0.7975662380213688 -0.36197385039132574 -0.48255883330565963
    outer loop
      vertex 3.5293500423431396 14.6839599609375 2.8105720281600943
      vertex 3.410440981388092 14.582470178604126 3.083232045173644
      vertex 3.286861002445221 14.858630180358887 3.0803319215774527
    endloop
  endfacet
  facet normal -0.8069196786833674 -0.34418636277319004 -0.4800170620243547
    outer loop
      vertex 3.410440981388092 14.582470178604126 3.083232045173644
      vertex 3.5293500423431396 14.6839599609375 2.8105720281600943
      vertex 3.6702300310134888 14.349800109863281 2.813351988792419
    endloop
  endfacet
  facet normal -0.8059139890028464 -0.32869450012839047 -0.4924048820989364
    outer loop
      vertex 3.6702300310134888 14.349800109863281 2.813351988792419
      vertex 3.5023200511932373 14.353600025177002 3.085631966590881
      vertex 3.410440981388092 14.582470178604126 3.083232045173644
    endloop
  endfacet
  facet normal -0.7726684384136826 -0.434462569428553 -0.4628452873746266
    outer loop
      vertex 3.356409013271332 15.029799938201904 2.8065820932388297
      vertex 3.46909499168396 15.31496000289917 2.3507920503616324
      vertex 3.7237900495529175 14.854360103607178 2.3579620122909537
    endloop
  endfacet
  facet normal -0.780306734843505 -0.3957873142165881 -0.4842249492364967
    outer loop
      vertex 3.7237900495529175 14.854360103607178 2.3579620122909537
      vertex 3.5293500423431396 14.6839599609375 2.8105720281600943
      vertex 3.356409013271332 15.029799938201904 2.8065820932388297
    endloop
  endfacet
  facet normal -0.7199760617185782 -0.49235991197788037 -0.48909731918028326
    outer loop
      vertex 3.442122995853424 15.369679927825928 2.3526118993759146
      vertex 3.341854989528656 15.086269855499268 2.785512089729308
      vertex 3.197969973087311 15.270050048828125 2.8123120069503775
    endloop
  endfacet
  facet normal -0.7083574127970845 -0.510977758220412 -0.4869615039604903
    outer loop
      vertex 3.197969973087311 15.270050048828125 2.8123120069503775
      vertex 3.26043701171875 15.56491994857788 2.4120320081710807
      vertex 3.442122995853424 15.369679927825928 2.3526118993759146
    endloop
  endfacet
  facet normal -0.37634656250600557 -0.7075524982082825 -0.598107621728006
    outer loop
      vertex 3.0420119762420654 15.68287992477417 2.4298020601272574
      vertex 2.8190900087356567 15.447390079498291 2.848652005195617
      vertex 2.8187209963798523 15.787320137023926 2.446751952171325
    endloop
  endfacet
  facet normal -0.3626098704721403 -0.7165626743449011 -0.5958624132900656
    outer loop
      vertex 3.0420119762420654 15.68287992477417 2.4298020601272574
      vertex 3.1706929802894592 15.295899868011475 2.8168619871139517
      vertex 2.8190900087356567 15.447390079498291 2.848652005195617
    endloop
  endfacet
  facet normal -0.3489609717874989 -0.7181872560768914 -0.6020243395228053
    outer loop
      vertex 3.0420119762420654 15.68287992477417 2.4298020601272574
      vertex 3.2335540056228638 15.595829963684082 2.422622084617614
      vertex 3.1706929802894592 15.295899868011475 2.8168619871139517
    endloop
  endfacet
  facet normal -0.34473554621924996 -0.687248265970555 -0.6394116233643089
    outer loop
      vertex 3.279496967792511 15.852129936218262 2.1246620416641226
      vertex 3.247431993484497 15.67365026473999 2.3337820768356314
      vertex 3.025533974170685 15.78600025177002 2.3326619863510123
    endloop
  endfacet
  facet normal -0.3271833991339745 -0.7088757619520234 -0.6248569255822298
    outer loop
      vertex 3.025533974170685 15.78600025177002 2.3326619863510123
      vertex 3.0519310235977173 15.958080291748047 2.1236220598220816
      vertex 3.279496967792511 15.852129936218262 2.1246620416641226
    endloop
  endfacet
  facet normal 0.9165399675015783 0.38151663127114904 0.11999811680072252
    outer loop
      vertex 3.833609938621521 15.352190017700195 1.879861950874328
      vertex 3.8455499410629272 15.351200103759766 1.791812062263488
      vertex 3.746649980545044 15.601840019226074 1.7503319978713983
    endloop
  endfacet
  facet normal 0.8860814958278556 0.4153807142210211 0.205714474465713
    outer loop
      vertex 3.746649980545044 15.601840019226074 1.7503319978713983
      vertex 3.716529965400696 15.60325002670288 1.8772219419479363
      vertex 3.833609938621521 15.352190017700195 1.879861950874328
    endloop
  endfacet
  facet normal 0.7889371814864238 -0.3795693911954552 -0.4832237586623501
    outer loop
      vertex 1.1881699562072754 14.45792007446289 2.3613818883895865
      vertex 1.3771300315856934 14.853869915008545 2.3588720560073844
      vertex 1.5723180174827576 14.683549880981445 2.811331868171691
    endloop
  endfacet
  facet normal 0.7927051121805584 -0.3382129663397142 -0.5071790556820144
    outer loop
      vertex 1.5723180174827576 14.683549880981445 2.811331868171691
      vertex 1.431570053100586 14.349330186843872 2.8142219781875606
      vertex 1.1881699562072754 14.45792007446289 2.3613818883895865
    endloop
  endfacet
  facet normal 0.9278664160330514 -0.3712760869546381 -0.03489958815848856
    outer loop
      vertex 1.3540599346160889 15.601330280303955 1.7512620687484735
      vertex 1.2553199529647827 15.350659847259521 1.7928220033645623
      vertex 1.243589997291565 15.347539901733398 1.5141519308090203
    endloop
  endfacet
  facet normal 0.9276701908602587 -0.3718296751815327 -0.03421563449195613
    outer loop
      vertex 1.243589997291565 15.347539901733398 1.5141519308090203
      vertex 1.3423199653625488 15.59816026687622 1.4674118757247918
      vertex 1.3540599346160889 15.601330280303955 1.7512620687484735
    endloop
  endfacet
  facet normal 0.9302905548051725 -0.3661345337475661 -0.02247191219582378
    outer loop
      vertex 1.240399956703186 15.34581995010376 1.3595119714736932
      vertex 1.3391599655151367 15.596920013427734 1.3568018674850457
      vertex 1.3423199653625488 15.59816026687622 1.4674118757247918
    endloop
  endfacet
  facet normal 0.9293403428255312 -0.36891663370376027 -0.015067998327903773
    outer loop
      vertex 1.3423199653625488 15.59816026687622 1.4674118757247918
      vertex 1.243589997291565 15.347539901733398 1.5141519308090203
      vertex 1.240399956703186 15.34581995010376 1.3595119714736932
    endloop
  endfacet
  facet normal 0.6722797692538139 -0.5384498057774202 -0.5080469648667307
    outer loop
      vertex 1.9460470080375671 15.03764009475708 3.0789419412612906
      vertex 1.831417977809906 14.893020153045654 3.080531954765319
      vertex 1.7722370028495789 15.058589935302734 2.8267420530319205
    endloop
  endfacet
  facet normal 0.7029569237947036 -0.4805019595895721 -0.524375276037752
    outer loop
      vertex 1.7722370028495789 15.058589935302734 2.8267420530319205
      vertex 1.9089959859848022 15.239620208740234 2.844191908836364
      vertex 1.9460470080375671 15.03764009475708 3.0789419412612906
    endloop
  endfacet
  facet normal 0.7971135912034031 -0.36156264279625067 -0.4836138728913849
    outer loop
      vertex 1.8151419758796692 14.858320236206055 3.0809019804000846
      vertex 1.6916760206222534 14.582110166549683 3.0839020013809195
      vertex 1.5723180174827576 14.683549880981445 2.811331868171691
    endloop
  endfacet
  facet normal 0.7945147063135065 -0.40230939377833724 -0.45485550796848573
    outer loop
      vertex 1.5723180174827576 14.683549880981445 2.811331868171691
      vertex 1.7451139688491821 15.029459953308105 2.807211995124816
      vertex 1.8151419758796692 14.858320236206055 3.0809019804000846
    endloop
  endfacet
  facet normal 0.8054287171905294 -0.32827363410418414 -0.4934784723540132
    outer loop
      vertex 1.6916760206222534 14.582110166549683 3.0839020013809195
      vertex 1.5998910069465637 14.35319995880127 3.086372017860412
      vertex 1.431570053100586 14.349330186843872 2.8142219781875606
    endloop
  endfacet
  facet normal 0.8064565398198826 -0.34377839309310004 -0.48108654712439025
    outer loop
      vertex 1.431570053100586 14.349330186843872 2.8142219781875606
      vertex 1.5723180174827576 14.683549880981445 2.811331868171691
      vertex 1.6916760206222534 14.582110166549683 3.0839020013809195
    endloop
  endfacet
  facet normal 0.779879502533353 -0.3953606554695233 -0.48526066565819936
    outer loop
      vertex 1.7451139688491821 15.029459953308105 2.807211995124816
      vertex 1.5723180174827576 14.683549880981445 2.811331868171691
      vertex 1.3771300315856934 14.853869915008545 2.3588720560073844
    endloop
  endfacet
  facet normal 0.7722863084378137 -0.4340372983161978 -0.4638808914687798
    outer loop
      vertex 1.3771300315856934 14.853869915008545 2.3588720560073844
      vertex 1.631630003452301 15.31456995010376 2.351512074470519
      vertex 1.7451139688491821 15.029459953308105 2.807211995124816
    endloop
  endfacet
  facet normal 0.7080059658134898 -0.5105761447202812 -0.48789297270516396
    outer loop
      vertex 1.6585819721221924 15.36929988861084 2.353311896324157
      vertex 1.840279996395111 15.564620018005371 2.412582039833068
      vertex 1.903465986251831 15.269780158996582 2.8128219842910758
    endloop
  endfacet
  facet normal 0.7196371296130785 -0.4919092488622432 -0.490048663467245
    outer loop
      vertex 1.903465986251831 15.269780158996582 2.8128219842910758
      vertex 1.7596129775047302 15.085929870605469 2.78612196445465
      vertex 1.6585819721221924 15.36929988861084 2.353311896324157
    endloop
  endfacet
  facet normal 0.34873822042779457 -0.7179452574913794 -0.6024419149249924
    outer loop
      vertex 2.05868399143219 15.68267011642456 2.430181860923766
      vertex 1.9307399988174438 15.295639991760254 2.8173519372940055
      vertex 1.867165982723236 15.595540046691895 2.4231520891189566
    endloop
  endfacet
  facet normal 0.362367600038787 -0.716314606225017 -0.5963078964350789
    outer loop
      vertex 2.05868399143219 15.68267011642456 2.430181860923766
      vertex 2.2823289930820465 15.447269916534424 2.8488620519638053
      vertex 1.9307399988174438 15.295639991760254 2.8173519372940055
    endloop
  endfacet
  facet normal 0.3761364996138536 -0.7072678165712942 -0.5985762852809254
    outer loop
      vertex 2.05868399143219 15.68267011642456 2.430181860923766
      vertex 2.2819589972496033 15.78720998764038 2.4469619989395133
      vertex 2.2823289930820465 15.447269916534424 2.8488620519638053
    endloop
  endfacet
  facet normal -0.00008815830859340508 -0.7618552963705569 -0.6477472497975143
    outer loop
      vertex 2.779329001903534 15.447380065917969 2.8484820127487174
      vertex 2.3220899999141693 15.447279930114746 2.848662018775939
      vertex 2.321720987558365 15.788330078125 2.447532057762145
    endloop
  endfacet
  facet normal -0.0001048370410459375 -0.7618646883226308 -0.6477362006992163
    outer loop
      vertex 2.321720987558365 15.788330078125 2.447532057762145
      vertex 2.7789590060710907 15.7884202003479 2.4473520517349234
      vertex 2.779329001903534 15.447380065917969 2.8484820127487174
    endloop
  endfacet
  facet normal 0.32694832864185774 -0.7086348319392209 -0.6252531210324089
    outer loop
      vertex 1.8206740021705627 15.85181999206543 2.1252318620681754
      vertex 2.0481959879398346 15.95787000656128 2.1240118741989127
      vertex 2.074975997209549 15.785799980163574 2.333032011985778
    endloop
  endfacet
  facet normal 0.34448791799123196 -0.6869767045647182 -0.6398367617943395
    outer loop
      vertex 2.074975997209549 15.785799980163574 2.333032011985778
      vertex 1.8531240224838257 15.673349857330322 2.3343218564987174
      vertex 1.8206740021705627 15.85181999206543 2.1252318620681754
    endloop
  endfacet
  facet normal 0.9164914840962983 -0.38115482504862735 -0.12150867837777982
    outer loop
      vertex 1.2674000263214111 15.351640224456787 1.88086187839508
      vertex 1.2553199529647827 15.350659847259521 1.7928220033645623
      vertex 1.3540599346160889 15.601330280303955 1.7512620687484735
    endloop
  endfacet
  facet normal 0.885978988252264 -0.41494973007254504 -0.2070216266195807
    outer loop
      vertex 1.3540599346160889 15.601330280303955 1.7512620687484735
      vertex 1.384369969367981 15.602750301361084 1.878131985664367
      vertex 1.2674000263214111 15.351640224456787 1.88086187839508
    endloop
  endfacet
  facet normal 0.1823532655535294 0.9827498078957855 -0.03082371850962964
    outer loop
      vertex 0.10828995704650879 5.709159851074219 0.029703974723815918
      vertex 0.05711007118225098 5.719590187072754 0.05947297811508179
      vertex 0.11421990394592285 5.709480285644531 0.07500195503234863
    endloop
  endfacet
  facet normal 0.10830515242120035 0.9815294289639139 -0.1577021687764421
    outer loop
      vertex 0.07237005233764648 5.708660125732422 0.0019249916076660156
      vertex 0.05711007118225098 5.719590187072754 0.05947297811508179
      vertex 0.10828995704650879 5.709159851074219 0.029703974723815918
    endloop
  endfacet
  facet normal -0.02046625487990702 0.9812225380855059 -0.1917901539814515
    outer loop
      vertex 0.02750992774963379 5.708889961242676 0.007887959480285645
      vertex 0.05711007118225098 5.719590187072754 0.05947297811508179
      vertex 0.07237005233764648 5.708660125732422 0.0019249916076660156
    endloop
  endfacet
  facet normal -0.14837245823001488 0.9818041721183346 -0.11851658639116415
    outer loop
      vertex 0 5.709110260009766 0.04415297508239746
      vertex 0.05711007118225098 5.719590187072754 0.05947297811508179
      vertex 0.02750992774963379 5.708889961242676 0.007887959480285645
    endloop
  endfacet
  facet normal -0.18280722667561491 0.9831079672197178 0.008957826984509091
    outer loop
      vertex 0.0059299468994140625 5.7098002433776855 0.08944398164749146
      vertex 0.05711007118225098 5.719590187072754 0.05947297811508179
      vertex 0 5.709110260009766 0.04415297508239746
    endloop
  endfacet
  facet normal -0.10886036540819885 0.984741931631047 0.13576726015777132
    outer loop
      vertex 0.04185009002685547 5.709939956665039 0.11723196506500244
      vertex 0.05711007118225098 5.719590187072754 0.05947297811508179
      vertex 0.0059299468994140625 5.7098002433776855 0.08944398164749146
    endloop
  endfacet
  facet normal 0.0199888811464728 0.9852592872048365 0.16989579631977358
    outer loop
      vertex 0.08671998977661133 5.710060119628906 0.11125600337982178
      vertex 0.05711007118225098 5.719590187072754 0.05947297811508179
      vertex 0.04185009002685547 5.709939956665039 0.11723196506500244
    endloop
  endfacet
  facet normal 0.14799586637264817 0.9842670021645853 0.09651783247954654
    outer loop
      vertex 0.11421990394592285 5.709480285644531 0.07500195503234863
      vertex 0.05711007118225098 5.719590187072754 0.05947297811508179
      vertex 0.08671998977661133 5.710060119628906 0.11125600337982178
    endloop
  endfacet
  facet normal 0.00025580252025080225 -0.9999379738484807 0.011134766313939877
    outer loop
      vertex 2.4686574935913086 15.492430210113525 1.9988020658493035
      vertex 2.468687493354082 15.492879867553711 2.0391820669174185
      vertex 2.4286827966570854 15.492869853973389 2.039201855659484
    endloop
  endfacet
  facet normal 0.0002530797733887591 -0.9999380045339641 0.011132072550173636
    outer loop
      vertex 2.4286827966570854 15.492869853973389 2.039201855659484
      vertex 2.4286525920033455 15.492420196533203 1.9988120794296258
      vertex 2.4686574935913086 15.492430210113525 1.9988020658493035
    endloop
  endfacet
  facet normal 0.0002558624997198469 -0.9999380045766656 0.011132005103181297
    outer loop
      vertex 2.5286960937082767 15.492889881134033 2.039162039756774
      vertex 2.488690614234656 15.492879867553711 2.0391820669174185
      vertex 2.488660464063287 15.492430210113525 1.9987920522689813
    endloop
  endfacet
  facet normal 0.00025586282418643496 -0.9999380045801645 0.01113200478144189
    outer loop
      vertex 2.488660464063287 15.492430210113525 1.9987920522689813
      vertex 2.528665892779827 15.492440223693848 1.9987720251083367
      vertex 2.5286960937082767 15.492889881134033 2.039162039756774
    endloop
  endfacet
  facet normal 0.000002787093953509258 -0.9999380044670929 0.011134954629463288
    outer loop
      vertex 2.408680096268654 15.492859840393066 2.0392118692398062
      vertex 2.3686739951372147 15.492859840393066 2.0392218828201285
      vertex 2.3686439990997314 15.49241018295288 1.9988418817520135
    endloop
  endfacet
  facet normal 0.000005506523385277377 -0.9999380344805968 0.011132258026071866
    outer loop
      vertex 2.3686439990997314 15.49241018295288 1.9988418817520135
      vertex 2.408649891614914 15.49241018295288 1.998822093009948
      vertex 2.408680096268654 15.492859840393066 2.0392118692398062
    endloop
  endfacet
  facet normal 0.00015487432408119186 -0.9999381644813885 0.011119497629629809
    outer loop
      vertex 2.482004494406283 15.491610050201416 1.9250918626785272
      vertex 2.4820550940930843 15.49236011505127 1.9925419092178338
      vertex 2.4152460917830467 15.492350101470947 1.9925719499588006
    endloop
  endfacet
  facet normal 0.00030481539225671686 -0.9999364696811247 0.011267816524333712
    outer loop
      vertex 2.4152460917830467 15.492350101470947 1.9925719499588006
      vertex 2.4151955917477608 15.491590023040771 1.925121903419494
      vertex 2.482004494406283 15.491610050201416 1.9250918626785272
    endloop
  endfacet
  facet normal 0.00022608951576283973 -0.9999376332078779 0.011165956213347924
    outer loop
      vertex 2.1481119990348816 15.489670276641846 2.241671919822692
      vertex 2.238213002681732 15.490489959716797 2.313252091407775
      vertex 2.148166000843048 15.490469932556152 2.3132818937301627
    endloop
  endfacet
  facet normal 0.0002552746796753751 -0.9999380356818034 0.011129224216192439
    outer loop
      vertex 2.1481119990348816 15.489670276641846 2.241671919822692
      vertex 2.2272540032863617 15.489490032196045 2.223662018775939
      vertex 2.238213002681732 15.490489959716797 2.313252091407775
    endloop
  endfacet
  facet normal -0.00025089130066055954 -0.999937345838786 0.01119113267007028
    outer loop
      vertex 2.2272540032863617 15.489490032196045 2.223662018775939
      vertex 2.2381570041179657 15.489650249481201 2.2382220029830924
      vertex 2.238213002681732 15.490489959716797 2.313252091407775
    endloop
  endfacet
  facet normal 0.00030838397397501535 -0.9999353962597477 0.01136257920482783
    outer loop
      vertex 2.1481119990348816 15.489670276641846 2.241671919822692
      vertex 2.1615779995918274 15.4894700050354 2.2236820459365836
      vertex 2.2272540032863617 15.489490032196045 2.223662018775939
    endloop
  endfacet
  facet normal 0.0001735576766155397 -0.9999384900807242 0.0110899022905564
    outer loop
      vertex 2.2529619932174683 15.489660263061523 2.238432049751281
      vertex 2.3339029997587204 15.48951005935669 2.22362196445465
      vertex 2.2530179917812347 15.490489959716797 2.3132420778274527
    endloop
  endfacet
  facet normal 0.00022610959970685286 -0.9999379524948607 0.011137326197734668
    outer loop
      vertex 2.3339029997587204 15.48951005935669 2.22362196445465
      vertex 2.343064993619919 15.490509986877441 2.313212037086486
      vertex 2.2530179917812347 15.490489959716797 2.3132420778274527
    endloop
  endfacet
  facet normal -0.0007638117417129033 -0.9999365538293652 0.011238545612147927
    outer loop
      vertex 2.3339029997587204 15.48951005935669 2.22362196445465
      vertex 2.3430069983005524 15.489630222320557 2.23493206501007
      vertex 2.343064993619919 15.490509986877441 2.313212037086486
    endloop
  endfacet
  facet normal 0.0002858537376033145 -0.9999314701540919 0.011703558566395818
    outer loop
      vertex 2.2529619932174683 15.489660263061523 2.238432049751281
      vertex 2.262616991996765 15.489490032196045 2.223652005195617
      vertex 2.3339029997587204 15.48951005935669 2.22362196445465
    endloop
  endfacet
  facet normal -0.7954269068979287 0.26329385674867084 0.5458684647249777
    outer loop
      vertex 2.9295490086078644 15.186320304870605 2.716842055320739
      vertex 2.9295609891414642 15.16523027420044 2.7270320653915396
      vertex 2.9564670026302338 15.180399894714355 2.7589219808578482
    endloop
  endfacet
  facet normal -0.7953909250925719 0.2634149325463056 0.5458624823085094
    outer loop
      vertex 2.9564670026302338 15.180399894714355 2.7589219808578482
      vertex 2.9564549922943115 15.2014799118042 2.7487319707870475
      vertex 2.9295490086078644 15.186320304870605 2.716842055320739
    endloop
  endfacet
  facet normal -0.7960449199656033 -0.2636434702994463 -0.5447977661164016
    outer loop
      vertex 2.9563469886779785 15.122940063476562 2.5835820436477652
      vertex 2.9563579857349396 15.101850032806396 2.593772053718566
      vertex 2.929495006799698 15.117000102996826 2.6256920099258414
    endloop
  endfacet
  facet normal -0.7959585220363554 -0.2639334778738575 -0.5447835813009703
    outer loop
      vertex 2.929495006799698 15.117000102996826 2.6256920099258414
      vertex 2.9294829964637756 15.138090133666992 2.6154919862747184
      vertex 2.9563469886779785 15.122940063476562 2.5835820436477652
    endloop
  endfacet
  facet normal -0.0003262910607239157 0.9032494600856269 -0.42911572610330573
    outer loop
      vertex 2.9294829964637756 15.138090133666992 2.6154919862747184
      vertex 3.1316909790039062 15.12297010421753 2.5835119485855094
      vertex 2.9563469886779785 15.122940063476562 2.5835820436477652
    endloop
  endfacet
  facet normal -0.00040971097445376077 0.9030447058605497 -0.42954637858344275
    outer loop
      vertex 2.9294829964637756 15.138090133666992 2.6154919862747184
      vertex 2.9564549922943115 15.2014799118042 2.7487319707870475
      vertex 3.1316909790039062 15.12297010421753 2.5835119485855094
    endloop
  endfacet
  facet normal -0.0003779914155530285 0.9030577690624543 -0.42951894353850434
    outer loop
      vertex 2.9564549922943115 15.2014799118042 2.7487319707870475
      vertex 3.1317989826202393 15.201519966125488 2.7486618757247916
      vertex 3.1316909790039062 15.12297010421753 2.5835119485855094
    endloop
  endfacet
  facet normal -0.00007973422977747372 0.9030577550482196 -0.4295191319251359
    outer loop
      vertex 3.1317989826202393 15.201519966125488 2.7486618757247916
      vertex 3.1585959792137146 15.138140201568604 2.615401864051818
      vertex 3.1316909790039062 15.12297010421753 2.5835119485855094
    endloop
  endfacet
  facet normal -0.0011751467879818416 0.9029716757551298 -0.429698466152719
    outer loop
      vertex 3.1317989826202393 15.201519966125488 2.7486618757247916
      vertex 3.158662974834442 15.186369895935059 2.7167519330978385
      vertex 3.1585959792137146 15.138140201568604 2.615401864051818
    endloop
  endfacet
  facet normal 0.0005397878493751877 0.9029700814802805 -0.4297030842111484
    outer loop
      vertex 2.9294829964637756 15.138090133666992 2.6154919862747184
      vertex 2.9295490086078644 15.186320304870605 2.716842055320739
      vertex 2.9564549922943115 15.2014799118042 2.7487319707870475
    endloop
  endfacet
  facet normal 0.7959589688582018 0.26382603299162316 0.5448349697019189
    outer loop
      vertex 3.158662974834442 15.186369895935059 2.7167519330978385
      vertex 3.1317989826202393 15.201519966125488 2.7486618757247916
      vertex 3.131811022758484 15.180439949035645 2.7588518857955924
    endloop
  endfacet
  facet normal 0.7959954003725046 0.2637036897023359 0.5448409737007585
    outer loop
      vertex 3.131811022758484 15.180439949035645 2.7588518857955924
      vertex 3.1586750149726868 15.165279865264893 2.7269419431686392
      vertex 3.158662974834442 15.186369895935059 2.7167519330978385
    endloop
  endfacet
  facet normal 0.795439000175003 -0.26349525281239283 -0.5457536520683345
    outer loop
      vertex 3.1316909790039062 15.12297010421753 2.5835119485855094
      vertex 3.1585959792137146 15.138140201568604 2.615401864051818
      vertex 3.1586080193519592 15.117050170898438 2.625601887702941
    endloop
  endfacet
  facet normal 0.795391537013114 -0.263654855243173 -0.5457457468039651
    outer loop
      vertex 3.1586080193519592 15.117050170898438 2.625601887702941
      vertex 3.1317020058631897 15.101890087127686 2.5937119722366324
      vertex 3.1316909790039062 15.12297010421753 2.5835119485855094
    endloop
  endfacet
  facet normal 0.0002604948271701241 0.43521499072436687 0.900326520764125
    outer loop
      vertex 3.1317989826202393 15.201519966125488 2.7486618757247916
      vertex 2.9564549922943115 15.2014799118042 2.7487319707870475
      vertex 2.9564670026302338 15.180399894714355 2.7589219808578482
    endloop
  endfacet
  facet normal 0.00026049478276928846 0.4352149910228747 0.9003265206198399
    outer loop
      vertex 2.9564670026302338 15.180399894714355 2.7589219808578482
      vertex 3.131811022758484 15.180439949035645 2.7588518857955924
      vertex 3.1317989826202393 15.201519966125488 2.7486618757247916
    endloop
  endfacet
  facet normal -0.00028541023700644875 -0.435047465034304 -0.9004074753733572
    outer loop
      vertex 2.9563579857349396 15.101850032806396 2.593772053718566
      vertex 2.9563469886779785 15.122940063476562 2.5835820436477652
      vertex 3.1316909790039062 15.12297010421753 2.5835119485855094
    endloop
  endfacet
  facet normal -0.00020894217383057398 -0.4355615393832936 -0.9001589313855769
    outer loop
      vertex 3.1316909790039062 15.12297010421753 2.5835119485855094
      vertex 3.1317020058631897 15.101890087127686 2.5937119722366324
      vertex 2.9563579857349396 15.101850032806396 2.593772053718566
    endloop
  endfacet
  facet normal 0.00037799135075720854 -0.9030577699620204 0.42951894164723564
    outer loop
      vertex 2.9564670026302338 15.180399894714355 2.7589219808578482
      vertex 2.9563579857349396 15.101850032806396 2.593772053718566
      vertex 3.131811022758484 15.180439949035645 2.7588518857955924
    endloop
  endfacet
  facet normal 0.0002511358899376244 -0.9030055116635088 0.42962888966652324
    outer loop
      vertex 2.9563579857349396 15.101850032806396 2.593772053718566
      vertex 3.1586080193519592 15.117050170898438 2.625601887702941
      vertex 3.131811022758484 15.180439949035645 2.7588518857955924
    endloop
  endfacet
  facet normal 0.0008892061529882205 -0.9029553941089717 0.4297333656605323
    outer loop
      vertex 3.1586080193519592 15.117050170898438 2.625601887702941
      vertex 3.1586750149726868 15.165279865264893 2.7269419431686392
      vertex 3.131811022758484 15.180439949035645 2.7588518857955924
    endloop
  endfacet
  facet normal 0.0003533641239518296 -0.9032571610110635 0.429099494541802
    outer loop
      vertex 2.9563579857349396 15.101850032806396 2.593772053718566
      vertex 3.1317020058631897 15.101890087127686 2.5937119722366324
      vertex 3.1586080193519592 15.117050170898438 2.625601887702941
    endloop
  endfacet
  facet normal 0.0010729470728789684 -0.9030574926068032 0.42951835098315916
    outer loop
      vertex 2.9564670026302338 15.180399894714355 2.7589219808578482
      vertex 2.929495006799698 15.117000102996826 2.6256920099258414
      vertex 2.9563579857349396 15.101850032806396 2.593772053718566
    endloop
  endfacet
  facet normal -0.00025382911126052587 -0.9029537811380662 0.4297375998202292
    outer loop
      vertex 2.9564670026302338 15.180399894714355 2.7589219808578482
      vertex 2.9295609891414642 15.16523027420044 2.7270320653915396
      vertex 2.929495006799698 15.117000102996826 2.6256920099258414
    endloop
  endfacet
  facet normal -0.7954413999269548 0.2632855744862534 0.5458513401556231
    outer loop
      vertex 1.9426630139350891 15.186110019683838 2.71723186969757
      vertex 1.942674994468689 15.165019989013672 2.7274218797683707
      vertex 1.9695799946784973 15.180190086364746 2.7593120336532584
    endloop
  endfacet
  facet normal -0.7954413999269548 0.2632855744862534 0.5458513401556231
    outer loop
      vertex 1.9695799946784973 15.180190086364746 2.7593120336532584
      vertex 1.9695680141448975 15.201280117034912 2.7491220235824576
      vertex 1.9426630139350891 15.186110019683838 2.71723186969757
    endloop
  endfacet
  facet normal -0.7959611609890963 -0.263721437993152 -0.5448824032208363
    outer loop
      vertex 1.9694600105285645 15.122730255126953 2.5839718580245963
      vertex 1.9694719910621643 15.101640224456787 2.594161868095397
      vertex 1.9426079988479614 15.116790294647217 2.6260720491409293
    endloop
  endfacet
  facet normal -0.7959594261826923 -0.2637272622000073 -0.544882118483813
    outer loop
      vertex 1.9426079988479614 15.116790294647217 2.6260720491409293
      vertex 1.9425960183143616 15.137879848480225 2.6158820390701285
      vertex 1.9694600105285645 15.122730255126953 2.5839718580245963
    endloop
  endfacet
  facet normal -0.0003748399422580064 0.9032400758479604 -0.4291354388502401
    outer loop
      vertex 1.9425960183143616 15.137879848480225 2.6158820390701285
      vertex 2.144804000854492 15.122769832611084 2.5839020013809195
      vertex 1.9694600105285645 15.122730255126953 2.5839718580245963
    endloop
  endfacet
  facet normal -0.00046392739319363465 0.9030213624050194 -0.42959539547294545
    outer loop
      vertex 1.9425960183143616 15.137879848480225 2.6158820390701285
      vertex 1.9695680141448975 15.201280117034912 2.7491220235824576
      vertex 2.144804000854492 15.122769832611084 2.5839020013809195
    endloop
  endfacet
  facet normal -0.0003264058873080744 0.9030779990062895 -0.42947645007612784
    outer loop
      vertex 1.9695680141448975 15.201280117034912 2.7491220235824576
      vertex 2.144912004470825 15.201310157775879 2.7490519285202017
      vertex 2.144804000854492 15.122769832611084 2.5839020013809195
    endloop
  endfacet
  facet normal 0.00019477568969180633 0.9030778977887205 -0.42947674277885645
    outer loop
      vertex 2.144912004470825 15.201310157775879 2.7490519285202017
      vertex 2.1717090010643005 15.137929916381836 2.615791916847228
      vertex 2.144804000854492 15.122769832611084 2.5839020013809195
    endloop
  endfacet
  facet normal -0.0011802454806990237 0.9029700186740816 -0.4297019343641992
    outer loop
      vertex 2.144912004470825 15.201310157775879 2.7490519285202017
      vertex 2.171774983406067 15.18616008758545 2.7171419858932486
      vertex 2.1717090010643005 15.137929916381836 2.615791916847228
    endloop
  endfacet
  facet normal 0.00019247424625977889 0.902969891134937 -0.42970378012931754
    outer loop
      vertex 1.9425960183143616 15.137879848480225 2.6158820390701285
      vertex 1.9426630139350891 15.186110019683838 2.71723186969757
      vertex 1.9695680141448975 15.201280117034912 2.7491220235824576
    endloop
  endfacet
  facet normal 0.7959699781088208 0.2638179141528026 0.5448228171814279
    outer loop
      vertex 2.171774983406067 15.18616008758545 2.7171419858932486
      vertex 2.144912004470825 15.201310157775879 2.7490519285202017
      vertex 2.144923985004425 15.180230140686035 2.7592419385910025
    endloop
  endfacet
  facet normal 0.7960060808746385 0.26369667253430346 0.5448287658566999
    outer loop
      vertex 2.144923985004425 15.180230140686035 2.7592419385910025
      vertex 2.171786993741989 15.165070056915283 2.7273319959640494
      vertex 2.171774983406067 15.18616008758545 2.7171419858932486
    endloop
  endfacet
  facet normal 0.795403537921484 -0.26333729112442433 -0.5458815649618849
    outer loop
      vertex 2.144804000854492 15.122769832611084 2.5839020013809195
      vertex 2.1717090010643005 15.137929916381836 2.615791916847228
      vertex 2.1717199981212616 15.11683988571167 2.625981926918029
    endloop
  endfacet
  facet normal 0.795448863630473 -0.26318478818489965 -0.5458890662186402
    outer loop
      vertex 2.1717199981212616 15.11683988571167 2.625981926918029
      vertex 2.144815981388092 15.101670265197754 2.5940920114517203
      vertex 2.144804000854492 15.122769832611084 2.5839020013809195
    endloop
  endfacet
  facet normal 0.0002854102330736522 0.43504747582463027 0.9004074701598253
    outer loop
      vertex 2.144912004470825 15.201310157775879 2.7490519285202017
      vertex 1.9695680141448975 15.201280117034912 2.7491220235824576
      vertex 1.9695799946784973 15.180190086364746 2.7593120336532584
    endloop
  endfacet
  facet normal 0.00026049482729600373 0.43521499042584344 0.9003265209084301
    outer loop
      vertex 1.9695799946784973 15.180190086364746 2.7593120336532584
      vertex 2.144923985004425 15.180230140686035 2.7592419385910025
      vertex 2.144912004470825 15.201310157775879 2.7490519285202017
    endloop
  endfacet
  facet normal -0.0002605242432437135 -0.43504746731867966 -0.9004074818140511
    outer loop
      vertex 1.9694719910621643 15.101640224456787 2.594161868095397
      vertex 1.9694600105285645 15.122730255126953 2.5839718580245963
      vertex 2.144804000854492 15.122769832611084 2.5839020013809195
    endloop
  endfacet
  facet normal -0.00028424393218351787 -0.4348880354791381 -0.9004844894846787
    outer loop
      vertex 2.144804000854492 15.122769832611084 2.5839020013809195
      vertex 2.144815981388092 15.101670265197754 2.5940920114517203
      vertex 1.9694719910621643 15.101640224456787 2.594161868095397
    endloop
  endfacet
  facet normal 0.0003779912683456425 -0.9030580095768965 0.42951843785990695
    outer loop
      vertex 1.9695799946784973 15.180190086364746 2.7593120336532584
      vertex 1.9694719910621643 15.101640224456787 2.594161868095397
      vertex 2.144923985004425 15.180230140686035 2.7592419385910025
    endloop
  endfacet
  facet normal 0.0002736367659561586 -0.9030150229752781 0.4296088842236368
    outer loop
      vertex 1.9694719910621643 15.101640224456787 2.594161868095397
      vertex 2.1717199981212616 15.11683988571167 2.625981926918029
      vertex 2.144923985004425 15.180230140686035 2.7592419385910025
    endloop
  endfacet
  facet normal 0.000843899160791413 -0.9029702443618409 0.42970225229957054
    outer loop
      vertex 2.1717199981212616 15.11683988571167 2.625981926918029
      vertex 2.171786993741989 15.165070056915283 2.7273319959640494
      vertex 2.144923985004425 15.180230140686035 2.7592419385910025
    endloop
  endfacet
  facet normal 0.00032577829847828634 -0.9031434412549819 0.42933881537383634
    outer loop
      vertex 1.9694719910621643 15.101640224456787 2.594161868095397
      vertex 2.144815981388092 15.101670265197754 2.5940920114517203
      vertex 2.1717199981212616 15.11683988571167 2.625981926918029
    endloop
  endfacet
  facet normal 0.0009160087149241061 -0.90305783169975 0.42951800140829977
    outer loop
      vertex 1.9695799946784973 15.180190086364746 2.7593120336532584
      vertex 1.9426079988479614 15.116790294647217 2.6260720491409293
      vertex 1.9694719910621643 15.101640224456787 2.594161868095397
    endloop
  endfacet
  facet normal -0.00018743512475268996 -0.9029715416888929 0.42970031390267566
    outer loop
      vertex 1.9695799946784973 15.180190086364746 2.7593120336532584
      vertex 1.942674994468689 15.165019989013672 2.7274218797683707
      vertex 1.9426079988479614 15.116790294647217 2.6260720491409293
    endloop
  endfacet
  facet normal 0.7893745449700299 0.37999409378171467 0.48217457050778995
    outer loop
      vertex 3.912909984588623 14.460900068283081 2.3602920770645133
      vertex 3.7237900495529175 14.856760025024414 2.357931971549987
      vertex 3.5293500423431396 14.686359882354736 2.8105419874191275
    endloop
  endfacet
  facet normal 0.7931993685223313 0.3385185883970178 0.506201468869328
    outer loop
      vertex 3.5293500423431396 14.686359882354736 2.8105419874191275
      vertex 3.6702300310134888 14.352100133895874 2.813321948051452
      vertex 3.912909984588623 14.460900068283081 2.3602920770645133
    endloop
  endfacet
  facet normal -0.9275751177306544 -0.3721912425591236 -0.03283412750870489
    outer loop
      vertex 3.745650053024292 15.601840019226074 1.7503319978713983
      vertex 3.7569700479507446 15.59867000579834 1.4664720296859735
      vertex 3.8558599948883057 15.348100185394287 1.5131319761276238
    endloop
  endfacet
  facet normal -0.9277689053416759 -0.3716480267478262 -0.033505260714628504
    outer loop
      vertex 3.8558599948883057 15.348100185394287 1.5131319761276238
      vertex 3.8445500135421753 15.351210117340088 1.791812062263488
      vertex 3.745650053024292 15.601840019226074 1.7503319978713983
    endloop
  endfacet
  facet normal -0.9292219205277876 -0.3692697624826658 -0.01365521609661669
    outer loop
      vertex 3.8588199615478516 15.346370220184326 1.3584920167922967
      vertex 3.8558599948883057 15.348100185394287 1.5131319761276238
      vertex 3.7569700479507446 15.59867000579834 1.4664720296859735
    endloop
  endfacet
  facet normal -0.930174349087492 -0.3665179087364012 -0.020983395224694067
    outer loop
      vertex 3.7569700479507446 15.59867000579834 1.4664720296859735
      vertex 3.759950041770935 15.597440242767334 1.355852007865905
      vertex 3.8588199615478516 15.346370220184326 1.3584920167922967
    endloop
  endfacet
  facet normal 0.672638028418704 0.5388382951333018 0.5071601072864816
    outer loop
      vertex 3.1558809876441956 15.040299892425537 3.078451991081237
      vertex 3.2705699801445007 14.895730018615723 3.0799418687820426
      vertex 3.329302966594696 15.061320304870605 2.826111912727355
    endloop
  endfacet
  facet normal 0.7032656873939414 0.48111259988317007 0.5234004577452944
    outer loop
      vertex 3.329302966594696 15.061320304870605 2.826111912727355
      vertex 3.1924989819526672 15.242189884185791 2.8436719179153434
      vertex 3.1558809876441956 15.040299892425537 3.078451991081237
    endloop
  endfacet
  facet normal 0.797515735607307 0.3620651946736837 0.4825737728727534
    outer loop
      vertex 3.2868599891662598 14.8609299659729 3.080311894416808
      vertex 3.410439968109131 14.584870100021362 3.0832020044326773
      vertex 3.5293500423431396 14.686359882354736 2.8105419874191275
    endloop
  endfacet
  facet normal 0.7948649322695988 0.4027042210409818 0.4538932140975698
    outer loop
      vertex 3.5293500423431396 14.686359882354736 2.8105419874191275
      vertex 3.356409013271332 15.03219985961914 2.806562066078185
      vertex 3.2868599891662598 14.8609299659729 3.080311894416808
    endloop
  endfacet
  facet normal 0.8059519007334103 0.3285914784854834 0.4924115900046704
    outer loop
      vertex 3.410439968109131 14.584870100021362 3.0832020044326773
      vertex 3.5023200511932373 14.355900049209595 3.0856119394302364
      vertex 3.6702300310134888 14.352100133895874 2.813321948051452
    endloop
  endfacet
  facet normal 0.806962038785136 0.3441012673115183 0.4800068601534186
    outer loop
      vertex 3.6702300310134888 14.352100133895874 2.813321948051452
      vertex 3.5293500423431396 14.686359882354736 2.8105419874191275
      vertex 3.410439968109131 14.584870100021362 3.0832020044326773
    endloop
  endfacet
  facet normal 0.7803130867938157 0.395776454499854 0.4842235895140093
    outer loop
      vertex 3.356409013271332 15.03219985961914 2.806562066078185
      vertex 3.5293500423431396 14.686359882354736 2.8105419874191275
      vertex 3.7237900495529175 14.856760025024414 2.357931971549987
    endloop
  endfacet
  facet normal 0.7726737921336406 0.43445710801833975 0.4628414763633009
    outer loop
      vertex 3.7237900495529175 14.856760025024414 2.357931971549987
      vertex 3.469093978404999 15.317359924316406 2.350772023200988
      vertex 3.356409013271332 15.03219985961914 2.806562066078185
    endloop
  endfacet
  facet normal 0.7083471804599121 0.5109938070800896 0.48695954766313887
    outer loop
      vertex 3.442122995853424 15.372079849243164 2.35259187221527
      vertex 3.26043701171875 15.567319869995117 2.412001967430114
      vertex 3.197969973087311 15.272449970245361 2.812291979789733
    endloop
  endfacet
  facet normal 0.7200986239684174 0.49215918479501414 0.4891189104713689
    outer loop
      vertex 3.197969973087311 15.272449970245361 2.812291979789733
      vertex 3.341854989528656 15.08857011795044 2.7854820489883414
      vertex 3.442122995853424 15.372079849243164 2.35259187221527
    endloop
  endfacet
  facet normal 0.34899043732286295 0.718183920871205 0.6020112378180824
    outer loop
      vertex 3.0420119762420654 15.685279846191406 2.429782032966613
      vertex 3.170691967010498 15.29830026626587 2.816841959953307
      vertex 3.2335540056228638 15.598229885101318 2.422592043876647
    endloop
  endfacet
  facet normal 0.3625944361067686 0.7165645789162888 0.5958695152018908
    outer loop
      vertex 3.0420119762420654 15.685279846191406 2.429782032966613
      vertex 2.8190900087356567 15.449790000915527 2.84862196445465
      vertex 3.170691967010498 15.29830026626587 2.816841959953307
    endloop
  endfacet
  facet normal 0.3763222204931518 0.707560504230976 0.5981134668401227
    outer loop
      vertex 3.0420119762420654 15.685279846191406 2.429782032966613
      vertex 2.818719983100891 15.789720058441162 2.446721911430358
      vertex 2.8190900087356567 15.449790000915527 2.84862196445465
    endloop
  endfacet
  facet normal 0.32697662473188394 0.7091005682260265 0.6247100695686527
    outer loop
      vertex 3.2794960141181946 15.854529857635498 2.124642014503478
      vertex 3.051930010318756 15.96038007736206 2.123602032661437
      vertex 3.0255330204963684 15.788390159606934 2.3326419591903678
    endloop
  endfacet
  facet normal 0.3447259381832924 0.687236652776218 0.6394292850852145
    outer loop
      vertex 3.0255330204963684 15.788390159606934 2.3326419591903678
      vertex 3.247431993484497 15.676050186157227 2.3337520360946646
      vertex 3.2794960141181946 15.854529857635498 2.124642014503478
    endloop
  endfacet
  facet normal -0.8860814958278556 -0.4153807142210211 -0.205714474465713
    outer loop
      vertex 3.832610011100769 15.352190017700195 1.879861950874328
      vertex 3.715530037879944 15.60325002670288 1.8772219419479363
      vertex 3.745650053024292 15.601840019226074 1.7503319978713983
    endloop
  endfacet
  facet normal -0.916527395409121 -0.3815337804219897 -0.12003960955233679
    outer loop
      vertex 3.745650053024292 15.601840019226074 1.7503319978713983
      vertex 3.8445500135421753 15.351210117340088 1.791812062263488
      vertex 3.832610011100769 15.352190017700195 1.879861950874328
    endloop
  endfacet
  facet normal -0.7927118876213717 0.3381268674997509 0.507225871479923
    outer loop
      vertex 1.1881699562072754 14.460319995880127 2.361352086067199
      vertex 1.431570053100586 14.351629972457886 2.814201951026916
      vertex 1.5723170042037964 14.68595027923584 2.8113020658493033
    endloop
  endfacet
  facet normal -0.7889393013291135 0.3795585052203413 0.4832288484074916
    outer loop
      vertex 1.5723170042037964 14.68595027923584 2.8113020658493033
      vertex 1.3771300315856934 14.856269836425781 2.35885202884674
      vertex 1.1881699562072754 14.460319995880127 2.361352086067199
    endloop
  endfacet
  facet normal -0.927670154844883 0.3718298764456886 0.034214423748689736
    outer loop
      vertex 1.353060007095337 15.601330280303955 1.7512720823287957
      vertex 1.3413200378417969 15.59816026687622 1.4674118757247918
      vertex 1.2425899505615234 15.347539901733398 1.5141519308090203
    endloop
  endfacet
  facet normal -0.9278668594599233 0.37127493849847015 0.03490001660366121
    outer loop
      vertex 1.2425899505615234 15.347539901733398 1.5141519308090203
      vertex 1.2543200254440308 15.350659847259521 1.7928220033645623
      vertex 1.353060007095337 15.601330280303955 1.7512720823287957
    endloop
  endfacet
  facet normal -0.9293402473765447 0.368916903613242 0.015067276944449494
    outer loop
      vertex 1.239400029182434 15.34581995010376 1.3595119714736932
      vertex 1.2425899505615234 15.347539901733398 1.5141519308090203
      vertex 1.3413200378417969 15.59816026687622 1.4674118757247918
    endloop
  endfacet
  facet normal -0.9302905548051725 0.3661345337475661 0.02247191219582378
    outer loop
      vertex 1.3413200378417969 15.59816026687622 1.4674118757247918
      vertex 1.3381600379943848 15.596920013427734 1.3568018674850457
      vertex 1.239400029182434 15.34581995010376 1.3595119714736932
    endloop
  endfacet
  facet normal -0.702850063259431 0.4807217537446311 0.5243170644303884
    outer loop
      vertex 1.946045994758606 15.040040016174316 3.078921914100646
      vertex 1.9089959859848022 15.241919994354248 2.844161868095397
      vertex 1.7722370028495789 15.06098985671997 2.826722025871276
    endloop
  endfacet
  facet normal -0.6722944477793938 0.538426322498477 0.5080524291111754
    outer loop
      vertex 1.7722370028495789 15.06098985671997 2.826722025871276
      vertex 1.8314169645309448 14.89542007446289 3.080501914024352
      vertex 1.946045994758606 15.040040016174316 3.078921914100646
    endloop
  endfacet
  facet normal -0.7944661177983199 0.4022873695690888 0.4549598443331557
    outer loop
      vertex 1.8151410222053528 14.860620021820068 3.08088195323944
      vertex 1.7451130151748657 15.031859874725342 2.807181954383849
      vertex 1.5723170042037964 14.68595027923584 2.8113020658493033
    endloop
  endfacet
  facet normal -0.7970639841451036 0.3616514611703548 0.48362922348849186
    outer loop
      vertex 1.5723170042037964 14.68595027923584 2.8113020658493033
      vertex 1.6916760206222534 14.584510087966919 3.0838719606399527
      vertex 1.8151410222053528 14.860620021820068 3.08088195323944
    endloop
  endfacet
  facet normal -0.8064938108734685 0.3437021775679719 0.48107852390002226
    outer loop
      vertex 1.6916760206222534 14.584510087966919 3.0838719606399527
      vertex 1.5723170042037964 14.68595027923584 2.8113020658493033
      vertex 1.431570053100586 14.351629972457886 2.814201951026916
    endloop
  endfacet
  facet normal -0.8054602923956163 0.3281648943311574 0.4934992598804872
    outer loop
      vertex 1.431570053100586 14.351629972457886 2.814201951026916
      vertex 1.5998910069465637 14.355499982833862 3.0863519906997676
      vertex 1.6916760206222534 14.584510087966919 3.0838719606399527
    endloop
  endfacet
  facet normal -0.7722815343491473 0.43404308567109307 0.4638834244553721
    outer loop
      vertex 1.7451130151748657 15.031859874725342 2.807181954383849
      vertex 1.6316289901733398 15.316969871520996 2.3514820337295523
      vertex 1.3771300315856934 14.856269836425781 2.35885202884674
    endloop
  endfacet
  facet normal -0.7798758495892703 0.3953599215772938 0.48526713430626045
    outer loop
      vertex 1.3771300315856934 14.856269836425781 2.35885202884674
      vertex 1.5723170042037964 14.68595027923584 2.8113020658493033
      vertex 1.7451130151748657 15.031859874725342 2.807181954383849
    endloop
  endfacet
  facet normal -0.7197391691683214 0.49174275331294254 0.49006590671980116
    outer loop
      vertex 1.6585819721221924 15.371700286865234 2.35328185558319
      vertex 1.7596129775047302 15.08823013305664 2.7861019372940055
      vertex 1.9034649729728699 15.272180080413818 2.812791943550109
    endloop
  endfacet
  facet normal -0.7080174275892492 0.5105589564448179 0.48789432690274315
    outer loop
      vertex 1.9034649729728699 15.272180080413818 2.812791943550109
      vertex 1.84027898311615 15.567019939422607 2.4125620126724234
      vertex 1.6585819721221924 15.371700286865234 2.35328185558319
    endloop
  endfacet
  facet normal -0.37611290727773156 0.7072751393186686 0.5985824573781381
    outer loop
      vertex 2.05868399143219 15.685070037841797 2.4301620721817008
      vertex 2.2823289930820465 15.44966983795166 2.8488320112228385
      vertex 2.2819589972496033 15.789609909057617 2.4469319581985465
    endloop
  endfacet
  facet normal -0.3623646539365393 0.7163082337539042 0.5963173415504653
    outer loop
      vertex 2.05868399143219 15.685070037841797 2.4301620721817008
      vertex 1.9307389855384827 15.29803991317749 2.8173218965530387
      vertex 2.2823289930820465 15.44966983795166 2.8488320112228385
    endloop
  endfacet
  facet normal -0.34876577677310616 0.71793527032716 0.6024378644907037
    outer loop
      vertex 2.05868399143219 15.685070037841797 2.4301620721817008
      vertex 1.867165982723236 15.59793996810913 2.42312204837799
      vertex 1.9307389855384827 15.29803991317749 2.8173218965530387
    endloop
  endfacet
  facet normal 0.0001048317735208733 0.7618726675673883 0.6477268154276548
    outer loop
      vertex 2.7793279886245728 15.449779987335205 2.848461985588073
      vertex 2.7789590060710907 15.790820121765137 2.4473220109939566
      vertex 2.321720987558365 15.790729999542236 2.4475020170211783
    endloop
  endfacet
  facet normal 0.00008815306158859475 0.7618632759198558 0.6477378644434055
    outer loop
      vertex 2.321720987558365 15.790729999542236 2.4475020170211783
      vertex 2.3220899999141693 15.449679851531982 2.8486419916152945
      vertex 2.7793279886245728 15.449779987335205 2.848461985588073
    endloop
  endfacet
  facet normal -0.3444703219120399 0.6869508779056045 0.6398739631103415
    outer loop
      vertex 1.8206729888916016 15.854229927062988 2.12521207332611
      vertex 1.8531230092048645 15.675750255584717 2.3342920541763297
      vertex 2.0749749839305878 15.788189888000488 2.3330119848251334
    endloop
  endfacet
  facet normal -0.32671567611778535 0.708867235492134 0.6251112776335406
    outer loop
      vertex 2.0749749839305878 15.788189888000488 2.3330119848251334
      vertex 2.048195004463196 15.960170269012451 2.1239920854568473
      vertex 1.8206729888916016 15.854229927062988 2.12521207332611
    endloop
  endfacet
  facet normal -0.8859757722394519 0.4149488220215061 0.20703720947615026
    outer loop
      vertex 1.2663999795913696 15.351640224456787 1.88086187839508
      vertex 1.383370041847229 15.602750301361084 1.878131985664367
      vertex 1.353060007095337 15.601330280303955 1.7512720823287957
    endloop
  endfacet
  facet normal -0.9164933802214659 0.38115056330260644 0.12150774503848363
    outer loop
      vertex 1.353060007095337 15.601330280303955 1.7512720823287957
      vertex 1.2543200254440308 15.350659847259521 1.7928220033645623
      vertex 1.2663999795913696 15.351640224456787 1.88086187839508
    endloop
  endfacet
endsolid US C 130 Hercules Airplane
