<?xml version="1.0" encoding="UTF-8" standalone="no"?>
<svg
   xmlns:dc="http://purl.org/dc/elements/1.1/"
   xmlns:cc="http://creativecommons.org/ns#"
   xmlns:rdf="http://www.w3.org/1999/02/22-rdf-syntax-ns#"
   xmlns:svg="http://www.w3.org/2000/svg"
   xmlns="http://www.w3.org/2000/svg"
   xmlns:sodipodi="http://sodipodi.sourceforge.net/DTD/sodipodi-0.dtd"
   xmlns:inkscape="http://www.inkscape.org/namespaces/inkscape"
   inkscape:version="1.0 (4035a4f, 2020-05-01)"
   sodipodi:docname="ClimbingForces.svg"
   viewBox="0 0 1000 431"
   height="431"
   width="1000"
   id="svg5408"
   version="1.1">
  <metadata
     id="metadata5414">
    <rdf:RDF>
      <cc:Work
         rdf:about="">
        <dc:format>image/svg+xml</dc:format>
        <dc:type
           rdf:resource="http://purl.org/dc/dcmitype/StillImage" />
        <dc:title />
      </cc:Work>
    </rdf:RDF>
  </metadata>
  <defs
     id="defs5412">
    <marker
       inkscape:stockid="Arrow1Lend"
       orient="auto"
       refY="0.0"
       refX="0.0"
       id="marker1568"
       style="overflow:visible;"
       inkscape:isstock="true">
      <path
         id="path1566"
         d="M 0.0,0.0 L 5.0,-5.0 L -12.5,0.0 L 5.0,5.0 L 0.0,0.0 z "
         style="fill-rule:evenodd;stroke:#000000;stroke-width:1pt;stroke-opacity:1;fill:#000000;fill-opacity:1"
         transform="scale(0.8) rotate(180) translate(12.5,0)" />
    </marker>
    <marker
       inkscape:isstock="true"
       style="overflow:visible"
       id="marker6466"
       refX="0.0"
       refY="0.0"
       orient="auto"
       inkscape:stockid="Arrow1Lstart">
      <path
         transform="scale(0.8) translate(12.5,0)"
         style="fill-rule:evenodd;stroke:#000000;stroke-width:1pt;stroke-opacity:1;fill:#000000;fill-opacity:1"
         d="M 0.0,0.0 L 5.0,-5.0 L -12.5,0.0 L 5.0,5.0 L 0.0,0.0 z "
         id="path6464" />
    </marker>
    <marker
       inkscape:collect="always"
       inkscape:isstock="true"
       style="overflow:visible;"
       id="marker6426"
       refX="0.0"
       refY="0.0"
       orient="auto"
       inkscape:stockid="Arrow1Lend">
      <path
         transform="scale(0.8) rotate(180) translate(12.5,0)"
         style="fill-rule:evenodd;stroke:#000000;stroke-width:1pt;stroke-opacity:1;fill:#000000;fill-opacity:1"
         d="M 0.0,0.0 L 5.0,-5.0 L -12.5,0.0 L 5.0,5.0 L 0.0,0.0 z "
         id="path6424" />
    </marker>
    <marker
       inkscape:isstock="true"
       style="overflow:visible"
       id="Arrow1Lstart"
       refX="0.0"
       refY="0.0"
       orient="auto"
       inkscape:stockid="Arrow1Lstart">
      <path
         transform="scale(0.8) translate(12.5,0)"
         style="fill-rule:evenodd;stroke:#000000;stroke-width:1pt;stroke-opacity:1;fill:#000000;fill-opacity:1"
         d="M 0.0,0.0 L 5.0,-5.0 L -12.5,0.0 L 5.0,5.0 L 0.0,0.0 z "
         id="path6038" />
    </marker>
    <marker
       inkscape:stockid="Arrow1Lend"
       orient="auto"
       refY="0.0"
       refX="0.0"
       id="marker6346"
       style="overflow:visible;"
       inkscape:isstock="true">
      <path
         id="path6344"
         d="M 0.0,0.0 L 5.0,-5.0 L -12.5,0.0 L 5.0,5.0 L 0.0,0.0 z "
         style="fill-rule:evenodd;stroke:#000000;stroke-width:1pt;stroke-opacity:1;fill:#000000;fill-opacity:1"
         transform="scale(0.8) rotate(180) translate(12.5,0)" />
    </marker>
    <marker
       inkscape:collect="always"
       inkscape:isstock="true"
       style="overflow:visible;"
       id="Arrow1Lend"
       refX="0.0"
       refY="0.0"
       orient="auto"
       inkscape:stockid="Arrow1Lend">
      <path
         transform="scale(0.8) rotate(180) translate(12.5,0)"
         style="fill-rule:evenodd;stroke:#000000;stroke-width:1pt;stroke-opacity:1;fill:#000000;fill-opacity:1"
         d="M 0.0,0.0 L 5.0,-5.0 L -12.5,0.0 L 5.0,5.0 L 0.0,0.0 z "
         id="path6041" />
    </marker>
  </defs>
  <sodipodi:namedview
     inkscape:document-rotation="0"
     inkscape:current-layer="svg5408"
     inkscape:window-maximized="1"
     inkscape:window-y="23"
     inkscape:window-x="0"
     inkscape:cy="206.29279"
     inkscape:cx="426.29772"
     inkscape:zoom="1"
     showgrid="false"
     id="namedview5410"
     inkscape:window-height="1155"
     inkscape:window-width="1920"
     inkscape:pageshadow="2"
     inkscape:pageopacity="0"
     guidetolerance="10"
     gridtolerance="10"
     objecttolerance="10"
     borderopacity="1"
     bordercolor="#666666"
     pagecolor="#ffffff" />
  <path
     inkscape:connector-curvature="0"
     id="path5961"
     d="m 234.21568,203.47351 c -0.33442,-1.01989 -0.48063,-2.57701 -0.32488,-3.46027 0.25816,-1.4641 -0.88256,-1.9038 -12.91556,-4.97882 -7.25928,-1.85508 -16.53246,-4.58154 -20.60705,-6.0588 -5.07922,-1.84124 -12.04173,-3.46388 -22.14553,-5.16028 l -14.73716,-2.47437 0.6208,-1.90271 c 0.59917,-1.83626 1.05646,-1.85903 13.09894,-0.65167 13.10469,1.31386 17.72258,0.98212 29.7148,-2.13464 4.18109,-1.08666 13.57196,-2.85908 14.42446,-2.72245 1.43961,0.23079 15.5043,-2.9158 18.19325,-4.07018 1.3303,-0.5711 2.75945,-0.97829 3.17587,-0.90487 0.41639,0.0734 2.70548,-0.87489 5.08688,-2.10737 9.01178,-4.66406 22.062,-7.92685 32.83121,-8.20842 10.93171,-0.28582 89.42105,8.92612 141.96686,16.66201 39.49966,5.81521 131.39562,21.6687 180.83471,31.19683 29.99584,5.78092 40.587,7.54907 43.63151,7.28411 3.25627,-0.28338 4.32916,-0.0721 5.64456,1.11172 1.09112,0.98195 5.84921,2.35014 14.49831,4.16901 14.53477,3.05663 13.9119,3.13197 25.68087,-3.106 3.08999,-1.63782 6.99393,-3.52347 8.67538,-4.19032 1.68144,-0.66687 4.99461,-2.28188 7.36262,-3.5889 2.36799,-1.30702 5.62892,-2.89956 7.24653,-3.53899 4.08142,-1.61337 21.6971,-10.52563 22.95783,-11.61501 0.56825,-0.49102 2.28581,-1.29156 3.81678,-1.77895 1.53095,-0.48739 5.13016,-2.27791 7.99822,-3.97892 2.86805,-1.70102 5.75676,-2.99716 6.41935,-2.88033 0.66258,0.11683 1.2667,-0.13921 1.34248,-0.56899 0.0758,-0.42978 4.0648,-2.72038 8.86449,-5.09024 4.7997,-2.36985 9.56699,-4.8972 10.59403,-5.61633 1.02703,-0.71913 3.51479,-1.98196 5.52841,-2.80627 2.01359,-0.82433 5.17404,-2.46803 7.02322,-3.65267 1.84916,-1.18465 5.52299,-2.93755 8.16407,-3.89538 l 4.80195,-1.74149 12.09003,2.79401 c 11.67542,2.69819 12.0878,2.86119 12.02448,4.75293 -0.0422,1.26031 -0.50558,1.88135 -1.29961,1.74135 -0.67873,-0.11968 -1.56875,0.51157 -1.97783,1.4028 -0.55168,1.20192 -0.32563,1.69413 0.87546,1.90592 2.82707,0.49849 1.02727,5.69436 -5.69165,16.43118 -3.41837,5.46259 -6.48706,11.26333 -6.81926,12.89064 -0.33223,1.62728 -1.16435,3.254 -1.84917,3.61492 -1.3371,0.70469 -10.91043,15.54607 -11.24243,17.42894 -0.10989,0.62318 -2.93293,5.45824 -6.27348,10.74459 -3.34051,5.28637 -6.19124,10.27845 -6.33496,11.09347 -0.18362,1.04135 0.87651,2.03121 3.56608,3.32978 5.26521,2.54209 5.10497,4.39167 -0.68612,7.92004 -3.27812,1.99731 -4.95598,3.70024 -5.95122,6.04021 -2.54661,5.98739 -2.48424,7.55882 0.36619,9.22646 5.75643,3.36782 7.67109,4.92098 7.47027,6.05981 -0.28412,1.61134 -2.27325,1.89647 -7.18647,1.03013 -2.25862,-0.39826 -4.30662,-0.35466 -4.55112,0.0969 -0.61002,1.12659 -8.49859,1.7514 -18.93982,1.50013 -15.47294,-0.37233 -20.92386,-0.11084 -24.9524,1.19704 -3.4348,1.11515 -4.68196,1.07611 -9.58066,-0.29977 -3.41964,-0.96047 -10.39368,-1.88925 -17.75462,-2.36452 -18.76147,-1.21134 -47.42788,-5.14578 -96.41025,-13.23221 -24.68967,-4.076 -44.94816,-7.08283 -45.01886,-6.68184 -0.0707,0.40099 -1.0841,0.56058 -2.25197,0.35464 -1.97715,-0.34862 -2.07268,-0.66213 -1.38683,-4.55178 1.26267,-7.16097 1.80628,-6.75931 -12.58149,-9.29626 l -12.76072,-2.25007 0.0541,3.2937 c 0.13939,8.48771 0.20829,8.13762 -1.54079,7.82922 -0.90947,-0.16038 -1.88973,-0.62875 -2.17832,-1.04095 -0.90365,-1.29042 -152.57969,-27.08339 -154.60602,-26.29122 -1.41854,0.55457 -1.92843,0.36054 -2.60527,-0.99144 -1.18724,-2.37161 -12.38155,-4.42202 -13.91162,-2.54813 -0.69157,0.84697 -1.65767,0.98416 -2.964,0.42091 -1.0659,-0.45957 -17.95258,-3.88422 -37.52592,-7.61034 -33.54028,-6.38495 -74.53075,-14.95926 -80.40277,-16.81848 -2.52805,-0.80042 -2.68633,-0.69801 -3.46006,2.23935 -0.63965,2.42841 -1.21192,3.06483 -2.71093,3.01518 -1.19948,-0.0397 -2.12438,-0.74671 -2.5082,-1.91727 z m 3.53253,-3.2099 c -0.13224,-1.10709 -0.56854,-2.46482 -0.96955,-3.01721 -0.49737,-0.68509 -0.64162,-0.47898 -0.45384,0.64844 0.15145,0.90903 0.1798,2.19484 0.063,2.85735 -0.11682,0.66252 0.19555,1.27653 0.69419,1.36445 0.54502,0.0961 0.8107,-0.64295 0.66596,-1.85312 z m 69.25186,10.91502 c -1.72983,-0.4946 -4.40587,-0.96327 -5.94678,-1.04146 -1.5409,-0.0782 -0.12524,0.32655 3.14512,0.89925 3.27057,0.57364 4.53147,0.63679 2.80166,0.14223 z m 52.28068,9.21769 c -1.93988,-0.52573 -5.37944,-1.13443 -7.64342,-1.35283 -2.26403,-0.21822 -0.67683,0.21195 3.52707,0.95587 4.20401,0.74331 6.05627,0.92255 4.11639,0.39673 z m 39.04699,6.87447 c -3.35839,-0.75847 -8.90051,-1.73569 -12.31579,-2.17161 -3.41529,-0.43592 -0.66749,0.18457 6.1062,1.37894 6.7737,1.1944 9.568,1.55112 6.20959,0.79267 z m 10.18038,1.86535 c -0.54241,-0.33856 -1.49792,-0.5071 -2.12343,-0.37441 -0.62547,0.13266 -0.18158,0.40972 0.98617,0.61565 1.16787,0.20593 1.67962,0.0974 1.13723,-0.24121 z M 274.47604,204.59042 c -1.00912,-0.38581 -2.91927,-0.728 -4.24473,-0.76074 -1.32551,-0.0324 -0.49988,0.28325 1.83479,0.70144 2.33487,0.41678 3.41913,0.44471 2.41001,0.059 z m 261.38502,46.04892 c 0.0598,-0.35074 -4.35737,-1.55786 -9.81731,-2.68278 -5.45992,-1.12496 -13.31552,-2.94432 -17.45686,-4.04306 -4.35818,-1.15628 -7.94493,-1.73487 -8.51552,-1.37363 -0.60995,0.38611 -0.38106,0.50821 0.60036,0.32025 0.8771,-0.168 1.51698,0.0887 1.43136,0.57418 -0.0852,0.48287 -0.8545,0.93482 -1.70968,1.0043 -0.85518,0.0695 6.75044,1.63652 16.90143,3.48229 10.15099,1.84575 18.50577,3.06908 18.56621,2.71849 z m 63.01736,11.11369 c -6.1917,-1.24166 -16.12936,-2.9934 -22.08366,-3.89306 -5.95429,-0.89964 -0.88835,0.11629 11.25765,2.25743 12.14601,2.14119 17.01772,2.87721 10.82602,1.6356 z m 20.02044,3.55939 c -1.24212,-0.41889 -3.53473,-0.82712 -5.09463,-0.90746 -1.55996,-0.0801 -0.54365,0.26257 2.2584,0.76154 2.80205,0.49915 4.07837,0.56464 2.83627,0.14573 z M 319.08277,211.42556 c -0.18164,-0.456 -4.4471,-1.54146 -9.4788,-2.4122 -8.94077,-1.54705 -9.00613,-1.54466 -2.87804,0.10562 9.94612,2.67859 12.71056,3.19461 12.35684,2.30655 z m 338.13793,59.86459 c -0.23249,-0.33199 -0.95976,-0.49129 -1.61615,-0.35401 -0.72537,0.15165 -0.5596,0.38841 0.42268,0.60361 0.88886,0.19481 1.42593,0.0825 1.19345,-0.24952 z M 231.83832,195.40799 c -0.23249,-0.33199 -0.95976,-0.4913 -1.61614,-0.35402 -0.72539,0.15166 -0.55962,0.38842 0.42267,0.60363 0.88884,0.19481 1.4259,0.0825 1.19347,-0.24954 z m 42.07911,7.31539 c -1.48502,-0.45611 -3.96942,-0.89416 -5.52088,-0.97347 -1.55146,-0.0793 -0.33644,0.29391 2.70003,0.82932 3.0365,0.53541 4.30586,0.60034 2.82085,0.14415 z m 11.48043,2.03143 c -1.24211,-0.41889 -3.53472,-0.82713 -5.09463,-0.90746 -1.55992,-0.0801 -0.54366,0.26254 2.25842,0.76155 2.80203,0.49914 4.07836,0.56464 2.83624,0.14573 z m 41.5109,4.44204 c 1.94067,0.34219 2.69393,0.94624 2.79969,2.2452 0.1713,2.10388 1.17853,2.48407 2.17709,0.82177 1.0071,-1.67654 6.4412,-0.62281 6.81904,1.32233 0.26268,1.35215 3.15218,1.94139 32.42603,6.61275 17.67571,2.82059 42.2829,6.90848 54.68264,9.08424 l 22.54499,3.95589 0.37837,-2.34166 c 0.35072,-2.16986 -0.009,-2.51134 -4.90631,-4.65465 l -5.28468,-2.313 0.30522,-4.21436 0.30521,-4.21434 -4.84032,-2.34976 c -2.66216,-1.29238 -6.92894,-3.35598 -9.48172,-4.58581 -3.93498,-1.89572 -4.58873,-2.53487 -4.29523,-4.1994 0.32878,-1.86458 3.3953,-3.39958 6.04865,-3.02777 0.56546,0.0793 3.96584,-1.02465 7.55639,-2.45311 l 6.52828,-2.59718 0.69657,-5.17728 0.69659,-5.17729 5.70203,-0.0682 c 3.43929,-0.0411 5.98146,-0.53341 6.40623,-1.24051 0.80349,-1.33748 1.37026,-1.25025 -71.98875,-11.0802 -34.33568,-4.60093 -43.38743,-5.57427 -44.09091,-4.74116 -0.49566,0.587 -2.26921,0.80994 -4.0303,0.50661 -2.95098,-0.50804 -3.32505,-0.29037 -6.05951,3.52936 l -2.91439,4.07108 -11.86574,0.28304 c -6.52614,0.15568 -12.47951,-0.0272 -13.22972,-0.40633 -0.87892,-0.44428 -1.3304,-1.99736 -1.26951,-4.36727 0.0938,-3.65276 0.0721,-3.67963 -3.18235,-3.93876 -3.01599,-0.24013 -3.57977,0.11487 -7.083,4.46017 -3.26109,4.04498 -4.24395,4.7276 -6.86315,4.76675 -18.0763,0.27011 -20.99559,-0.038 -20.61855,-2.17628 0.0784,-0.44473 -0.24391,-0.65468 -0.71628,-0.46653 -1.72434,0.68682 -18.25396,0.8377 -20.72889,0.18923 -1.40097,-0.36716 -3.91749,-0.36365 -5.59223,0.008 l -3.04498,0.67507 -0.69609,7.09357 c -0.38287,3.90148 -0.57441,7.72009 -0.42566,8.48583 0.34038,1.75209 3.74324,2.79406 20.07646,6.14755 l 12.88893,2.6463 0.56458,-3.20189 c 0.45157,-2.56098 0.94657,-3.23304 2.47284,-3.35731 1.04955,-0.0855 11.65317,1.8008 23.56362,4.19157 20.1638,4.04762 21.59177,4.23509 20.7319,2.72195 -0.79094,-1.39191 -0.60565,-2.1645 1.29149,-5.38474 3.04884,-5.17515 3.78854,-5.67165 7.48005,-5.02073 1.78343,0.31446 3.33041,1.07616 3.46388,1.70548 0.24101,1.13638 1.13231,-2.10042 2.62404,-9.52909 0.51732,-2.57623 1.45626,-4.45761 2.71166,-5.43334 1.83606,-1.42699 2.73126,-1.3495 20.39923,1.76584 l 18.47889,3.25833 1.73813,3.00099 c 1.67246,2.8876 1.66545,3.41315 -0.18511,13.90829 l -1.92326,10.90732 -3.17244,1.26359 c -2.94772,1.17407 -4.42411,1.04289 -20.84199,-1.85202 -15.24976,-2.68895 -17.84831,-3.34563 -18.97495,-4.79519 -0.71798,-0.92377 -1.22478,-2.29395 -1.12624,-3.04486 0.13118,-0.99846 -0.0818,-0.94072 -0.79232,0.21496 -0.72352,1.17698 -0.59545,1.80702 0.50203,2.46869 1.1064,0.66708 1.32718,1.797 0.88604,4.5351 -0.49076,3.04588 -0.40542,3.35414 0.51766,1.87105 0.81562,-1.31048 1.80062,-1.653 3.76011,-1.30749 z m -24.9597,-12.72093 c 0.29952,-1.69873 0.79913,-2.04851 2.49783,-1.74899 1.69872,0.29953 2.04852,0.79913 1.749,2.49782 -0.29953,1.69873 -0.79913,2.04853 -2.49782,1.74901 -1.69874,-0.29954 -2.04853,-0.79914 -1.74901,-2.49784 z m 184.31596,43.74836 c -0.53401,-0.33405 -1.67817,-0.55036 -2.54255,-0.4807 -0.86437,0.0696 -0.42745,0.34294 0.97096,0.60735 1.39842,0.26435 2.10561,0.20745 1.5716,-0.1266 z m 189.79159,33.51088 c -0.23249,-0.33199 -0.95978,-0.49131 -1.61615,-0.35402 -0.72539,0.15167 -0.55961,0.3884 0.42266,0.60363 0.88886,0.19481 1.42591,0.0825 1.19347,-0.24954 z M 470.52125,236.29037 c -8.7117,-3.29972 -10.30339,-3.65094 -10.53714,-2.32532 -0.18508,1.04965 1.05604,1.4927 6.79725,2.42664 5.78791,0.94146 6.44592,0.92368 3.73988,-0.10128 z m 152.93286,26.89024 c 0.39517,-0.44323 0.70368,-2.16229 0.68587,-3.82004 l -0.0329,-3.01417 -27.14121,-4.78573 -27.14122,-4.78573 -0.67395,3.82215 -0.67395,3.82215 27.12957,4.78367 c 18.27221,3.22189 27.36415,4.52057 27.84807,3.97777 z m 10.37309,1.81493 c -1.59622,-1.34979 -1.11742,-5.24117 0.68803,-5.59192 0.70311,-0.13659 1.67924,-1.14489 2.16915,-2.24064 l 0.89075,-1.99228 12.46487,2.44012 12.46486,2.44012 -0.61332,4.97614 -0.61332,4.97612 5.76891,0.55236 c 3.17292,0.30378 10.01181,1.07518 15.19756,1.71423 14.90808,1.83714 48.61515,3.59712 52.9348,2.76396 0.99728,-0.19236 2.67347,-1.36882 3.72484,-2.61438 l 1.91162,-2.26466 -4.34791,-1.30208 c -2.39135,-0.71613 -13.45274,-3.30709 -24.58083,-5.7577 -11.12809,-2.4506 -21.97939,-4.94113 -24.114,-5.53452 -4.23125,-1.17622 -4.98623,-0.56159 -5.96924,4.85968 -0.36203,1.99328 -0.74487,2.29123 -2.29708,1.7844 -1.59241,-0.52 -1.79682,-1.20593 -1.40652,-4.71953 0.42203,-3.79936 0.27052,-4.18378 -1.99791,-5.06865 -3.37909,-1.31811 -2.47508,-4.45319 1.27962,-4.43766 2.04495,0.008 2.80003,-0.52078 3.5878,-2.51465 1.294,-3.27513 2.28172,-4.33551 3.79066,-4.06945 0.84941,0.14978 1.051,1.19653 0.65877,3.42098 l -0.56516,3.20517 25.75059,4.20539 c 14.16285,2.31297 25.93809,3.88734 26.1672,3.4986 0.56999,-0.96725 5.18119,-0.0761 5.6461,1.09101 0.61128,1.53468 4.98119,1.87642 6.69416,0.52352 1.79188,-1.41527 11.31895,-13.98976 10.94389,-14.44451 -0.1338,-0.16223 -1.63084,-0.80681 -3.32682,-1.43242 -2.78686,-1.02806 -3.11485,-0.96021 -3.40845,0.70494 -0.30336,1.72045 -0.63842,1.7599 -5.06711,0.59469 -3.40275,-0.89527 -5.04574,-1.79521 -5.81668,-3.18613 -0.97935,-1.76688 -3.00161,-2.40152 -22.85079,-7.17151 -11.977,-2.87818 -22.11453,-5.09837 -22.52787,-4.93376 -0.41331,0.16463 -1.17212,2.68473 -1.68619,5.60021 -0.5273,2.99042 -1.45727,5.66678 -2.13362,6.1404 -1.46358,1.02483 -20.25095,-2.12878 -21.94543,-3.68367 -0.88521,-0.81232 -1.3127,-0.55207 -1.969,1.19883 l -0.83825,2.23642 -10.27843,-1.27484 c -5.65313,-0.70117 -13.06935,-1.09184 -16.48051,-0.8682 l -6.20212,0.40666 -6.74659,-3.95577 c -3.7106,-2.1757 -8.5549,-4.8752 -10.76516,-5.99889 -2.21023,-1.12372 -7.99888,-4.08268 -12.86366,-6.57549 -8.75912,-4.48838 -9.00576,-4.56091 -25.39402,-7.4694 -16.0116,-2.84156 -41.48902,-8.0922 -86.08498,-17.74093 -17.89309,-3.87131 -21.62348,-4.90645 -22.70727,-6.30087 -1.20339,-1.54831 -1.91348,-1.67207 -9.85329,-1.7173 -4.70604,-0.0268 -8.73591,0.0769 -8.95525,0.23051 -0.21934,0.15357 -0.70309,4.28111 -1.07515,9.17228 -0.56137,7.38116 -0.53064,7.75956 0.18077,2.22575 0.83227,-6.47418 0.9237,-6.68002 3.15599,-7.10653 3.82108,-0.73007 7.99719,0.35743 8.1829,2.1309 0.0899,0.85878 -0.50062,6.86315 -1.31234,13.34308 l -1.47582,11.78165 -3.73894,-0.5032 c -2.05645,-0.27661 -4.4073,-0.62406 -5.22419,-0.77181 -0.99155,-0.17788 -1.60125,0.38937 -1.8341,1.70993 -0.19188,1.08817 -0.0624,2.03015 0.28773,2.09325 0.35002,0.0638 4.90477,1.61166 10.12146,3.44121 5.21667,1.82954 11.44414,3.9487 13.83883,4.70925 l 4.35398,1.38284 1.57896,-8.95481 1.57899,-8.95484 3.22264,-1.66576 3.22265,-1.66576 22.1548,3.90649 22.1548,3.90649 4.61538,3.98138 4.61539,3.98139 -0.75675,4.362 c -1.50362,8.66214 -2.23722,8.04198 12.60914,10.65978 7.15878,1.26229 13.27094,2.00909 13.58255,1.65956 0.67044,-0.75203 59.42887,8.28139 61.34197,9.43061 1.01631,0.61055 1.11321,1.91704 0.42968,5.7936 l -0.88258,5.00532 4.03906,0.6856 c 3.15759,0.53595 3.74796,0.43943 2.70529,-0.44228 z M 591.95391,227.5515 c -0.13609,-0.70068 0.10046,-2.53093 0.52571,-4.06725 0.68852,-2.48739 1.08674,-2.76853 3.63678,-2.56706 1.57495,0.12446 3.2931,0.7325 3.81807,1.35135 1.47228,1.73544 0.0817,6.33476 -2.04426,6.76127 -2.89981,0.58174 -5.67011,-0.10814 -5.9363,-1.47831 z m -14.22043,-4.52256 c -1.09854,-0.41952 -1.73708,-1.32378 -1.57678,-2.23289 0.1995,-1.13145 1.14146,-1.49185 3.6309,-1.38924 4.38859,0.18092 7.73625,1.49076 7.48284,2.9279 -0.41053,2.32829 -4.48219,2.6247 -9.53696,0.69423 z m 114.21269,52.58045 c -0.54241,-0.33855 -1.49792,-0.5071 -2.12342,-0.37441 -0.62548,0.13265 -0.18159,0.40973 0.98614,0.61566 1.16789,0.20592 1.67965,0.0974 1.13726,-0.24121 z M 491.1943,239.38821 c -0.23247,-0.33201 -0.95972,-0.49139 -1.61616,-0.35402 -0.72538,0.15167 -0.55961,0.38842 0.42268,0.60365 0.88886,0.19481 1.42592,0.0825 1.19347,-0.24954 z m 43.43267,7.09276 c -0.12498,-0.84587 -4.45347,-1.90403 -17.49128,-4.27609 -9.52889,-1.73361 -16.39664,-2.83076 -15.26171,-2.43795 1.71347,0.593 19.36416,4.82124 30.11005,7.21285 1.91186,0.42556 2.75596,0.26619 2.64294,-0.49881 z m 123.85647,18.99296 0.67394,-3.82214 -9.67131,-1.70532 -9.6713,-1.70531 -0.74352,2.27729 c -1.67193,5.12068 -1.57604,5.19568 9.03283,7.06631 l 9.70542,1.71132 z m 43.8046,11.08492 c -0.54242,-0.33858 -1.49793,-0.5071 -2.12343,-0.37443 -0.62547,0.13266 -0.18158,0.40973 0.98619,0.61557 1.16788,0.20593 1.67965,0.0974 1.13727,-0.24118 z M 226.43528,185.13227 c 0.34445,-3.9131 0.5223,-7.39161 0.39522,-7.73006 -0.35889,-0.95576 -3.24802,-0.58186 -16.55021,2.14634 -6.78649,1.39147 -12.78626,2.45109 -13.33286,2.3547 -0.54659,-0.0964 -1.05329,0.16209 -1.12598,0.57434 -0.0727,0.41227 2.60573,1.50096 5.95169,2.42001 3.34611,0.91877 9.23101,2.74575 13.07754,4.05998 11.94395,4.08085 10.85705,4.43975 11.5846,-3.82531 z m 92.75591,22.82741 c 0.15042,-0.85307 -50.05375,-11.13097 -51.51947,-10.54716 -3.24927,1.29418 0.69603,2.3387 25.06033,6.63479 14.48169,2.55351 26.38831,4.31407 26.45914,3.91237 z m 162.04137,28.73203 c -0.75212,-0.34718 -1.42392,-1.30667 -1.49294,-2.13214 -0.0889,-1.06343 -0.25243,-0.94893 -0.56101,0.39281 -0.33523,1.45775 0.008,1.94859 1.49296,2.13215 1.36635,0.16893 1.52988,0.0544 0.56099,-0.39282 z m 236.19251,40.83555 c -0.23248,-0.33201 -0.95972,-0.49138 -1.61614,-0.35402 -0.7254,0.15166 -0.55961,0.38842 0.42266,0.60365 0.88885,0.19481 1.4259,0.0825 1.19347,-0.24954 z m 18.70043,2.07495 c 1.56512,-0.68102 3.80946,-1.1166 4.98743,-0.96793 1.59662,0.2014 1.76021,0.0968 0.64272,-0.41125 -1.11288,-0.50594 -1.29378,-1.22129 -0.70221,-2.77681 0.78452,-2.06276 0.75843,-2.06036 -1.69876,0.14806 -2.26566,2.03658 -3.23743,2.22 -10.54415,1.99008 -7.21104,-0.2269 -7.70446,-0.13717 -4.74209,0.8623 6.30249,2.12645 9.18987,2.40318 12.05706,1.15555 z M 458.4588,229.86753 c -0.36591,-0.47447 -1.80509,-1.28984 -3.19818,-1.81195 -1.8463,-0.6919 -2.58966,-0.6275 -2.74225,0.23789 -0.11513,0.65294 0.0743,1.0742 0.42085,0.93616 0.34659,-0.13804 1.68929,0.25592 2.98378,0.87555 2.55595,1.22335 3.58796,1.12661 2.53582,-0.2377 z M 187.32218,182.25338 c -0.5424,-0.33856 -1.49791,-0.5071 -2.12341,-0.37442 -0.62548,0.13265 -0.18159,0.40973 0.98615,0.61566 1.16788,0.20593 1.67963,0.0974 1.13723,-0.2412 z m 94.4385,15.72275 c -1.48502,-0.45612 -3.96941,-0.89417 -5.52087,-0.97348 -1.55146,-0.0793 -0.33644,0.2939 2.70004,0.82932 3.03647,0.53541 4.30584,0.60035 2.82083,0.14416 z m 8.49096,1.51302 c -1.0154,-0.38777 -2.73536,-0.69106 -3.82215,-0.67394 -1.08679,0.0171 -0.25599,0.33441 1.84616,0.70504 2.10218,0.37067 2.99139,0.35659 1.976,-0.0311 z m 194.49821,34.33337 c -0.54242,-0.33856 -1.49793,-0.5071 -2.12341,-0.37442 -0.62551,0.13264 -0.18159,0.40973 0.98613,0.61565 1.16788,0.20592 1.67966,0.0974 1.13726,-0.24119 z m 51.1451,1.73872 c 1.02801,-5.83013 1.00467,-5.95356 -1.46938,-7.80877 -1.38262,-1.03677 -3.00276,-2.4909 -3.60028,-3.2314 -0.78929,-0.9782 -6.28556,-2.43213 -20.09825,-5.31663 -16.72345,-3.49239 -19.36515,-3.85994 -21.94706,-3.05356 -3.92989,1.22736 -4.13689,1.543 -5.73332,8.74228 l -1.3834,6.23876 2.62298,0.80972 c 1.44262,0.44536 13.40974,2.77478 26.59358,5.17652 l 23.9706,4.36687 z m 211.62361,42.84843 c -0.53402,-0.33407 -1.67817,-0.55036 -2.54255,-0.48072 -0.86438,0.0696 -0.42746,0.34295 0.97095,0.60734 1.39842,0.26435 2.10562,0.20747 1.57161,-0.1266 z M 360.62681,208.48124 c 1.19254,-0.23166 1.72384,-1.91994 3.15058,-10.01132 0.94386,-5.35297 1.45082,-10.54175 1.12656,-11.53062 -0.55236,-1.68445 -1.64905,-1.98473 -17.37712,-4.75801 -11.92449,-2.10262 -17.13488,-2.7169 -17.98651,-2.1206 -1.65345,1.15776 -4.99177,20.09034 -3.83401,21.74378 0.88654,1.26611 32.07562,7.22944 34.9205,6.67677 z m 235.57684,41.41718 c -4.52781,-0.95585 -11.98098,-2.27004 -16.56264,-2.92044 -4.58164,-0.65039 -0.87709,0.13164 8.23236,1.73788 9.10944,1.60624 12.85806,2.13846 8.33028,1.18256 z m 174.9091,28.70982 c 4.25789,-0.24504 7.80067,-0.78063 7.87289,-1.19017 0.0722,-0.40953 2.04238,-0.40767 4.37812,0.004 2.33576,0.41186 4.30636,0.41119 4.37914,-0.002 0.1877,-1.06455 -3.3429,-2.26451 -5.42744,-1.84466 -0.96453,0.19428 -5.58836,-0.24953 -10.27521,-0.9862 -4.68684,-0.73676 -7.88349,-1.04671 -7.10367,-0.68891 0.77985,0.35781 1.32897,1.15492 1.22026,1.77142 -0.22545,1.27859 -1.57095,1.66089 -7.83668,2.22666 l -4.44972,0.40178 4.75037,0.37646 c 2.61271,0.20705 8.23408,0.17597 12.49194,-0.0691 z m -453.7255,-80.28501 c 0.23297,-1.32123 -0.10689,-2.20827 -0.89963,-2.34806 -0.70072,-0.12356 -1.33594,0.12631 -1.41157,0.55526 -0.0757,0.42893 -0.47614,1.34356 -0.88997,2.0325 -0.53945,0.89796 -0.24576,1.34195 1.03716,1.56816 1.34265,0.23675 1.8831,-0.21473 2.16401,-1.80786 z m 2.23215,0.66726 c -0.15167,-0.72535 -0.38844,-0.55959 -0.60365,0.4227 -0.1948,0.88884 -0.0825,1.42592 0.24954,1.19345 0.332,-0.23248 0.49138,-0.95971 0.35401,-1.61615 z m 328.97544,59.30652 c -1.00911,-0.3858 -2.91925,-0.728 -4.2447,-0.76074 -1.32553,-0.0324 -0.49988,0.28325 1.83473,0.70152 2.33489,0.41678 3.41916,0.4447 2.41002,0.0589 z m 5.47657,1.05311 c -0.23248,-0.33203 -0.95972,-0.4914 -1.61615,-0.35403 -0.72536,0.15166 -0.55961,0.38843 0.42268,0.60364 0.88885,0.19481 1.42591,0.0825 1.19345,-0.24954 z m 3.39747,0.59906 c -0.23249,-0.33202 -0.95972,-0.49139 -1.61616,-0.35403 -0.72535,0.15166 -0.5596,0.38843 0.42268,0.60365 0.88886,0.19481 1.42592,0.0825 1.19347,-0.24954 z m 95.1005,15.84194 c 3.67137,-0.15342 6.42606,-0.62589 6.12149,-1.04994 -0.30454,-0.42405 -3.15049,-1.32286 -6.32429,-1.99736 -5.78116,-1.22861 -7.39304,-0.82665 -7.92267,1.9758 -0.25658,1.3555 0.12483,1.40581 8.12547,1.0715 z M 365.72616,200.95094 c 0.0801,-1.55991 -0.26256,-0.54363 -0.76155,2.25843 -0.49916,2.80204 -0.56465,4.07837 -0.14572,2.83624 0.41888,-1.24209 0.82711,-3.53471 0.90745,-5.09462 z m 80.81037,5.3072 c 1.71143,-17.3761 1.67607,-16.1849 0.49952,-16.82146 -1.18221,-0.6396 -1.92323,3.22574 -3.75219,19.57269 -0.88353,7.89669 -0.93571,11.30762 -0.18334,11.98151 1.6518,1.47941 1.97619,0.0885 3.43601,-14.73274 z m 3.32457,9.09117 c -0.0697,-0.86437 -0.34296,-0.42743 -0.60735,0.97098 -0.26435,1.39841 -0.20746,2.10562 0.12661,1.57159 0.33407,-0.53403 0.55036,-1.67818 0.48071,-2.54256 z m 306.79947,55.91427 c -0.53401,-0.33406 -1.67818,-0.55036 -2.54255,-0.48071 -0.86439,0.0696 -0.42746,0.34295 0.97096,0.60735 1.39838,0.26455 2.10561,0.20745 1.57159,-0.1266 z m -16.45448,-3.73179 c -0.23248,-0.33199 -0.95976,-0.49131 -1.61615,-0.35402 -0.72536,0.15166 -0.55961,0.3884 0.42269,0.60362 0.88885,0.19481 1.42592,0.0825 1.19345,-0.24953 z m -282.7997,-53.71507 c 0.49922,-2.83122 0.31594,-3.44738 -1.09966,-3.69698 -1.41562,-0.24962 -1.79858,0.2667 -2.2978,3.09792 -0.49922,2.83121 -0.31594,3.44737 1.09968,3.69698 1.4156,0.24962 1.79856,-0.2667 2.29778,-3.09792 z m 268.96135,50.34823 c -0.54241,-0.33856 -1.49792,-0.5071 -2.12341,-0.37442 -0.62549,0.13265 -0.18159,0.40972 0.9862,0.61557 1.16787,0.20593 1.67962,0.0974 1.13723,-0.2412 z m 22.66201,3.09645 c -0.77984,-0.3578 -2.1176,-0.59366 -2.97277,-0.52418 -0.8552,0.0695 -0.21718,0.36221 1.41788,0.65054 1.63503,0.2883 2.33473,0.23143 1.55489,-0.12636 z m -61.66323,-12.8965 c 0.11995,0.0211 0.28363,-0.33425 0.36395,-0.78973 0.0823,-0.46715 -1.00384,-0.80183 -2.49193,-0.7678 -2.16121,0.0494 -2.60499,-0.23063 -2.45567,-1.54961 0.16299,-1.43982 0.11355,-1.46012 -0.46824,-0.19214 -0.3578,0.77986 -1.05148,1.34722 -1.54159,1.2608 -0.57167,-0.1008 -0.60946,0.33676 -0.10537,1.22085 0.59178,1.03785 1.48852,1.30406 3.63334,1.07853 1.5662,-0.16469 2.94571,-0.28213 3.06559,-0.261 z m 49.69696,9.73594 c -0.37057,-0.49352 -8.47705,-2.46098 -18.01441,-4.37211 -18.55072,-3.71728 -18.97989,-3.49516 -1.44557,0.74807 15.84786,3.8351 20.23144,4.65147 19.45998,3.62404 z m 36.3979,4.91277 c -2.45012,-1.12905 -6.23302,-2.58534 -8.40646,-3.23622 -3.29096,-0.98553 -3.90736,-0.95543 -3.6868,0.17996 0.18012,0.92714 -0.3867,1.36092 -1.77127,1.35584 -1.11986,-0.004 2.54386,0.83862 8.1416,1.87288 l 10.17771,1.88041 z m -73.67425,-13.03867 c -0.54242,-0.33857 -1.49794,-0.50711 -2.12343,-0.37442 -0.62549,0.13266 -0.18179,0.40969 0.98614,0.61566 1.16787,0.20593 1.67965,0.0974 1.13727,-0.24122 z m 50.26998,8.246 c 0.51111,-0.85086 -0.18148,-1.13516 -3.22833,-1.32521 -2.35133,-0.14665 -4.61794,-0.82137 -5.75472,-1.71556 -2.3387,-1.83739 -3.73438,-1.0656 -1.8131,1.00262 1.86203,2.00443 9.90436,3.52274 10.79617,2.03805 z m 4.30968,0.64417 c 0.43462,-0.72359 0.22661,-1.27369 -0.53384,-1.40778 -0.68605,-0.12098 -1.3485,0.35336 -1.47205,1.0541 -0.12356,0.70072 0.11669,1.33422 0.53385,1.40778 0.41719,0.0735 1.07958,-0.40079 1.47204,-1.0541 z M 439.869,207.11175 c -0.0346,-1.51134 0.10406,-3.69444 0.30807,-4.85135 l 0.37089,-2.10349 -4.00455,1.60235 c -2.20253,0.88129 -5.22928,1.84276 -6.72611,2.13657 -2.71591,0.53312 -2.71067,0.53923 2.54311,2.96094 7.5184,3.4656 7.58206,3.46774 7.50859,0.25498 z m 295.89752,53.41768 c -1.01541,-0.38777 -2.73536,-0.69107 -3.82215,-0.67394 -1.08679,0.0171 -0.256,0.3344 1.84616,0.70504 2.10218,0.37067 2.99139,0.35659 1.976,-0.0311 z M 249.29276,173.18227 c 10.13666,-0.27693 10.40374,-0.31829 10.63796,-1.64667 0.12199,-0.69183 0.59201,-1.1926 1.04451,-1.11281 0.45249,0.0798 0.71844,-0.39167 0.59102,-1.04767 -0.12745,-0.65602 0.24997,-2.01708 0.83872,-3.02457 0.986,-1.6872 1.13525,-1.49547 1.89127,2.42977 l 0.82082,4.26156 4.46872,0.17264 c 8.09674,0.31279 8.72578,-0.0239 8.88835,-4.75715 0.18205,-5.30085 -0.042,-7.21728 -0.86055,-7.36162 -0.90276,-0.15918 -9.84661,1.31337 -12.86395,2.11796 -1.35108,0.36027 -2.86441,1.56734 -3.36294,2.6824 -0.8682,1.94182 -0.94659,1.95107 -1.85818,0.21929 -0.92559,-1.7584 -1.00153,-1.76688 -2.76551,-0.30917 -0.99759,0.82439 -2.22333,1.27714 -2.72388,1.00609 -0.50054,-0.27104 -1.22976,-0.13418 -1.62042,0.30395 -0.39067,0.43822 -0.28305,0.8721 0.2393,0.96421 0.5223,0.0921 0.6136,0.54434 0.20288,1.00503 -0.52247,0.58605 -0.89665,0.46122 -1.24591,-0.41569 -0.39034,-0.98004 -1.0474,-0.89438 -3.01366,0.39288 -1.38295,0.90539 -4.07113,2.06408 -5.97372,2.57487 -4.542,1.21938 -2.1045,1.78428 6.66519,1.54469 z m 527.31671,87.9418 c 0.63996,-3.61211 1.74774,-7.0112 2.67985,-8.22369 1.82228,-2.37034 1.18828,-3.13614 -3.24338,-3.91756 l -2.47861,-0.43704 -1.48725,8.43458 c -1.60242,9.08781 -1.80584,8.36169 2.82172,10.0727 0.33908,0.12554 1.10759,-2.54264 1.70767,-5.92899 z M 326.5537,184.39441 c -0.13265,-0.62547 -0.40967,-0.18178 -0.61557,0.98621 -0.20593,1.16788 -0.0974,1.67963 0.24119,1.13724 0.33857,-0.54242 0.50711,-1.49793 0.37442,-2.12342 z m -55.5338,-8.69737 c 0.37107,-0.41625 0.29253,-0.82418 -0.17469,-0.90658 -0.46715,-0.0823 -1.15297,0.1908 -1.52405,0.60704 -0.37109,0.41624 -0.29252,0.82417 0.17467,0.90657 0.46717,0.0823 1.15298,-0.19079 1.52407,-0.60703 z m 495.10983,79.2003 c 0.93688,-4.53112 1.3833,-8.29487 0.99243,-8.36379 -0.66552,-0.11735 -2.50075,2.03439 -8.85621,10.38351 -1.4333,1.88291 -2.43474,3.85348 -2.22539,4.37902 0.20931,0.52556 2.18179,1.15446 4.38321,1.39762 l 4.00263,0.4421 z M 278.55754,176.40805 c -1.01541,-0.38778 -2.73537,-0.69107 -3.82216,-0.67395 -1.08679,0.0171 -0.25598,0.3344 1.84618,0.70505 2.10218,0.37068 2.99138,0.3566 1.97598,-0.0311 z m 218.72806,38.56056 c -1.24212,-0.41889 -3.53474,-0.82713 -5.09463,-0.90746 -1.55994,-0.0802 -0.54365,0.26253 2.2584,0.76154 2.80203,0.49917 4.07835,0.56467 2.83626,0.14573 z m 14.85139,2.60286 c -1.95387,-0.52889 -5.20269,-1.10175 -7.21961,-1.27302 -2.01693,-0.17127 -0.41832,0.26149 3.55249,0.96164 3.97077,0.70016 5.62097,0.84035 3.66712,0.31138 z m 254.54614,43.60885 c -0.15166,-0.72539 -0.38842,-0.55962 -0.60365,0.42266 -0.1948,0.88886 -0.0825,1.42591 0.24954,1.19346 0.33201,-0.23248 0.4914,-0.95971 0.35402,-1.61614 z M 282.89374,174.39108 c 5.1322,-7.18498 6.88804,-8.98909 8.69532,-8.93432 1.94803,0.0591 1.94212,0.0117 -0.20342,-1.63287 -2.29665,-1.76036 -8.98173,-2.55692 -10.17988,-1.21301 -0.33058,0.37085 -0.46806,2.51466 -0.30552,4.76402 0.22237,3.07715 -0.0383,4.57556 -1.05297,6.05171 -1.25821,1.83099 -1.21298,1.94473 0.67735,1.70346 1.11406,-0.14216 2.18002,-0.47477 2.36882,-0.73905 z m 175.55669,27.56822 c 0.32584,-2.93776 0.0958,-4.14301 -0.82153,-4.30476 -0.91734,-0.16176 -1.5457,0.89213 -2.24436,3.76416 -0.87055,3.57895 -0.78603,4.02132 0.82156,4.30478 1.60765,0.28348 1.83829,-0.10333 2.24428,-3.76421 z m -9.38084,-2.03723 c -0.15166,-0.72538 -0.38841,-0.5596 -0.60364,0.42269 -0.19481,0.88884 -0.0825,1.4259 0.24953,1.19345 0.33202,-0.2325 0.49131,-0.95976 0.35403,-1.61615 z m 194.24923,34.83594 c 2.92224,-0.18255 9.23191,0.3529 14.0215,1.18991 l 8.7084,1.52142 0.8986,-5.09621 c 0.61739,-3.5014 0.56732,-5.16024 -0.16002,-5.30085 -0.58214,-0.11324 -7.84401,-1.95366 -16.13724,-4.09132 -15.94095,-4.10891 -25.17059,-5.6172 -38.88723,-6.35474 l -8.40024,-0.45167 7.7151,4.33728 c 4.2433,2.38554 9.54057,5.20103 11.77168,6.2567 2.23113,1.05567 6.3652,3.31305 9.18688,5.01641 6.15375,3.71478 4.8599,3.37389 11.28264,2.97264 z m 114.13683,20.72678 c 0.0687,-0.38927 -0.43171,-0.80594 -1.11189,-0.92586 -0.68018,-0.11994 -1.096,0.13516 -0.92406,0.56688 0.17197,0.43172 0.67231,0.84835 1.11189,0.92586 0.43958,0.0775 0.85541,-0.17758 0.92406,-0.56688 z m 27.17511,2.67525 c 1.06285,-0.89637 1.30415,-1.24791 0.53625,-0.78121 -1.90037,1.15488 -3.09189,0.83468 -2.23042,-0.59941 0.591,-0.98384 0.40384,-1.054 -1.14432,-0.42894 -2.28837,0.92386 -2.48567,1.71588 -0.63853,2.56333 0.77983,0.3578 1.4464,0.70126 1.48124,0.76328 0.0349,0.0621 0.93293,-0.62065 1.99579,-1.51701 z M 310.67489,172.14966 c 1.86149,-0.61042 2.8209,-3.4197 1.9175,-5.61463 -0.37826,-0.91907 -1.6079,-1.28609 -4.56317,-1.362 -3.84942,-0.0989 -4.06874,0.0286 -4.52761,2.63086 -0.26522,1.50413 -0.27232,3.03453 -0.0158,3.40085 0.7143,1.02012 5.17267,1.60611 7.18908,0.94492 z m 11.59225,1.14989 c 0.55133,-0.30257 2.19147,-2.0009 3.64472,-3.7741 l 2.64233,-3.22396 -2.13633,0.18615 c -1.17498,0.10238 -4.14385,-0.16242 -6.59753,-0.58851 l -4.46125,-0.77436 -0.762,4.32149 -0.762,4.32148 3.71478,0.0411 c 2.04313,0.0226 4.16589,-0.20642 4.71722,-0.509 z m 369.91078,60.01977 0.89859,-5.09619 -7.61754,-1.4996 c -4.18964,-0.82475 -8.45995,-1.67626 -9.48954,-1.89222 -1.72425,-0.3616 -1.9106,-0.0539 -2.36154,3.89991 -0.2692,2.3609 -0.17866,4.83997 0.20127,5.50907 0.46747,0.82321 3.40327,1.69481 9.08047,2.69585 l 8.38965,1.47932 z m 99.30156,19.12567 c -0.28458,-0.40212 -2.04917,-1.36914 -3.92129,-2.14892 -3.38336,-1.40923 -3.40048,-1.40464 -2.84017,0.76265 0.31005,1.19922 1.26679,2.30439 2.12611,2.45591 0.8593,0.15152 1.49566,0.65395 1.41409,1.11653 -0.0815,0.4626 0.7263,0.32437 1.7952,-0.30699 1.06891,-0.63142 1.71064,-1.47706 1.42606,-1.87918 z M 301.29537,167.89927 c 0.37107,-0.41624 0.26983,-0.82819 -0.22478,-0.9154 -0.49472,-0.0873 -0.96691,0.22361 -1.04929,0.69076 -0.0823,0.46716 0.0189,0.8791 0.2248,0.91541 0.20605,0.0363 0.67817,-0.27451 1.04927,-0.69077 z m 369.99536,58.67187 c 0.38539,-2.58126 0.46391,-4.73495 0.17437,-4.78599 -0.28951,-0.0511 -0.64775,0.96953 -0.79601,2.268 -0.14822,1.29847 -0.40561,3.42062 -0.57191,4.71591 -0.57163,4.453 0.49322,2.49202 1.19356,-2.19791 z m -88.36029,-13.14863 c -1.48502,-0.45611 -3.96943,-0.89417 -5.52087,-0.97348 -1.55147,-0.0793 -0.33646,0.29391 2.70002,0.82932 3.03648,0.53542 4.30584,0.60036 2.82085,0.14416 z m 16.1288,2.89745 c -0.54241,-0.33856 -1.49792,-0.5071 -2.12344,-0.37442 -0.62547,0.13266 -0.18178,0.40969 0.98622,0.61558 1.16787,0.20593 1.67963,0.0974 1.13724,-0.2412 z m -38.8742,-7.79781 c -2.87111,-0.67676 -7.83968,-1.55408 -11.04141,-1.94892 -3.20159,-0.39561 -0.8525,0.15814 5.22022,1.23045 6.0726,1.0728 8.69217,1.39599 5.82107,0.7192 z m 191.57843,33.33289 c -0.24549,-1.70825 -4.26029,-2.62445 -5.13311,-1.17145 -0.58304,0.97066 -0.10172,1.34312 2.27762,1.76266 2.03323,0.35852 2.96426,0.16574 2.85549,-0.59121 z M 311.43911,163.85845 c -0.53403,-0.33407 -1.67819,-0.55037 -2.54256,-0.48071 -0.86438,0.0696 -0.42745,0.34295 0.97097,0.60735 1.3984,0.26434 2.1056,0.20746 1.57158,-0.12661 z m 208.93524,36.79725 c -1.01541,-0.38777 -2.73537,-0.69106 -3.82215,-0.67394 -1.0868,0.0171 -0.25601,0.33441 1.84616,0.70504 2.10217,0.37067 2.9914,0.35659 1.976,-0.0311 z m 8.50497,1.5017 c -1.00912,-0.38581 -2.91926,-0.728 -4.24473,-0.76075 -1.32551,-0.0324 -0.49986,0.28325 1.83478,0.70143 2.33489,0.41679 3.41915,0.44472 2.41002,0.059 z m -26.18327,-5.45056 c -0.534,-0.33406 -1.67813,-0.55045 -2.54251,-0.48092 -0.86439,0.0696 -0.42746,0.34295 0.97096,0.60736 1.39841,0.26434 2.10561,0.20746 1.57158,-0.12663 z m 102.76353,16.52127 4.05339,-0.31819 -7.97018,-1.9831 c -27.27065,-6.78536 -59.41561,-13.02961 -84.59105,-16.43205 -14.39689,-1.94572 -26.29813,-3.45432 -26.4472,-3.35241 -0.58469,0.39968 17.2451,4.39669 39.40424,8.83349 12.79437,2.56176 32.39197,6.5228 43.55024,8.80231 21.52475,4.39726 25.54684,4.95658 32.00056,4.44995 z M 324.46386,164.39818 c -0.5424,-0.33857 -1.49791,-0.5071 -2.1234,-0.37442 -0.62549,0.13267 -0.1816,0.40974 0.98615,0.61566 1.16787,0.20592 1.67963,0.0974 1.13723,-0.24122 z m 458.6331,74.36838 c 2.10835,-3.52279 3.92139,-6.90444 4.02903,-7.51474 0.10762,-0.61031 2.92301,-5.69888 6.25645,-11.3079 3.3334,-5.60903 6.5529,-11.39294 7.15436,-12.85318 1.02356,-2.48484 0.93182,-2.71805 -1.4313,-3.63987 -2.68957,-1.04916 -3.08729,-2.95589 -0.7128,-3.41717 0.78777,-0.15304 2.27671,0.0993 3.30875,0.56068 1.72628,0.77182 2.23356,0.24799 6.33931,-6.54601 2.4546,-4.06171 5.63088,-9.83918 7.05845,-12.83877 l 2.5956,-5.45378 -10.88999,-1.9202 c -12.09932,-2.13344 -10.79747,-2.3526 -22.94356,3.86239 -3.17122,1.62268 -7.48141,3.73949 -9.57818,4.70405 -6.60095,3.03653 -12.38326,5.82697 -18.26604,8.8149 -3.13082,1.59017 -8.1504,3.97974 -11.15463,5.3102 -3.00422,1.33043 -5.51323,2.70827 -5.57557,3.06188 -0.0624,0.35356 -1.27387,0.90016 -2.69225,1.2146 -1.41839,0.31445 -5.17361,2.0547 -8.34494,3.86723 -3.1713,1.8125 -6.06533,3.25271 -6.43119,3.20042 -0.36587,-0.0522 -3.36395,1.30561 -6.66248,3.01749 -3.2985,1.7119 -7.91238,3.91588 -10.25306,4.89773 -2.34067,0.98187 -5.60142,2.71173 -7.24612,3.84416 -1.6447,1.13244 -4.10804,2.25122 -5.47408,2.4862 -1.36605,0.235 -2.53183,0.70016 -2.59064,1.03369 -0.0588,0.33352 10.41288,2.96796 23.27044,5.85431 12.85754,2.88635 31.47458,7.37968 41.37118,9.98514 9.8966,2.60551 19.57694,5.06224 21.51185,5.45945 l 3.51804,0.72215 3.83337,-6.4051 z M 616.34431,215.0397 c -0.23247,-0.332 -0.95971,-0.49138 -1.61614,-0.35401 -0.72537,0.15166 -0.55961,0.3884 0.42266,0.60365 0.88888,0.1948 1.42593,0.0825 1.19345,-0.24955 z M 372.02656,170.20841 c -0.23248,-0.332 -0.95973,-0.49138 -1.61615,-0.35402 -0.72537,0.15166 -0.55961,0.38842 0.42267,0.60366 0.88885,0.1948 1.42591,0.0825 1.19346,-0.24955 z m 261.8939,45.8323 c 0.0886,-0.50242 -2.71673,-1.32965 -6.86804,-2.02522 -4.71163,-0.78937 -6.50184,-0.83757 -5.44777,-0.14638 2.21965,1.45548 12.13384,3.20362 12.31581,2.1716 z m 22.64356,4.33933 c -0.23248,-0.332 -0.95971,-0.49139 -1.61615,-0.35401 -0.72537,0.15166 -0.55961,0.38841 0.42268,0.60364 0.88885,0.19481 1.42591,0.0825 1.19345,-0.24954 z m -266.0999,-47.84749 c -0.54241,-0.33856 -1.49793,-0.5071 -2.12342,-0.37442 -0.62547,0.13266 -0.18178,0.40968 0.98614,0.61565 1.16789,0.20594 1.67965,0.0974 1.13725,-0.24118 z m 88.48447,15.45247 c 0.30926,-0.34686 0.0226,-0.72582 -0.63708,-0.84215 -0.65962,-0.11631 -1.05863,0.14175 -0.88666,0.57348 0.17193,0.43171 0.45862,0.81066 0.63706,0.84213 0.17845,0.0314 0.57744,-0.22659 0.88668,-0.57346 z m 159.07918,28.25064 c -0.23246,-0.33201 -0.9597,-0.49139 -1.61614,-0.35402 -0.72538,0.15166 -0.5596,0.38842 0.42268,0.60365 0.88884,0.1948 1.4259,0.0825 1.19345,-0.24955 z M 411.01386,175.28579 c -0.53401,-0.33406 -1.67817,-0.55036 -2.54255,-0.48071 -0.86438,0.0696 -0.42745,0.34295 0.97096,0.60735 1.39842,0.26435 2.10561,0.20746 1.5716,-0.12659 z m 199.98396,35.30806 c -0.23248,-0.33199 -0.95971,-0.49138 -1.61615,-0.35403 -0.72536,0.15167 -0.5596,0.38842 0.42268,0.60364 0.88886,0.19481 1.42592,0.0825 1.19345,-0.24952 z m 75.0335,12.88373 c 0.18764,-1.06417 -0.71374,-1.2231 -2.5481,-0.44928 -1.14764,0.48412 -1.05397,0.66566 0.48954,0.94868 1.04988,0.19222 1.97619,-0.0322 2.05856,-0.4994 z M 440.89141,179.67827 c -0.53401,-0.33405 -1.67817,-0.55035 -2.54255,-0.4807 -0.86437,0.0696 -0.42743,0.34294 0.97096,0.60735 1.39842,0.26436 2.10561,0.20746 1.57159,-0.12659 z m 22.06821,3.88616 c -0.5424,-0.33856 -1.49791,-0.5071 -2.12341,-0.37442 -0.62548,0.13264 -0.18159,0.40972 0.98615,0.61565 1.16787,0.20593 1.67964,0.0974 1.13724,-0.24119 z m 28.46183,4.97136 c -1.25035,-0.42114 -3.35253,-0.79181 -4.67149,-0.8237 -1.31901,-0.0319 -0.29599,0.31265 2.27334,0.76571 2.56934,0.45303 3.64849,0.47914 2.39815,0.058 z m 95.13448,16.80027 c -0.77459,-0.35578 -2.30206,-0.63306 -3.39445,-0.6161 -1.09237,0.0169 -0.45861,0.30794 1.40834,0.64686 1.86679,0.33972 2.7607,0.32508 1.98611,-0.0307 z m 63.69286,11.22874 c -0.77984,-0.3578 -2.11759,-0.59367 -2.97276,-0.52419 -0.8552,0.0695 -0.21718,0.3622 1.41788,0.65053 1.63505,0.28832 2.33473,0.23146 1.55488,-0.12634 z M 517.46881,192.30001 c -0.5424,-0.33855 -1.49792,-0.5071 -2.12343,-0.3744 -0.62547,0.13266 -0.18178,0.40969 0.98616,0.61565 1.16789,0.20594 1.67965,0.0974 1.13725,-0.24123 z m 44.60529,7.84349 c -0.77458,-0.35578 -2.3021,-0.63306 -3.39446,-0.6161 -1.09235,0.0169 -0.4586,0.30796 1.40833,0.64689 1.8668,0.33972 2.76071,0.32507 1.98613,-0.0307 z m 226.28824,32.4563 c -0.15168,-0.72538 -0.38842,-0.5596 -0.60364,0.42268 -0.19481,0.88885 -0.0825,1.42591 0.24952,1.19345 0.33201,-0.23249 0.49139,-0.9597 0.35402,-1.61615 z m -87.57267,-17.68612 c 1.29405,-1.16086 1.2693,-1.19618 -0.26413,-0.37723 -1.61049,0.86012 -2.1834,1.47828 -1.48434,1.60153 0.17639,0.0311 0.96318,-0.51982 1.74847,-1.2243 z m 8.89666,-3.90486 c 1.01028,-0.78521 1.64576,-1.46134 1.4122,-1.50252 -0.23359,-0.0412 -1.25126,0.56755 -2.26156,1.35275 -1.01028,0.7852 -1.64576,1.46137 -1.41217,1.50256 0.23357,0.0412 1.25126,-0.56759 2.26153,-1.35279 z m 4.49212,-2.49206 c 1.29405,-1.16087 1.2693,-1.19619 -0.26413,-0.37723 -0.93057,0.49699 -1.71739,1.04792 -1.74849,1.22429 -0.12327,0.69906 0.65356,0.37213 2.01262,-0.84706 z m 90.4821,0.27499 c 1.01408,-1.58102 1.70072,-3.07891 1.52576,-3.32873 -0.26615,-0.38012 -3.96474,4.74542 -4.13952,5.73658 -0.20958,1.18858 1.05303,0.0254 2.61376,-2.40785 z m -67.55129,-11.11982 c 1.29402,-1.16086 1.26929,-1.1962 -0.26415,-0.37724 -0.93056,0.497 -1.71737,1.04792 -1.74847,1.22429 -0.12327,0.69907 0.65356,0.37215 2.01262,-0.84705 z m 8.56934,-4.532 c 0.10834,-0.61441 -3.51377,0.78595 -4.29265,1.6596 -0.40758,0.45719 0.37737,0.35111 1.74434,-0.23573 1.36697,-0.58685 2.51371,-1.2276 2.54831,-1.42387 z m 13.38419,-6.37086 c 0.15326,-0.8692 -5.25259,1.40676 -7.56802,3.18627 -2.11533,1.62575 -1.70582,1.55383 2.48535,-0.43648 2.75989,-1.31063 5.04709,-2.54802 5.08267,-2.74979 z m 53.0658,8.58581 0.955,-2.45893 -1.65875,2.43156 c -0.91229,1.33735 -2.0673,3.49827 -2.5666,4.80208 l -0.90782,2.37053 1.61161,-2.34314 c 0.88639,-1.28872 2.04133,-3.44969 2.56661,-4.80208 z m -43.0421,-13.28201 c 2.4799,-1.48278 5.42604,-2.98652 6.54695,-3.34167 1.12096,-0.35511 4.64469,-2.01832 7.83057,-3.69596 7.38914,-3.89109 12.22944,-5.78631 13.98667,-5.47646 0.76237,0.13442 1.48171,-0.29766 1.59853,-0.96018 0.11682,-0.66252 0.58418,-1.82341 1.03848,-2.57981 0.75479,-1.25654 0.56472,-1.27732 -2.20229,-0.24106 -1.66561,0.62381 -4.39609,2.06819 -6.06775,3.20972 -1.67164,1.14153 -4.88173,2.94011 -7.13355,3.9968 -8.93706,4.19387 -17.26081,8.50028 -20.62385,10.67006 -4.91277,3.16964 -0.70628,1.84605 5.02623,-1.58152 z m 51.37537,-0.51275 c 1.34186,-2.37856 2.30949,-4.51062 2.15036,-4.73791 -0.68452,-0.97759 -4.88807,6.00522 -8.94709,14.86262 -1.01478,2.21441 4.3134,-5.72267 6.79673,-10.12471 z m -6.16421,-8.79624 c -1.95387,-0.52889 -5.20271,-1.10175 -7.21962,-1.27302 -2.01693,-0.17126 -0.4183,0.26149 3.55247,0.96164 3.97079,0.70016 5.621,0.84018 3.66715,0.31138 z m 6.60464,-2.13516 c 1.02642,-1.70861 -14.17301,-4.41372 -16.91503,-3.0104 -1.68137,0.8605 -0.96325,1.11875 7.16643,2.57731 7.26554,1.30345 9.1748,1.38833 9.74859,0.43312 z"
     style="fill:#000000;stroke-width:0.86246842" />
  <path
     inkscape:connector-curvature="0"
     id="path6036"
     d="M 319.81698,88.410076 84.068667,46.841288"
     style="fill:none;fill-rule:evenodd;stroke:#000000;stroke-width:2;stroke-linecap:butt;stroke-linejoin:miter;stroke-miterlimit:4;stroke-dasharray:none;stroke-opacity:1;marker-end:url(#Arrow1Lend)" />
  <text
     transform="rotate(10)"
     id="text6334"
     y="7.3046465"
     x="173.49513"
     style="font-style:italic;font-weight:normal;font-size:10px;line-height:125%;font-family:Sans;-inkscape-font-specification:'Sans Italic';letter-spacing:0px;word-spacing:0px;fill:#000000;fill-opacity:1;stroke:none;stroke-width:1px;stroke-linecap:butt;stroke-linejoin:miter;stroke-opacity:1"
     xml:space="preserve"><tspan
       y="7.3046465"
       x="173.49513"
       id="tspan6332"
       sodipodi:role="line">$V_{a/c}$</tspan></text>
  <path
     sodipodi:nodetypes="cc"
     inkscape:connector-curvature="0"
     id="path6336"
     d="M 516.77467,86.932531 490.86223,220.78122"
     style="fill:none;fill-rule:evenodd;stroke:#000000;stroke-width:2;stroke-linecap:butt;stroke-linejoin:miter;stroke-miterlimit:4;stroke-dasharray:none;stroke-opacity:1;marker-start:url(#Arrow1Lstart)" />
  <path
     inkscape:connector-curvature="0"
     id="path6422"
     d="M 105.27933,147.0371 920.0255,290.69882"
     style="fill:none;fill-rule:evenodd;stroke:#000000;stroke-width:2;stroke-linecap:butt;stroke-linejoin:miter;stroke-miterlimit:4;stroke-dasharray:none;stroke-opacity:1;marker-start:url(#marker6466);marker-end:url(#marker6426)" />
  <text
     id="text6782"
     y="64.961327"
     x="513.94531"
     style="font-style:italic;font-weight:normal;font-size:10px;line-height:125%;font-family:Sans;-inkscape-font-specification:'Sans Italic';letter-spacing:0px;word-spacing:0px;fill:#000000;fill-opacity:1;stroke:none;stroke-width:1px;stroke-linecap:butt;stroke-linejoin:miter;stroke-opacity:1"
     xml:space="preserve"><tspan
       style="font-size:21.3333px"
       y="64.961327"
       x="513.94531"
       id="tspan6780"
       sodipodi:role="line">L</tspan></text>
  <text
     xml:space="preserve"
     style="font-style:italic;font-weight:normal;font-size:10px;line-height:125%;font-family:Sans;-inkscape-font-specification:'Sans Italic';letter-spacing:0px;word-spacing:0px;fill:#000000;fill-opacity:1;stroke:none;stroke-width:1px;stroke-linecap:butt;stroke-linejoin:miter;stroke-opacity:1"
     x="481.11685"
     y="370.25989"
     id="text6786"><tspan
       sodipodi:role="line"
       id="tspan6784"
       x="481.11685"
       y="370.25989"
       style="font-size:21.3333px">W</tspan></text>
  <text
     xml:space="preserve"
     style="font-style:italic;font-weight:normal;font-size:10px;line-height:125%;font-family:Sans;-inkscape-font-specification:'Sans Italic';letter-spacing:0px;word-spacing:0px;fill:#000000;fill-opacity:1;stroke:none;stroke-width:1px;stroke-linecap:butt;stroke-linejoin:miter;stroke-opacity:1"
     x="930.2804"
     y="304.76746"
     id="text6794"><tspan
       sodipodi:role="line"
       id="tspan6792"
       x="930.2804"
       y="304.76746"
       style="font-size:21.3333px">D</tspan></text>
  <path
     inkscape:connector-curvature="0"
     id="path1528"
     d="M 490.86223,220.78122 V 346.45903"
     style="fill:none;fill-rule:evenodd;stroke:#000000;stroke-width:1px;stroke-linecap:butt;stroke-linejoin:miter;stroke-opacity:1;marker-end:url(#marker1568)" />
  <path
     inkscape:connector-curvature="0"
     id="path1636"
     d="M 241,72.999999 H 393"
     style="fill:none;fill-rule:evenodd;stroke:#000000;stroke-width:1;stroke-linecap:butt;stroke-linejoin:miter;stroke-miterlimit:4;stroke-dasharray:1, 1;stroke-dashoffset:0;stroke-opacity:1" />
  <text
     xml:space="preserve"
     style="font-style:italic;font-weight:normal;font-size:10px;line-height:125%;font-family:Sans;-inkscape-font-specification:'Sans Italic';letter-spacing:0px;word-spacing:0px;fill:#000000;fill-opacity:1;stroke:none;stroke-width:1px;stroke-linecap:butt;stroke-linejoin:miter;stroke-opacity:1"
     x="359.94528"
     y="107.96133"
     id="text1640"><tspan
       sodipodi:role="line"
       id="tspan1638"
       x="359.94528"
       y="107.96133"
       style="font-size:21.3333px">$\bar{\gamma}$</tspan></text>
  <text
     id="text1108"
     y="131.76746"
     x="82.280396"
     style="font-style:italic;font-weight:normal;font-size:10px;line-height:125%;font-family:Sans;-inkscape-font-specification:'Sans Italic';letter-spacing:0px;word-spacing:0px;fill:#000000;fill-opacity:1;stroke:none;stroke-width:1px;stroke-linecap:butt;stroke-linejoin:miter;stroke-opacity:1"
     xml:space="preserve"><tspan
       style="font-size:21.3333px"
       y="131.76746"
       x="82.280396"
       id="tspan1106"
       sodipodi:role="line">T</tspan></text>
</svg>
