<?xml version="1.0" encoding="UTF-8" standalone="no"?>
<!-- Created with Inkscape (http://www.inkscape.org/) -->

<svg
   xmlns:dc="http://purl.org/dc/elements/1.1/"
   xmlns:cc="http://creativecommons.org/ns#"
   xmlns:rdf="http://www.w3.org/1999/02/22-rdf-syntax-ns#"
   xmlns:svg="http://www.w3.org/2000/svg"
   xmlns="http://www.w3.org/2000/svg"
   xmlns:sodipodi="http://sodipodi.sourceforge.net/DTD/sodipodi-0.dtd"
   xmlns:inkscape="http://www.inkscape.org/namespaces/inkscape"
   version="1.1"
   id="svg5408"
   width="1000"
   height="431"
   viewBox="0 0 1000 431"
   sodipodi:docname="CruiseForces.svg"
   inkscape:version="0.92.2 5c3e80d, 2017-08-06">
  <metadata
     id="metadata5414">
    <rdf:RDF>
      <cc:Work
         rdf:about="">
        <dc:format>image/svg+xml</dc:format>
        <dc:type
           rdf:resource="http://purl.org/dc/dcmitype/StillImage" />
        <dc:title></dc:title>
      </cc:Work>
    </rdf:RDF>
  </metadata>
  <defs
     id="defs5412">
    <marker
       inkscape:stockid="Arrow1Lstart"
       orient="auto"
       refY="0.0"
       refX="0.0"
       id="marker6466"
       style="overflow:visible"
       inkscape:isstock="true">
      <path
         id="path6464"
         d="M 0.0,0.0 L 5.0,-5.0 L -12.5,0.0 L 5.0,5.0 L 0.0,0.0 z "
         style="fill-rule:evenodd;stroke:#000000;stroke-width:1pt;stroke-opacity:1;fill:#000000;fill-opacity:1"
         transform="scale(0.8) translate(12.5,0)" />
    </marker>
    <marker
       inkscape:stockid="Arrow1Lend"
       orient="auto"
       refY="0.0"
       refX="0.0"
       id="marker6426"
       style="overflow:visible;"
       inkscape:isstock="true">
      <path
         id="path6424"
         d="M 0.0,0.0 L 5.0,-5.0 L -12.5,0.0 L 5.0,5.0 L 0.0,0.0 z "
         style="fill-rule:evenodd;stroke:#000000;stroke-width:1pt;stroke-opacity:1;fill:#000000;fill-opacity:1"
         transform="scale(0.8) rotate(180) translate(12.5,0)" />
    </marker>
    <marker
       inkscape:stockid="Arrow1Lstart"
       orient="auto"
       refY="0.0"
       refX="0.0"
       id="Arrow1Lstart"
       style="overflow:visible"
       inkscape:isstock="true">
      <path
         id="path6038"
         d="M 0.0,0.0 L 5.0,-5.0 L -12.5,0.0 L 5.0,5.0 L 0.0,0.0 z "
         style="fill-rule:evenodd;stroke:#000000;stroke-width:1pt;stroke-opacity:1;fill:#000000;fill-opacity:1"
         transform="scale(0.8) translate(12.5,0)" />
    </marker>
    <marker
       inkscape:isstock="true"
       style="overflow:visible;"
       id="marker6346"
       refX="0.0"
       refY="0.0"
       orient="auto"
       inkscape:stockid="Arrow1Lend">
      <path
         transform="scale(0.8) rotate(180) translate(12.5,0)"
         style="fill-rule:evenodd;stroke:#000000;stroke-width:1pt;stroke-opacity:1;fill:#000000;fill-opacity:1"
         d="M 0.0,0.0 L 5.0,-5.0 L -12.5,0.0 L 5.0,5.0 L 0.0,0.0 z "
         id="path6344" />
    </marker>
    <marker
       inkscape:stockid="Arrow1Lend"
       orient="auto"
       refY="0.0"
       refX="0.0"
       id="Arrow1Lend"
       style="overflow:visible;"
       inkscape:isstock="true"
       inkscape:collect="always">
      <path
         id="path6041"
         d="M 0.0,0.0 L 5.0,-5.0 L -12.5,0.0 L 5.0,5.0 L 0.0,0.0 z "
         style="fill-rule:evenodd;stroke:#000000;stroke-width:1pt;stroke-opacity:1;fill:#000000;fill-opacity:1"
         transform="scale(0.8) rotate(180) translate(12.5,0)" />
    </marker>
  </defs>
  <sodipodi:namedview
     pagecolor="#ffffff"
     bordercolor="#666666"
     borderopacity="1"
     objecttolerance="10"
     gridtolerance="10"
     guidetolerance="10"
     inkscape:pageopacity="0"
     inkscape:pageshadow="2"
     inkscape:window-width="1440"
     inkscape:window-height="855"
     id="namedview5410"
     showgrid="false"
     inkscape:zoom="0.70710678"
     inkscape:cx="639.75571"
     inkscape:cy="51.207498"
     inkscape:window-x="0"
     inkscape:window-y="0"
     inkscape:window-maximized="1"
     inkscape:current-layer="svg5408" />
  <path
     style="fill:#000000;stroke-width:0.86246842"
     d="m 244.49943,250.91988 c -0.50645,-0.94632 -0.92082,-2.4544 -0.92082,-3.35127 0,-1.48669 -1.19974,-1.72164 -13.5839,-2.66042 -7.47113,-0.56635 -17.07687,-1.64112 -21.34609,-2.3884 -5.32174,-0.93151 -12.46029,-1.32021 -22.70516,-1.23634 l -14.94294,0.1223 0.28099,-1.9816 c 0.27117,-1.91241 0.71758,-2.01424 12.78677,-2.91638 13.13375,-0.9817 17.62388,-2.11029 28.89269,-7.26212 3.92888,-1.7962 12.8693,-5.1724 13.73257,-5.18588 1.45781,-0.0227 14.76243,-5.56379 17.21008,-7.16757 1.21092,-0.79343 2.54765,-1.4426 2.97049,-1.4426 0.42282,0 2.51246,-1.3314 4.64366,-2.95869 8.06496,-6.15807 20.35034,-11.63744 30.90706,-13.78478 10.71599,-2.17975 89.61254,-6.7373 142.70338,-8.24342 39.90938,-1.13218 133.16216,-1.4771 183.5047,-0.67874 30.54398,0.48437 41.28128,0.38653 44.23353,-0.40308 3.15759,-0.84452 4.25087,-0.82273 5.75185,0.11466 1.24505,0.77756 6.16845,1.29874 15.00199,1.58807 14.84474,0.48626 14.24441,0.66861 24.75136,-7.51825 2.75865,-2.14951 6.27584,-4.68442 7.81594,-5.63312 1.5401,-0.94872 4.5225,-3.11452 6.62757,-4.81288 2.10505,-1.69836 5.0399,-3.83297 6.52189,-4.74358 3.73926,-2.29759 19.53971,-14.13338 20.59213,-15.42514 0.47435,-0.58223 2.0268,-1.66886 3.44988,-2.4147 1.42306,-0.74583 4.65667,-3.13414 7.18577,-5.30734 2.52912,-2.17321 5.14886,-3.95128 5.82167,-3.95128 0.6728,0 1.22328,-0.35706 1.22328,-0.79347 0,-0.4364 3.53066,-3.3849 7.84591,-6.55221 4.31526,-3.16731 8.57126,-6.48409 9.45781,-7.37064 0.88655,-0.88655 3.11724,-2.56218 4.95712,-3.72363 1.83986,-1.16147 4.66687,-3.329 6.28224,-4.81675 1.61536,-1.48775 4.92899,-3.85198 7.36362,-5.25388 l 4.42659,-2.54888 12.39153,0.65215 c 11.96658,0.62979 12.401,0.7187 12.66714,2.5927 0.17733,1.24848 -0.17121,1.94056 -0.97749,1.94056 -0.68919,0 -1.45608,0.77622 -1.70418,1.72494 -0.33459,1.27946 -0.0265,1.72494 1.19311,1.72494 2.87069,0 2.00048,5.42947 -2.75193,17.1699 -2.41787,5.97319 -4.43261,12.2187 -4.47723,13.87895 -0.0446,1.66025 -0.58163,3.40675 -1.19336,3.88111 -1.19441,0.92617 -8.04512,17.20447 -8.04512,19.11639 0,0.63279 -1.94055,5.88462 -4.31234,11.67075 -2.37179,5.78613 -4.31235,11.19739 -4.31235,12.02499 0,1.05741 1.21592,1.84815 4.09011,2.65995 5.62666,1.58918 5.79003,3.43848 0.69961,7.91886 -2.88149,2.5362 -4.23815,4.50461 -4.81194,6.98186 -1.46822,6.33865 -1.13392,7.87537 1.96278,9.0227 6.2538,2.31708 8.40907,3.51415 8.40907,4.67056 0,1.63619 -1.90941,2.26239 -6.89842,2.26239 -2.29346,0 -4.30278,0.39857 -4.46515,0.8857 -0.40515,1.2154 -8.06536,3.20056 -18.39159,4.76621 -15.30253,2.32016 -20.62523,3.52423 -24.36546,5.5118 -3.18897,1.69464 -4.42396,1.87277 -9.48716,1.36844 -3.53446,-0.35206 -10.56384,-0.0557 -17.89548,0.75446 -18.68679,2.06496 -47.6009,3.16816 -97.24331,3.71028 -25.02237,0.27323 -45.49522,0.82994 -45.49522,1.23711 0,0.40718 -0.97028,0.74031 -2.15617,0.74031 -2.00765,0 -2.15617,-0.29219 -2.15617,-4.24181 0,-7.27144 0.6051,-6.97028 -14.00462,-6.97028 h -12.95758 l 0.62519,3.23427 c 1.61114,8.33455 1.6182,7.97782 -0.15786,7.97782 -0.9235,0 -1.97019,-0.29108 -2.32598,-0.64686 -1.11401,-1.1139 -154.96465,-0.17675 -156.82263,0.95526 -1.30069,0.79246 -1.83653,0.68992 -2.73784,-0.52402 -1.58104,-2.12941 -12.96133,-2.20483 -14.14276,-0.0937 -0.534,0.9542 -1.46158,1.25707 -2.84588,0.92922 -1.12951,-0.26749 -18.35433,-0.70778 -38.27734,-0.97841 -34.13947,-0.46375 -75.99611,-1.78987 -82.10176,-2.60117 -2.62864,-0.34928 -2.76674,-0.22093 -3.01864,2.80616 -0.20825,2.50259 -0.66127,3.22873 -2.14618,3.44012 -1.18814,0.16914 -2.22176,-0.36649 -2.80301,-1.4526 z m 2.92146,-3.77454 c -0.32247,-1.06731 -0.9879,-2.32866 -1.47876,-2.80302 -0.60877,-0.58831 -0.71504,-0.36026 -0.3343,0.7174 0.30699,0.86892 0.55818,2.13027 0.55818,2.80301 0,0.67274 0.41425,1.22317 0.92058,1.22317 0.55343,0 0.68674,-0.77396 0.3343,-1.94056 z m 70.09515,-1.27627 c -1.78944,-0.18671 -4.5062,-0.18357 -6.03729,0.007 -1.53108,0.19052 -0.067,0.34328 3.25349,0.33945 3.3205,-0.003 4.57321,-0.15977 2.7838,-0.34643 z m 53.08705,-8e-4 c -2.0017,-0.18088 -5.4947,-0.18305 -7.76222,-0.005 -2.26751,0.17824 -0.62974,0.32625 3.63948,0.32887 4.26922,0.002 6.12445,-0.14312 4.12274,-0.32409 z m 39.64752,-0.0104 c -3.43908,-0.16376 -9.06669,-0.16376 -12.50578,0 -3.4391,0.16376 -0.6253,0.29766 6.25289,0.29766 6.87819,0 9.69199,-0.13392 6.25289,-0.29766 z m 10.34963,0.0692 c -0.59295,-0.23925 -1.56323,-0.23925 -2.15618,0 -0.59294,0.23927 -0.10772,0.43503 1.0781,0.43503 1.18589,0 1.67102,-0.19576 1.07808,-0.43503 z m -136.25815,-0.89838 c -1.06078,-0.20473 -3.00134,-0.21002 -4.31234,-0.0121 -1.311,0.19824 -0.4431,0.36575 1.9287,0.37222 2.37178,0.005 3.44442,-0.15578 2.38364,-0.36044 z m 265.4103,-0.0397 c -0.002,-0.35578 -4.56168,-0.77756 -10.13402,-0.93727 -5.57232,-0.15977 -13.6245,-0.58736 -17.89372,-0.95028 -4.49275,-0.38192 -8.12548,-0.32889 -8.62467,0.12594 -0.53365,0.48617 -0.28704,0.56666 0.64685,0.21115 0.8346,-0.31775 1.50932,-0.17608 1.50932,0.31688 0,0.49033 -0.67919,1.069 -1.50932,1.28593 -0.83012,0.21693 6.93208,0.43946 17.24937,0.49448 10.31727,0.055 18.75756,-0.19104 18.75619,-0.5468 z m 63.98986,0.002 c -6.31324,-0.14762 -16.40411,-0.1471 -22.42417,8.7e-4 -6.02006,0.14797 -0.85468,0.26878 11.47862,0.26827 12.33329,-4.8e-4 17.25879,-0.1216 10.94555,-0.26917 z m 20.33437,0.0288 c -1.29599,-0.1968 -3.62465,-0.20076 -5.17481,-0.009 -1.55017,0.19196 -0.4898,0.35298 2.35634,0.3578 2.84614,0.005 4.11446,-0.15214 2.81847,-0.34899 z m -304.61857,-1.00568 c -0.25806,-0.41754 -4.6472,-0.74586 -9.75366,-0.72958 -9.07358,0.029 -9.13754,0.0427 -2.81598,0.60378 10.26015,0.91078 13.07219,0.93892 12.56964,0.12577 z m 343.39623,0.23808 c -0.28659,-0.28658 -1.03047,-0.31721 -1.65306,-0.068 -0.68803,0.27531 -0.48366,0.47968 0.52107,0.52105 0.90919,0.0375 1.41859,-0.16636 1.13199,-0.45298 z m -432.09666,-0.86247 c -0.28661,-0.28658 -1.03048,-0.31721 -1.65307,-0.068 -0.68802,0.27532 -0.48366,0.47968 0.52108,0.52106 0.90916,0.0375 1.41856,-0.16636 1.13199,-0.45299 z m 42.71014,-0.1027 c -1.54167,-0.1913 -4.06438,-0.1913 -5.60605,0 -1.54166,0.19133 -0.28029,0.34787 2.80303,0.34787 3.08333,0 4.34468,-0.15648 2.80302,-0.34787 z m 11.65877,0.007 c -1.29598,-0.1968 -3.62465,-0.20076 -5.1748,-0.009 -1.55016,0.19196 -0.48982,0.35296 2.35634,0.3578 2.84614,0.005 4.11445,-0.15213 2.81846,-0.34899 z m 41.65161,-2.83373 c 1.97061,0 2.81731,0.46409 3.14703,1.72493 0.53403,2.04217 1.59198,2.24168 2.28672,0.43124 0.70067,-1.82594 6.23518,-1.73184 6.94505,0.11813 0.49349,1.28599 3.44142,1.36453 33.0817,0.88157 17.89697,-0.29162 42.84018,-0.53882 55.42935,-0.54932 l 22.88942,-0.0191 -0.034,-2.37178 c -0.0314,-2.1978 -0.44525,-2.47158 -5.64005,-3.73197 l -5.60605,-1.36018 -0.43123,-4.20334 -0.43124,-4.20331 -5.17481,-1.47356 c -2.84614,-0.81045 -7.40644,-2.10179 -10.134,-2.86965 -4.20437,-1.18361 -4.95918,-1.69954 -4.95918,-3.38975 0,-1.89334 2.75338,-3.93752 5.43099,-4.0321 0.57064,-0.0201 3.72766,-1.69775 7.01561,-3.728 l 5.9781,-3.69135 -0.21303,-5.21958 -0.21302,-5.21959 5.60355,-1.05731 c 3.37991,-0.63774 5.79797,-1.56397 6.0935,-2.33409 0.559,-1.45669 1.13234,-1.4692 -72.81914,1.58884 -34.61298,1.43131 -43.69624,2.04457 -44.24436,2.98719 -0.38619,0.66415 -2.09409,1.19168 -3.88109,1.19876 -2.99438,0.0121 -3.32496,0.29143 -5.35459,4.52797 l -2.16318,4.5153 -11.63632,2.33921 c -6.39996,1.28657 -12.29464,2.14029 -13.09929,1.89716 -0.94272,-0.28488 -1.65703,-1.73599 -2.0086,-4.08047 -0.54188,-3.61356 -0.56793,-3.63625 -3.81795,-3.32631 -3.01188,0.28724 -3.50544,0.73474 -6.2009,5.62235 -2.50915,4.54981 -3.35852,5.39273 -5.93115,5.88611 -17.75477,3.40492 -20.68322,3.60841 -20.68322,1.43716 0,-0.4516 -0.35387,-0.60238 -0.78639,-0.33508 -1.57889,0.97582 -17.83118,3.99475 -20.38112,3.78589 -1.44344,-0.11831 -3.92112,0.32214 -5.50595,0.97859 l -2.88149,1.19356 0.54626,7.10668 c 0.30044,3.90868 0.7749,7.70255 1.05437,8.43082 0.63945,1.66637 4.17155,2.10161 20.83896,2.56791 l 13.15264,0.36797 v -3.2513 c 0,-2.60049 0.37078,-3.34828 1.85228,-3.73569 1.01877,-0.26642 11.78884,-0.25013 23.9335,0.0361 20.56032,0.48472 21.99915,0.42138 20.8896,-0.91945 -1.02064,-1.23343 -0.97231,-2.02645 0.33682,-5.52721 2.10388,-5.62594 2.74611,-6.24335 6.49457,-6.24335 1.81094,0 3.46668,0.48149 3.70741,1.07808 0.43468,1.07726 0.7504,-2.26513 0.92946,-9.83998 0.0621,-2.62694 0.66008,-4.64277 1.72697,-5.82167 1.56038,-1.72414 2.45543,-1.80328 20.39595,-1.80328 h 18.76396 l 2.23285,2.65358 c 2.14847,2.55331 2.23284,3.07209 2.23284,13.72914 v 11.07558 l -2.90482,1.79528 c -2.69906,1.6681 -4.17581,1.79528 -20.84695,1.79528 -15.48502,0 -18.15812,-0.19547 -19.51936,-1.42738 -0.86748,-0.78505 -1.60451,-2.0464 -1.63785,-2.80302 -0.0442,-1.00607 -0.24394,-0.91222 -0.74297,0.34929 -0.5082,1.2847 -0.27259,1.88295 0.92308,2.344 1.20544,0.46482 1.61907,1.53924 1.66011,4.31235 0.0456,3.08482 0.18317,3.37358 0.83468,1.75273 0.57567,-1.43221 1.48624,-1.94057 3.47595,-1.94057 z m -26.78948,-8.19346 c 0,-1.72494 0.43124,-2.15617 2.15618,-2.15617 1.72493,0 2.15617,0.43123 2.15617,2.15617 0,1.72494 -0.43124,2.15617 -2.15617,2.15617 -1.72494,0 -2.15618,-0.43123 -2.15618,-2.15617 z m 189.11262,11.0776 c -0.58392,-0.23625 -1.74825,-0.25063 -2.5874,-0.0319 -0.83916,0.21867 -0.36141,0.41197 1.06166,0.42954 1.42308,0.0175 2.10965,-0.16133 1.52574,-0.39758 z m 192.72732,0.0448 c -0.2866,-0.28658 -1.0305,-0.31721 -1.65307,-0.068 -0.68803,0.27532 -0.48366,0.47968 0.52107,0.52106 0.90917,0.0375 1.41857,-0.16636 1.132,-0.45299 z m -208.91502,-1.18508 c -9.15234,-1.73682 -10.78085,-1.80633 -10.78085,-0.46024 0,1.06584 1.29919,1.28665 7.11536,1.2094 5.86348,-0.0779 6.5084,-0.20966 3.66549,-0.74916 z m 155.27891,-0.0748 c 0.31218,-0.50512 0.3175,-2.25162 0.0121,-3.88111 l -0.5558,-2.96266 h -27.5599 -27.55992 v 3.88111 3.88111 h 27.54809 c 18.55409,0 27.73342,-0.29985 28.11572,-0.91844 z m 10.53064,-0.0139 c -1.80635,-1.05211 -2.01056,-4.96751 -0.29344,-5.62645 0.66871,-0.25661 1.45492,-1.41909 1.74712,-2.58326 l 0.53126,-2.11669 12.69922,0.23854 12.69921,0.23855 0.26009,5.00704 0.26009,5.00703 5.77719,-0.45781 c 3.17746,-0.25179 10.04642,-0.67968 15.26435,-0.95083 15.00061,-0.77953 48.50121,-4.89945 52.61056,-6.47006 0.94872,-0.36261 2.39515,-1.81227 3.21427,-3.22148 l 1.48932,-2.5622 -4.50796,-0.52729 c -2.47937,-0.28999 -13.82263,-0.92081 -25.2072,-1.40181 -11.38458,-0.481 -22.5035,-1.04939 -24.70872,-1.26309 -4.37122,-0.4236 -5.008,0.31279 -5.03468,5.82241 -0.0104,2.02585 -0.33568,2.38576 -1.95232,2.15617 -1.65852,-0.23556 -1.97894,-0.87559 -2.20469,-4.40359 -0.24413,-3.81493 -0.4601,-4.1672 -2.84772,-4.64472 -3.55665,-0.71134 -3.21078,-3.95574 0.48959,-4.59245 2.01534,-0.34677 2.66706,-0.99908 3.09663,-3.09946 0.70562,-3.45008 1.4942,-4.66586 3.02641,-4.66586 0.86252,0 1.24281,0.99585 1.24281,3.25461 v 3.25462 l 26.08965,-0.33005 c 14.34932,-0.18152 26.21905,-0.67581 26.37717,-1.09844 0.39342,-1.05152 5.08926,-0.97469 5.74979,0.094 0.86848,1.40523 5.23134,0.98298 6.68336,-0.64686 1.5189,-1.70492 8.7177,-15.74274 8.26936,-16.12545 -0.15994,-0.13652 -1.74617,-0.51136 -3.52501,-0.83296 -2.92305,-0.52847 -3.23426,-0.40473 -3.23426,1.28609 0,1.747 -0.32341,1.84399 -4.88685,1.46556 -3.50653,-0.29079 -5.28082,-0.89177 -6.28158,-2.12767 -1.27129,-1.56996 -3.37303,-1.84382 -23.74896,-3.09455 -12.29484,-0.75468 -22.66389,-1.18078 -23.04236,-0.94689 -0.37844,0.2339 -0.68811,2.84748 -0.68811,5.80794 0,3.03654 -0.4511,5.83374 -1.03495,6.4176 -1.2634,1.2634 -20.31296,1.42011 -22.25169,0.18308 -1.01283,-0.64627 -1.38862,-0.31572 -1.73092,1.52253 l -0.43722,2.348 -10.34364,0.52935 c -5.689,0.29114 -13.0604,1.19422 -16.3809,2.00681 l -6.03728,1.47746 -7.33099,-2.72415 c -4.03205,-1.49828 -9.27153,-3.31556 -11.64333,-4.0384 -2.37178,-0.72284 -8.58629,-2.63166 -13.81004,-4.24184 -9.40545,-2.89919 -9.66093,-2.92779 -26.30528,-2.9463 -16.26178,-0.018 -42.2639,-0.76476 -87.85784,-2.5229 -18.29349,-0.7054 -22.14696,-1.07703 -23.45644,-2.26207 -1.45395,-1.31582 -2.17475,-1.3144 -10.00179,0.0198 -4.6392,0.79079 -8.58984,1.5927 -8.77917,1.78205 -0.18934,0.18933 0.051,4.33817 0.53393,9.21964 0.72888,7.36651 0.82486,7.73382 0.56452,2.16055 -0.30459,-6.52035 -0.25031,-6.73893 1.87402,-7.5466 3.63625,-1.3825 7.93775,-1.0367 8.42859,0.67757 0.23769,0.83013 0.69876,6.84583 1.02461,13.36826 l 0.59246,11.85894 -3.76951,0.1537 c -2.07324,0.0847 -4.44871,0.15074 -5.27885,0.1471 -1.00737,-0.003 -1.50931,0.6615 -1.50931,2.00242 0,1.10497 0.29109,2.01015 0.64685,2.0115 0.35577,0.002 5.11012,0.73547 10.56525,1.63135 5.45511,0.89588 11.95596,1.90146 14.44634,2.23462 l 4.52795,0.60578 v -9.09296 -9.09298 l 2.88443,-2.20006 2.88444,-2.20006 h 22.49658 22.49656 l 5.23663,3.11945 5.23662,3.11944 0.0122,4.42715 c 0.0234,8.79164 -0.80675,8.30828 14.26864,8.30828 7.26922,0 13.4182,-0.32592 13.66438,-0.72425 0.52966,-0.85702 59.96406,-2.16413 62.04765,-1.36458 1.10691,0.42476 1.4292,1.69461 1.4292,5.63097 v 5.08254 l 4.09674,-0.0262 c 3.20269,-0.0205 3.76734,-0.21807 2.5874,-0.90532 z m -47.73922,-29.60397 c -0.2557,-0.6664 -0.34056,-2.50992 -0.18854,-4.09674 0.24612,-2.56917 0.58951,-2.91518 3.13575,-3.15959 1.57264,-0.15092 3.37028,0.14954 3.99473,0.66782 1.75127,1.45342 1.18044,6.22435 -0.83912,7.01353 -2.75474,1.07645 -5.60275,0.87812 -6.10282,-0.42502 z m -14.78973,-1.98449 c -1.1547,-0.22239 -1.94056,-1.00203 -1.94056,-1.92516 0,-1.14891 0.86507,-1.66741 3.3345,-1.99864 4.35333,-0.58391 7.87759,0.12473 7.87759,1.58403 0,2.36421 -3.95832,3.36315 -9.27153,2.33977 z m 121.60804,31.94881 c -0.59294,-0.23925 -1.56322,-0.23925 -2.15617,0 -0.59294,0.23926 -0.10773,0.43502 1.07808,0.43502 1.1859,0 1.67104,-0.19576 1.07809,-0.43502 z m -203.99174,-0.81071 c -0.28659,-0.28659 -1.03048,-0.31723 -1.65307,-0.068 -0.68802,0.27532 -0.48366,0.47969 0.52108,0.52108 0.90918,0.0375 1.41858,-0.16636 1.13199,-0.45299 z m 44.00448,-0.557 c -0.26997,-0.81131 -4.71644,-1.10177 -17.96808,-1.1738 -9.68516,-0.0526 -16.6391,0.0595 -15.45319,0.24926 1.7904,0.28648 19.90717,1.38544 30.9051,1.87472 1.95671,0.0871 2.76032,-0.21643 2.51617,-0.95018 z m 125.2729,-2.80303 v -3.88111 h -9.8205 -9.8205 l -0.33679,2.3718 c -0.75733,5.33321 -0.64988,5.39042 10.12265,5.39042 h 9.85514 z m 45.06399,3.30992 c -0.59297,-0.23926 -1.56323,-0.23926 -2.15618,0 -0.59294,0.23925 -0.10772,0.43501 1.07808,0.43501 1.18589,0 1.67104,-0.19576 1.0781,-0.43501 z M 233.6523,234.20834 c -0.34028,-3.91346 -0.76917,-7.37001 -0.95309,-7.68126 -0.51941,-0.87891 -3.29971,-0.009 -15.92607,4.98766 -6.44175,2.54879 -12.16638,4.63415 -12.72141,4.63415 -0.55502,0 -1.00914,0.34252 -1.00914,0.76114 0,0.41862 2.82666,1.02602 6.2815,1.34975 3.45482,0.32375 9.56756,1.10108 13.58387,1.7274 12.47112,1.9448 11.46306,2.48699 10.74434,-5.77884 z m 95.31068,6.37371 c 0,-0.86623 -51.22619,-2.27012 -52.56827,-1.44066 -2.97517,1.83875 1.09157,2.18231 25.83173,2.18231 14.7051,0 26.73654,-0.33374 26.73654,-0.74165 z m 164.56886,0.15734 c -0.80096,-0.21132 -1.62918,-1.03955 -1.8405,-1.8405 -0.27222,-1.03183 -0.41337,-0.89068 -0.48427,0.48426 -0.077,1.49382 0.34668,1.91753 1.84052,1.84051 1.37493,-0.0709 1.51608,-0.21204 0.48425,-0.48427 z m 239.69524,-0.79923 c -0.2866,-0.2866 -1.03048,-0.31723 -1.65307,-0.068 -0.68803,0.27532 -0.48366,0.47969 0.52108,0.52108 0.90916,0.0375 1.41856,-0.16636 1.13199,-0.45299 z m 18.77664,-1.20387 c 1.42308,-0.94245 3.55769,-1.76114 4.74358,-1.81929 1.60734,-0.0789 1.75028,-0.21031 0.56154,-0.5166 -1.18382,-0.30499 -1.4862,-0.97808 -1.17373,-2.61269 0.41438,-2.16766 0.38881,-2.16081 -1.64725,0.44079 -1.87758,2.39908 -2.80274,2.74846 -10.03838,3.79083 -7.14088,1.02873 -7.61123,1.20277 -4.52031,1.67266 6.576,0.99972 9.46757,0.77085 12.07455,-0.9557 z M 469.91906,237.9735 c -0.44274,-0.40372 -2.00165,-0.95678 -3.46424,-1.22901 -1.9384,-0.36081 -2.65929,-0.16827 -2.65929,0.71047 0,0.66301 0.25965,1.04498 0.57702,0.84885 0.31735,-0.19613 1.70807,-0.0413 3.09049,0.34412 2.72955,0.76093 3.72908,0.48645 2.45602,-0.67443 z m -275.28555,0.1916 c -0.59294,-0.23925 -1.56322,-0.23925 -2.15617,0 -0.59294,0.23925 -0.10772,0.43502 1.0781,0.43502 1.18589,0 1.67102,-0.19577 1.07807,-0.43502 z m 95.734,-0.91518 c -1.54167,-0.19131 -4.06438,-0.19131 -5.60605,0 -1.54166,0.19132 -0.28029,0.34786 2.80303,0.34786 3.08331,0 4.34468,-0.15647 2.80302,-0.34786 z m 8.62469,0.0156 c -1.06731,-0.20558 -2.81381,-0.20558 -3.88111,0 -1.06731,0.20556 -0.19407,0.37376 1.94054,0.37376 2.13461,0 3.00787,-0.16827 1.94057,-0.37376 z m 197.50527,0.0375 c -0.59296,-0.23925 -1.56323,-0.23925 -2.15617,0 -0.59297,0.23925 -0.10773,0.43501 1.07807,0.43501 1.18589,0 1.67104,-0.19576 1.0781,-0.43501 z m 50.67001,-7.16895 c 0,-5.92006 -0.0444,-6.03757 -2.80303,-7.43498 -1.54165,-0.78092 -3.38968,-1.93163 -4.10671,-2.55713 -0.94716,-0.82627 -6.6124,-1.3037 -20.71613,-1.74584 -17.07583,-0.53532 -19.74123,-0.43856 -22.14389,0.8039 -3.65705,1.89114 -3.8061,2.23793 -4.12812,9.60505 l -0.27904,6.38421 2.72373,0.34193 c 1.49804,0.18808 13.68786,0.40405 27.08846,0.47996 l 24.36473,0.13808 z m 215.84913,5.44941 c -0.58392,-0.23626 -1.74825,-0.25062 -2.5874,-0.0319 -0.83916,0.21866 -0.36141,0.41196 1.06166,0.42953 1.42308,0.0175 2.10965,-0.16133 1.52574,-0.39758 z m -393.15694,-1.68301 c 1.1342,-0.43523 1.36426,-2.19011 1.36426,-10.40632 0,-5.43554 -0.40176,-10.63353 -0.89281,-11.55106 -0.83648,-1.56295 -1.96865,-1.66823 -17.93935,-1.66823 -12.10845,0 -17.34634,0.29981 -18.0815,1.03495 -1.42728,1.42728 -1.42728,20.65193 0,22.07921 1.09293,1.09292 32.84371,1.54973 35.5494,0.51145 z m 239.18992,-0.11953 c -4.625,-0.15508 -12.19315,-0.15508 -16.81814,0 -4.62498,0.15509 -0.84091,0.28195 8.40907,0.28195 9.24997,0 13.03406,-0.12681 8.40907,-0.28195 z m 177.23725,-2.09899 c 4.15064,-0.98069 7.5466,-2.12334 7.5466,-2.5392 0,-0.41586 1.94056,-0.75613 4.31234,-0.75613 2.3718,0 4.31234,-0.34285 4.31234,-0.76191 0,-1.08097 -3.68534,-1.64961 -5.6653,-0.87416 -0.91613,0.35881 -5.54679,0.72466 -10.29035,0.81305 -4.74358,0.0883 -7.94549,0.33815 -7.11538,0.55509 0.83014,0.21693 1.50933,0.9066 1.50933,1.53261 0,1.29832 -1.25868,1.90845 -7.33098,3.55366 l -4.31235,1.16836 4.74358,-0.45415 c 2.60897,-0.24979 8.13954,-1.25653 12.29017,-2.23722 z M 325.5131,231.40526 c 0,-1.34162 -0.48874,-2.15617 -1.2937,-2.15617 -0.71153,0 -1.29371,0.35638 -1.29371,0.79193 0,0.43556 -0.23557,1.40584 -0.5235,2.15618 -0.37531,0.978 -0.009,1.36423 1.2937,1.36423 1.36337,0 1.81721,-0.53847 1.81721,-2.15617 z m 2.3141,0.26952 c -0.27532,-0.688 -0.4797,-0.48365 -0.52107,0.52108 -0.0375,0.90918 0.16636,1.41859 0.45298,1.13199 0.2866,-0.28659 0.31723,-1.03047 0.068,-1.65307 z m 334.27604,1.27953 c -1.06078,-0.20471 -3.00132,-0.21002 -4.31232,-0.0121 -1.31102,0.19825 -0.4431,0.36575 1.92868,0.37222 2.3718,0.005 3.44444,-0.15578 2.38364,-0.36044 z m 5.57623,0.0861 c -0.28659,-0.2866 -1.03048,-0.31723 -1.65307,-0.068 -0.688,0.27531 -0.48365,0.4797 0.52108,0.52107 0.90918,0.0375 1.41858,-0.16636 1.13199,-0.45299 z m 3.44988,0 c -0.2866,-0.2866 -1.03048,-0.31723 -1.65307,-0.068 -0.68801,0.27531 -0.48366,0.4797 0.52107,0.52107 0.90919,0.0375 1.41859,-0.16636 1.132,-0.45299 z m 96.40665,-0.91276 c 3.58894,-0.78862 6.21974,-1.73226 5.84616,-2.09697 -0.37355,-0.36472 -3.33233,-0.75569 -6.57504,-0.86882 -5.90669,-0.20606 -7.42428,0.4697 -7.45922,3.32154 -0.0173,1.37947 0.36705,1.36278 8.1881,-0.35575 z m -393.96208,-6.52856 c -0.19195,-1.55014 -0.35296,-0.48979 -0.3578,2.35635 -0.005,2.84615 0.15213,4.11446 0.349,2.81847 0.19679,-1.29598 0.20075,-3.62465 0.009,-5.17482 z m 80.50427,-8.80601 c -1.33189,-17.4093 -1.15987,-16.23006 -2.42908,-16.65265 -1.27531,-0.42463 -1.33386,3.51071 -0.29643,19.9269 0.50115,7.93014 1.04205,11.29832 1.90002,11.83132 1.8836,1.1701 1.96152,-0.25603 0.82549,-15.10557 z m 4.85273,8.37575 c -0.21868,-0.83915 -0.41197,-0.36139 -0.42956,1.06167 -0.0175,1.42308 0.16133,2.10966 0.3976,1.52574 0.23625,-0.58393 0.25062,-1.74825 0.0319,-2.58741 z m 311.84791,1.78964 c -0.58392,-0.23623 -1.74825,-0.25061 -2.5874,-0.0319 -0.83917,0.21867 -0.36142,0.41197 1.06166,0.42954 1.42308,0.0177 2.10965,-0.16133 1.52574,-0.39758 z m -16.85252,-0.81781 c -0.28659,-0.28658 -1.03048,-0.31721 -1.65307,-0.068 -0.68801,0.27531 -0.48366,0.47968 0.52108,0.52105 0.90918,0.0375 1.41858,-0.16636 1.13199,-0.45298 z M 466.09545,222.3493 c 0,-2.8749 -0.28749,-3.44987 -1.72493,-3.44987 -1.43746,0 -1.72494,0.57497 -1.72494,3.44987 0,2.87489 0.28748,3.44986 1.72494,3.44986 1.43744,0 1.72493,-0.57497 1.72493,-3.44986 z m 273.6181,2.87867 c -0.59295,-0.23926 -1.56323,-0.23926 -2.15617,0 -0.59295,0.23925 -0.10773,0.43501 1.07809,0.43501 1.18589,0 1.67102,-0.19576 1.07808,-0.43501 z m 22.85542,-0.8858 c -0.83013,-0.21693 -2.18852,-0.21693 -3.01864,0 -0.83013,0.21694 -0.15092,0.39444 1.50931,0.39444 1.66025,0 2.33945,-0.1775 1.50933,-0.39444 z m -62.96589,-1.99287 c 0.12178,0 0.2213,-0.37841 0.2213,-0.84092 0,-0.47434 -1.12783,-0.61533 -2.58739,-0.32342 -2.11981,0.42396 -2.60548,0.22523 -2.68747,-1.09964 -0.0895,-1.44626 -0.14172,-1.45766 -0.49448,-0.1079 -0.21693,0.83013 -0.80158,1.50933 -1.29925,1.50933 -0.58049,0 -0.54172,0.43749 0.10824,1.2206 0.763,0.91933 1.69236,1.02577 3.76542,0.43123 1.51381,-0.43416 2.85197,-0.78937 2.9737,-0.78937 z m 50.63258,0.95824 c -0.45063,-0.42167 -8.77561,-0.95156 -18.49994,-1.17751 -18.91438,-0.43951 -19.29846,-0.14623 -1.2937,0.98772 16.27305,1.02489 20.73179,1.06765 19.79364,0.18979 z m 36.69804,-1.48228 c -2.60897,-0.68645 -6.58727,-1.46372 -8.84071,-1.7273 -3.41211,-0.39909 -4.01392,-0.26241 -3.59955,0.81744 0.33838,0.88177 -0.1445,1.40739 -1.50893,1.64281 -1.10356,0.19039 2.65085,0.38418 8.34315,0.43065 l 10.3496,0.0845 z m -74.81913,-0.0472 c -0.59295,-0.23925 -1.56323,-0.23925 -2.15618,0 -0.59294,0.23927 -0.1079,0.43504 1.07808,0.43504 1.18589,0 1.67104,-0.19577 1.0781,-0.43504 z m 50.93818,-0.60857 c 0.3556,-0.92667 -0.37585,-1.08639 -3.40941,-0.74447 -2.34107,0.26387 -4.69042,-0.007 -5.9652,-0.6902 -2.62222,-1.40337 -3.86269,-0.40094 -1.61145,1.30222 2.18181,1.65064 10.36562,1.74931 10.98606,0.13236 z m 4.35606,-0.11397 c 0.30241,-0.78805 0.002,-1.2937 -0.77018,-1.2937 -0.69665,0 -1.26665,0.58215 -1.26665,1.2937 0,0.71153 0.3466,1.2937 0.7702,1.2937 0.4236,0 0.99358,-0.58217 1.26663,-1.2937 z m -319.74862,-2.26399 c -0.29648,-1.48237 -0.53905,-3.65639 -0.53905,-4.83114 v -2.13595 l -3.66548,2.27339 c -2.01603,1.25037 -4.82983,2.72282 -6.25291,3.2721 -2.58206,0.99663 -2.57585,1.00173 3.01864,2.47435 8.00597,2.10738 8.06904,2.09844 7.4388,-1.05275 z m 300.67805,1.22408 c -1.06731,-0.20559 -2.81381,-0.20559 -3.88111,0 -1.06731,0.20556 -0.19407,0.37376 1.94054,0.37376 2.13461,0 3.00787,-0.16827 1.94057,-0.37376 z m -494.2508,-1.54488 c 9.93456,-2.03294 10.1904,-2.12004 10.1904,-3.46892 0,-0.70251 0.37593,-1.27728 0.8354,-1.27728 0.45946,0 0.63951,-0.51047 0.4001,-1.13438 -0.23943,-0.62393 -0.10408,-2.02985 0.30078,-3.12427 0.678,-1.8328 0.85831,-1.66988 2.28446,2.06444 l 1.54836,4.05429 4.43081,-0.60598 c 8.02804,-1.09794 8.58907,-1.53871 7.92724,-6.22832 -0.74119,-5.25192 -1.29459,-7.10034 -2.12581,-7.10034 -0.91668,0 -9.46895,3.00326 -12.30074,4.31958 -1.26799,0.58941 -2.54872,2.04093 -2.84605,3.22561 -0.51782,2.06309 -0.5934,2.08581 -1.79187,0.53863 -1.21687,-1.57095 -1.29314,-1.56612 -2.77718,0.17576 -0.83928,0.9851 -1.96778,1.64381 -2.5078,1.46381 -0.54,-0.18001 -1.23436,0.0814 -1.54302,0.5807 -0.30864,0.49941 -0.12733,0.90801 0.4031,0.90801 0.53036,0 0.6988,0.42953 0.37433,0.95454 -0.41277,0.66787 -0.80295,0.6099 -1.29918,-0.19302 -0.55459,-0.89737 -1.18679,-0.69892 -2.89964,0.91023 -1.20473,1.13178 -3.65086,2.73966 -5.43585,3.57307 -4.26126,1.98957 -1.7627,2.12262 6.83216,0.36384 z m 534.57651,-4.96182 c 0.003,-3.66836 0.50371,-7.20818 1.21111,-8.5641 1.38299,-2.65077 0.62563,-3.29484 -3.87438,-3.29484 h -2.51685 v 8.5647 c 0,9.22801 -0.32642,8.54824 4.52795,9.42969 0.35577,0.0645 0.64924,-2.69635 0.65217,-6.13545 z m -456.54238,2.5874 c -0.23925,-0.59294 -0.43501,-0.10789 -0.43501,1.0781 0,1.18589 0.19576,1.67102 0.43501,1.07808 0.23926,-0.59295 0.23926,-1.56323 0,-2.15618 z m -56.2004,1.0781 c 0.29316,-0.47436 0.14484,-0.86247 -0.32945,-0.86247 -0.47435,0 -1.10232,0.38811 -1.39549,0.86247 -0.29317,0.47436 -0.14485,0.86247 0.32944,0.86247 0.47436,0 1.10233,-0.38811 1.3955,-0.86247 z m 501.34099,-7.97785 c 0.13583,-4.62497 -0.0781,-8.40906 -0.475,-8.40906 -0.67578,0 -2.10949,2.43774 -6.91859,11.76363 -1.08456,2.1032 -1.7286,4.21772 -1.43118,4.69893 0.2974,0.48123 2.34911,0.75809 4.55932,0.61525 l 4.0186,-0.25967 z m -493.7944,7.36917 c -1.06731,-0.20558 -2.81381,-0.20558 -3.88111,0 -1.06731,0.20556 -0.19405,0.37376 1.94056,0.37376 2.13461,0 3.00785,-0.16826 1.94055,-0.37376 z m 222.10107,-0.007 c -1.29599,-0.19679 -3.62467,-0.20076 -5.17481,-0.009 -1.55017,0.19194 -0.4898,0.35296 2.35634,0.3578 2.84614,0.005 4.11444,-0.15213 2.81847,-0.34901 z m 15.07774,-0.0156 c -2.01602,-0.18157 -5.31496,-0.18157 -7.33098,0 -2.01602,0.18157 -0.36655,0.33015 3.6655,0.33015 4.03203,0 5.68151,-0.14849 3.66548,-0.33015 z m 258.25161,-1.25514 c -0.27532,-0.68803 -0.4797,-0.48366 -0.52108,0.52107 -0.0375,0.90917 0.16636,1.41857 0.45299,1.132 0.28659,-0.28661 0.31723,-1.03048 0.068,-1.65307 z m -491.51033,-1.46157 c 3.80657,-7.96702 5.22246,-10.04861 7.01179,-10.30851 1.92868,-0.28012 1.91465,-0.32574 -0.48388,-1.57273 -2.56744,-1.33482 -9.28928,-0.95843 -10.23585,0.57312 -0.26117,0.42263 -0.0243,2.55774 0.52637,4.7447 0.75334,2.99179 0.75686,4.51269 0.0139,6.14262 -0.92114,2.02166 -0.85685,2.12581 0.96287,1.55996 1.07244,-0.33346 2.06446,-0.84611 2.20449,-1.13916 z m 177.67676,-3.33569 c -0.18926,-2.94972 -0.62507,-4.09672 -1.55656,-4.09672 -0.9315,0 -1.36731,1.147 -1.55659,4.09672 -0.23585,3.67575 -0.0758,4.09673 1.55659,4.09673 1.63247,0 1.79243,-0.42098 1.55656,-4.09673 z m -9.59209,-0.37732 c -0.27531,-0.68803 -0.47968,-0.48366 -0.52107,0.52108 -0.0375,0.90918 0.16636,1.41856 0.45299,1.13199 0.28659,-0.28661 0.31722,-1.03048 0.068,-1.65307 z m 197.34735,0.57568 c 2.84614,-0.68722 9.15294,-1.25557 14.0151,-1.26298 l 8.8403,-0.0139 v -5.17482 c 0,-3.55541 -0.33737,-5.18036 -1.07808,-5.19254 -0.59296,-0.0104 -8.06409,-0.56187 -16.60253,-1.22695 -16.41227,-1.27838 -25.76361,-1.16103 -39.39993,0.4945 l -8.35105,1.01388 8.35105,2.93167 c 4.59309,1.61243 10.29878,3.46532 12.67931,4.11752 2.38054,0.6522 6.8438,2.15741 9.91839,3.34491 6.70532,2.58976 5.37194,2.47872 11.62744,0.96827 z m 116.00199,0.59224 c 0,-0.39529 -0.5651,-0.71873 -1.25577,-0.71873 -0.69067,0 -1.05587,0.32344 -0.81157,0.71873 0.24432,0.39531 0.80941,0.71873 1.25577,0.71873 0.44636,0 0.81157,-0.32342 0.81157,-0.71873 z m 27.22681,-2.0843 c 0.89106,-1.06731 1.06764,-1.45542 0.39242,-0.86247 -1.67094,1.46733 -2.89996,1.35889 -2.30061,-0.203 0.4112,-1.07152 0.21467,-1.10812 -1.20141,-0.22376 -2.09319,1.3072 -2.14995,2.12144 -0.18371,2.63527 0.83011,0.21692 1.54619,0.43944 1.59126,0.49448 0.0451,0.055 0.811,-0.77322 1.70205,-1.84052 z m -481.69095,-2.40212 c 1.72721,-0.92439 2.18422,-3.85759 0.9134,-5.8623 -0.53211,-0.83942 -1.8068,-0.98734 -4.73036,-0.54892 -3.8081,0.57105 -4.00197,0.73465 -4.00197,3.3771 0,1.52734 0.25875,3.03571 0.57499,3.35193 0.88058,0.88058 5.37297,0.68348 7.24394,-0.31781 z m 11.61581,-0.88055 c 0.49042,-0.39371 1.81072,-2.35105 2.93399,-4.34966 l 2.04234,-3.63382 -2.07154,0.55429 c -1.13935,0.30486 -4.1091,0.55961 -6.59949,0.56608 l -4.52795,0.0121 v 4.38815 4.38815 l 3.66549,-0.60456 c 2.01602,-0.33252 4.06675,-0.92669 4.55716,-1.32041 z m 374.71332,-5.1264 v -5.17481 l -7.76221,-0.15404 c -4.26921,-0.0847 -8.6225,-0.18175 -9.67395,-0.21563 -1.76084,-0.0567 -1.89093,0.27872 -1.64841,4.25075 0.14484,2.37178 0.6645,4.79747 1.15485,5.39042 0.60332,0.72953 3.64586,1.07809 9.41064,1.07809 h 8.51908 z m 101.11409,1.59158 c -0.35008,-0.3466 -2.25578,-0.99251 -4.23487,-1.43535 -3.57667,-0.80031 -3.59273,-0.79282 -2.66458,1.24425 0.51358,1.12717 1.64769,2.0494 2.52027,2.0494 0.87256,0 1.58649,0.38431 1.58649,0.85402 0,0.46973 0.77157,0.19339 1.71461,-0.61406 0.94303,-0.80744 1.42817,-1.75167 1.07808,-2.09826 z m -497.41832,1.8583 c 0.29316,-0.47436 0.12195,-0.86247 -0.38032,-0.86247 -0.50236,0 -0.91339,0.38811 -0.91339,0.86247 0,0.47436 0.17122,0.86247 0.38034,0.86247 0.20919,0 0.6202,-0.38811 0.91337,-0.86247 z m 374.56257,-6.46852 c -0.0687,-2.60897 -0.36535,-4.74357 -0.65936,-4.74357 -0.294,0 -0.46953,1.0673 -0.39006,2.37179 0.0795,1.30448 0.19453,3.43909 0.25569,4.74358 0.21029,4.4846 0.91845,2.3685 0.79373,-2.3718 z m -89.30115,2.39473 c -1.54165,-0.1913 -4.06438,-0.1913 -5.60603,0 -1.54166,0.19133 -0.28031,0.34787 2.80301,0.34787 3.08333,0 4.34468,-0.15647 2.80302,-0.34787 z m 16.38691,0.0527 c -0.59295,-0.23925 -1.56323,-0.23925 -2.15618,0 -0.59294,0.23925 -0.1079,0.43502 1.0781,0.43502 1.18589,0 1.67102,-0.19577 1.07808,-0.43502 z m -39.63768,-0.92891 c -2.94501,-0.16792 -7.99045,-0.16913 -11.21209,-0.002 -3.22165,0.16636 -0.81209,0.30378 5.35457,0.30529 6.16663,0.002 8.80253,-0.13461 5.85752,-0.30255 z m 194.45611,-0.44076 c -0.53839,-1.63966 -4.65128,-1.84479 -5.25854,-0.26229 -0.40564,1.05714 0.13306,1.34037 2.54911,1.34037 2.06458,0 2.948,-0.35152 2.70943,-1.07808 z m -447.17881,-0.35012 c -0.58392,-0.23625 -1.74825,-0.25063 -2.5874,-0.0319 -0.83916,0.21866 -0.36141,0.41196 1.06167,0.42953 1.42307,0.0175 2.10964,-0.16133 1.52573,-0.39758 z m 212.15082,-0.043 c -1.06731,-0.20558 -2.81381,-0.20558 -3.88111,0 -1.06731,0.20557 -0.19407,0.37377 1.94054,0.37377 2.13461,0 3.00787,-0.16827 1.94057,-0.37377 z m 8.63653,0.002 c -1.06078,-0.20473 -3.00133,-0.21002 -4.31234,-0.0121 -1.311,0.19824 -0.44308,0.36574 1.9287,0.37221 2.37179,0.005 3.44443,-0.15577 2.38364,-0.36044 z m -26.73197,-0.82108 c -0.5839,-0.23625 -1.74823,-0.25063 -2.5874,-0.0321 -0.83916,0.21866 -0.3614,0.41196 1.06168,0.42955 1.42306,0.0175 2.10965,-0.16133 1.52572,-0.3976 z m 104.07121,-1.57442 3.93655,-1.01722 -8.19344,-0.56897 c -28.03462,-1.94676 -60.77552,-2.51424 -86.15932,-1.49332 -14.51604,0.58382 -26.49844,1.16478 -26.62755,1.29103 -0.5064,0.49513 17.74659,1.33531 40.33952,1.85681 13.04484,0.30112 33.03254,0.7989 44.41712,1.10617 21.96131,0.59272 26.01943,0.44511 32.28712,-1.1745 z m -285.20598,0.7063 c -0.59295,-0.23926 -1.56323,-0.23926 -2.15617,0 -0.59295,0.23927 -0.10773,0.43503 1.07809,0.43503 1.18589,0 1.67102,-0.19576 1.07808,-0.43503 z m 464.57935,-6.40224 c 1.46461,-3.83538 2.66291,-7.48048 2.66291,-8.10021 0,-0.61973 1.889,-6.11987 4.1978,-12.22253 2.30877,-6.10266 4.47495,-12.35777 4.81374,-13.90025 0.57652,-2.62483 0.4457,-2.83856 -2.04161,-3.33603 -2.83089,-0.56618 -3.55368,-2.37488 -1.29535,-3.24148 0.74923,-0.28751 2.25935,-0.29758 3.35584,-0.0224 1.83408,0.46033 2.24268,-0.14363 5.10629,-7.54737 1.71199,-4.42625 3.8368,-10.66748 4.7218,-13.8694 l 1.60912,-5.82165 h -11.05799 c -12.28597,0 -11.04195,-0.4419 -21.92429,7.78782 -2.84128,2.1487 -6.7184,4.98181 -8.61582,6.29581 -5.97338,4.13665 -11.18328,7.88878 -16.45784,11.85285 -2.80713,2.10968 -7.33551,5.33459 -10.06307,7.16651 -2.72755,1.8319 -4.95918,3.62449 -4.95918,3.98355 0,0.35903 -1.0982,1.10769 -2.44043,1.66365 -1.34224,0.55597 -4.73821,2.92187 -7.54661,5.25756 -2.80839,2.33566 -5.40837,4.25653 -5.77775,4.26857 -0.36937,0.0121 -3.08613,1.86991 -6.03728,4.12857 -2.95112,2.25868 -7.1122,5.23036 -9.24681,6.60375 -2.13461,1.3734 -5.04543,3.64321 -6.46851,5.04404 -1.42306,1.40082 -3.65471,2.93036 -4.95919,3.39899 -1.30448,0.46864 -2.37178,1.12917 -2.37178,1.46784 0,0.33867 10.77007,1.11469 23.9335,1.7245 13.16341,0.60981 32.27787,1.80206 42.47656,2.64942 10.19868,0.8474 20.15857,1.58583 22.13306,1.64101 l 3.58999,0.10027 2.6629,-6.97344 z m -168.33942,5.5899 c -0.28659,-0.28659 -1.03047,-0.31723 -1.65306,-0.068 -0.68801,0.27532 -0.48366,0.47968 0.52107,0.52108 0.90919,0.0375 1.41859,-0.16636 1.13199,-0.45299 z m -248.39089,-1.72487 c -0.28659,-0.28659 -1.03048,-0.31723 -1.65307,-0.068 -0.68802,0.27532 -0.48365,0.47969 0.52108,0.52108 0.90917,0.0375 1.41857,-0.16636 1.13199,-0.45299 z m 265.87385,-0.34139 c 0,-0.51018 -2.90635,-0.8377 -7.11538,-0.80184 -4.77712,0.0408 -6.5485,0.30418 -5.39042,0.80184 2.43866,1.04793 12.5058,1.04793 12.5058,0 z m 23.05306,0.34139 c -0.2866,-0.28659 -1.03048,-0.31723 -1.65307,-0.068 -0.68801,0.27532 -0.48366,0.47969 0.52108,0.52108 0.90918,0.0375 1.41858,-0.16636 1.13199,-0.45299 z m -270.36588,-0.91282 c -0.59294,-0.23925 -1.56322,-0.23925 -2.15617,0 -0.59294,0.23925 -0.1079,0.43501 1.07808,0.43501 1.18591,0 1.67104,-0.19576 1.07809,-0.43501 z m 89.82349,-0.14745 c 0.2443,-0.39531 -0.10374,-0.71873 -0.77363,-0.71873 -0.6698,0 -1.01794,0.32342 -0.77362,0.71873 0.2443,0.39529 0.59244,0.71871 0.77362,0.71871 0.18119,0 0.52933,-0.32342 0.77363,-0.71871 z m 161.56809,0.19763 c -0.28659,-0.28659 -1.03047,-0.31723 -1.65307,-0.068 -0.68802,0.27532 -0.48365,0.47969 0.52108,0.52108 0.90917,0.0375 1.41857,-0.16636 1.13199,-0.45299 z M 413.7169,192.45972 c -0.58391,-0.23625 -1.74824,-0.25061 -2.58739,-0.0319 -0.83917,0.21867 -0.36141,0.41197 1.06166,0.42954 1.42308,0.0175 2.10965,-0.16133 1.52573,-0.39758 z m 203.07693,0.0448 c -0.28659,-0.28659 -1.03047,-0.31723 -1.65306,-0.068 -0.68801,0.27532 -0.48366,0.47968 0.52107,0.52106 0.90919,0.0375 1.41859,-0.16636 1.13199,-0.45297 z m 76.13081,-0.34143 c 0,-1.08059 -0.91529,-1.08059 -2.5874,0 -1.04614,0.67607 -0.92237,0.83858 0.64684,0.84927 1.06731,0.007 1.94056,-0.37491 1.94056,-0.84927 z m -249.02134,-0.5658 c -0.58392,-0.23625 -1.74825,-0.25061 -2.5874,-0.0319 -0.83916,0.21866 -0.3614,0.41196 1.06166,0.42953 1.42308,0.0175 2.10965,-0.16133 1.52574,-0.39758 z m 22.40776,-0.005 c -0.59294,-0.23925 -1.56322,-0.23925 -2.15617,0 -0.59295,0.23925 -0.10773,0.43502 1.07809,0.43502 1.18589,0 1.67103,-0.19577 1.07808,-0.43502 z m 28.8927,-0.0465 c -1.30449,-0.19762 -3.4391,-0.19762 -4.74357,0 -1.3045,0.19762 -0.23719,0.3593 2.37178,0.3593 2.60897,0 3.67627,-0.16168 2.37179,-0.3593 z m 96.60651,0.0251 c -0.8246,-0.21587 -2.37703,-0.22369 -3.44987,-0.0173 -1.07284,0.20629 -0.39817,0.3829 1.49927,0.39248 1.89742,0.0104 2.7752,-0.15925 1.9506,-0.37508 z m 64.67508,-0.002 c -0.83013,-0.21693 -2.18851,-0.21693 -3.01864,0 -0.83013,0.21694 -0.15092,0.39444 1.50931,0.39444 1.66027,0 2.33945,-0.1775 1.50933,-0.39444 z m -134.97631,-0.83914 c -0.59294,-0.23925 -1.56322,-0.23925 -2.15617,0 -0.59294,0.23927 -0.1079,0.43504 1.07808,0.43504 1.18591,0 1.67104,-0.19577 1.07809,-0.43504 z m 45.28966,-0.0213 c -0.8246,-0.21586 -2.37706,-0.22369 -3.44988,-0.0173 -1.07284,0.20629 -0.39817,0.38292 1.49925,0.3925 1.89744,0.0104 2.77523,-0.15925 1.95063,-0.3751 z m 228.48637,-7.33133 c -0.27532,-0.68802 -0.47969,-0.48365 -0.52106,0.52108 -0.0375,0.90917 0.16636,1.41857 0.45297,1.13199 0.28659,-0.28661 0.31723,-1.03047 0.068,-1.65307 z m -89.3134,-2.21059 c 1.07281,-1.36793 1.04231,-1.39842 -0.32562,-0.32564 -1.43666,1.12672 -1.89353,1.83496 -1.18369,1.83496 0.1791,0 0.85829,-0.67918 1.50931,-1.50932 z m 8.08344,-5.39042 c 0.85858,-0.94872 1.367,-1.72493 1.12983,-1.72493 -0.23719,0 -1.13371,0.77621 -1.9923,1.72493 -0.85858,0.9487 -1.36699,1.72494 -1.1298,1.72494 0.23717,0 1.13369,-0.77624 1.99227,-1.72494 z m 3.99113,-3.23426 c 1.0728,-1.36794 1.04229,-1.39843 -0.32563,-0.32563 -0.83013,0.65103 -1.50933,1.33022 -1.50933,1.50931 0,0.70985 0.70826,0.25298 1.83496,-1.18368 z m 89.15522,-15.44124 c 0.72412,-1.73309 1.14018,-3.32748 0.92455,-3.5431 -0.32812,-0.32813 -3.08048,5.3618 -3.08048,6.36825 0,1.20691 1.04144,-0.15786 2.15593,-2.82515 z m -68.45597,0.77927 c 1.07278,-1.36792 1.04229,-1.39843 -0.32565,-0.32563 -0.83011,0.65104 -1.50931,1.33022 -1.50931,1.50931 0,0.70985 0.70826,0.25298 1.83496,-1.18368 z m 7.65218,-5.95119 c 0,-0.62389 -3.32391,1.38417 -3.93926,2.3798 -0.32199,0.52102 0.43261,0.28024 1.67691,-0.53506 1.2443,-0.8153 2.26235,-1.64544 2.26235,-1.84474 z m 12.07456,-8.59821 c 0,-0.88261 -4.92851,2.29749 -6.89975,4.45204 -1.80088,1.96837 -1.41008,1.82643 2.3718,-0.86143 2.49037,-1.76997 4.52795,-3.38573 4.52795,-3.59061 z m 53.75052,-0.75941 0.51348,-2.58741 -1.21131,2.68266 c -0.6662,1.47545 -1.42839,3.80412 -1.69373,5.17481 l -0.48242,2.49215 1.18025,-2.5874 c 0.64913,-1.42306 1.41131,-3.75174 1.69373,-5.17481 z m -44.69459,-5.60605 c 2.18474,-1.89088 4.825,-3.88337 5.86722,-4.42776 1.04226,-0.54437 4.22365,-2.7942 7.06981,-4.99958 6.6012,-5.11509 11.03886,-7.82202 12.8232,-7.82202 0.77413,0 1.40751,-0.55043 1.40751,-1.22317 0,-0.67274 0.25865,-1.89716 0.57475,-2.72094 0.52515,-1.36851 0.33433,-1.35598 -2.21069,0.14502 -1.53199,0.90356 -3.97017,2.80014 -5.4182,4.21461 -1.44802,1.41447 -4.29702,3.74315 -6.33114,5.17481 -8.07303,5.68206 -15.52253,11.36845 -18.45769,14.08925 -4.28773,3.97458 -0.37498,1.94065 4.67523,-2.43029 z m 50.50583,-9.4262 c 0.90841,-2.57544 1.49114,-4.84313 1.29496,-5.03933 -0.84388,-0.84387 -3.77101,6.76279 -6.23029,16.19047 -0.61484,2.35698 3.25413,-6.38475 4.93533,-11.15114 z m -7.59802,-7.5922 c -2.01603,-0.18157 -5.31498,-0.18157 -7.33099,0 -2.01602,0.18158 -0.36654,0.33015 3.66549,0.33015 4.03204,0 5.6815,-0.14866 3.6655,-0.33015 z m 6.13354,-3.2496 c 0.7141,-1.8609 -14.72413,-1.88555 -17.1808,-0.0274 -1.5064,1.13939 -0.75435,1.26902 7.5051,1.29371 7.38149,0.022 9.27649,-0.22595 9.6757,-1.26628 z"
     id="path5961"
     inkscape:connector-curvature="0" />
  <path
     style="fill:none;fill-rule:evenodd;stroke:#000000;stroke-width:2;stroke-linecap:butt;stroke-linejoin:miter;stroke-opacity:1;marker-end:url(#Arrow1Lend);stroke-miterlimit:4;stroke-dasharray:none"
     d="M 321.63538,67.625682 H 82.250268"
     id="path6036"
     inkscape:connector-curvature="0" />
  <text
     xml:space="preserve"
     style="font-style:italic;font-weight:normal;font-size:10px;line-height:125%;font-family:Sans;-inkscape-font-specification:'Sans Italic';letter-spacing:0px;word-spacing:0px;fill:#000000;fill-opacity:1;stroke:none;stroke-width:1px;stroke-linecap:butt;stroke-linejoin:miter;stroke-opacity:1"
     x="169.70563"
     y="42.09127"
     id="text6334"><tspan
       sodipodi:role="line"
       id="tspan6332"
       x="169.70563"
       y="42.09127">$V_{a/c}$</tspan></text>
  <path
     style="fill:none;fill-rule:evenodd;stroke:#000000;stroke-width:2;stroke-linecap:butt;stroke-linejoin:miter;stroke-opacity:1;marker-end:url(#marker6346);marker-start:url(#Arrow1Lstart);stroke-miterlimit:4;stroke-dasharray:none"
     d="M 516.18795,84.517677 V 350.38983"
     id="path6336"
     inkscape:connector-curvature="0" />
  <path
     style="fill:none;fill-rule:evenodd;stroke:#000000;stroke-width:2;stroke-linecap:butt;stroke-linejoin:miter;stroke-miterlimit:4;stroke-dasharray:none;stroke-opacity:1;marker-start:url(#marker6466);marker-end:url(#marker6426)"
     d="M 98.994945,218.86796 H 926.30989"
     id="path6422"
     inkscape:connector-curvature="0" />
  <text
     xml:space="preserve"
     style="font-style:italic;font-weight:normal;font-size:10px;line-height:125%;font-family:Sans;-inkscape-font-specification:'Sans Italic';letter-spacing:0px;word-spacing:0px;fill:#000000;fill-opacity:1;stroke:none;stroke-width:1px;stroke-linecap:butt;stroke-linejoin:miter;stroke-opacity:1"
     x="511.94528"
     y="68.961327"
     id="text6782"><tspan
       sodipodi:role="line"
       id="tspan6780"
       x="511.94528"
       y="68.961327"
       style="font-size:21.33333397px">L</tspan></text>
  <text
     id="text6786"
     y="377.25989"
     x="509.11685"
     style="font-style:italic;font-weight:normal;font-size:10px;line-height:125%;font-family:Sans;-inkscape-font-specification:'Sans Italic';letter-spacing:0px;word-spacing:0px;fill:#000000;fill-opacity:1;stroke:none;stroke-width:1px;stroke-linecap:butt;stroke-linejoin:miter;stroke-opacity:1"
     xml:space="preserve"><tspan
       style="font-size:21.33333397px"
       y="377.25989"
       x="509.11685"
       id="tspan6784"
       sodipodi:role="line">W</tspan></text>
  <text
     xml:space="preserve"
     style="font-style:italic;font-weight:normal;font-size:10px;line-height:125%;font-family:Sans;-inkscape-font-specification:'Sans Italic';letter-spacing:0px;word-spacing:0px;fill:#000000;fill-opacity:1;stroke:none;stroke-width:1px;stroke-linecap:butt;stroke-linejoin:miter;stroke-opacity:1"
     x="943.2804"
     y="228.76746"
     id="text6790"><tspan
       sodipodi:role="line"
       id="tspan6788"
       x="943.2804"
       y="228.76746"
       style="font-size:21.33333397px">D</tspan></text>
  <text
     id="text6794"
     y="228.76746"
     x="943.2804"
     style="font-style:italic;font-weight:normal;font-size:10px;line-height:125%;font-family:Sans;-inkscape-font-specification:'Sans Italic';letter-spacing:0px;word-spacing:0px;fill:#000000;fill-opacity:1;stroke:none;stroke-width:1px;stroke-linecap:butt;stroke-linejoin:miter;stroke-opacity:1"
     xml:space="preserve"><tspan
       style="font-size:21.33333397px"
       y="228.76746"
       x="943.2804"
       id="tspan6792"
       sodipodi:role="line">D</tspan></text>
  <text
     xml:space="preserve"
     style="font-style:italic;font-weight:normal;font-size:10px;line-height:125%;font-family:Sans;-inkscape-font-specification:'Sans Italic';letter-spacing:0px;word-spacing:0px;fill:#000000;fill-opacity:1;stroke:none;stroke-width:1px;stroke-linecap:butt;stroke-linejoin:miter;stroke-opacity:1"
     x="62.225346"
     y="227.35324"
     id="text6798"><tspan
       sodipodi:role="line"
       id="tspan6796"
       x="62.225346"
       y="227.35324"
       style="font-size:21.33333397px">T</tspan></text>
</svg>
