<?xml version="1.0" encoding="UTF-8" standalone="no"?>
<svg
   xmlns:dc="http://purl.org/dc/elements/1.1/"
   xmlns:cc="http://creativecommons.org/ns#"
   xmlns:rdf="http://www.w3.org/1999/02/22-rdf-syntax-ns#"
   xmlns:svg="http://www.w3.org/2000/svg"
   xmlns="http://www.w3.org/2000/svg"
   xmlns:sodipodi="http://sodipodi.sourceforge.net/DTD/sodipodi-0.dtd"
   xmlns:inkscape="http://www.inkscape.org/namespaces/inkscape"
   version="1.1"
   id="svg5408"
   width="1000"
   height="431"
   viewBox="0 0 1000 431"
   sodipodi:docname="GlideForces_withAoA.svg"
   inkscape:version="1.0 (4035a4f, 2020-05-01)">
  <metadata
     id="metadata5414">
    <rdf:RDF>
      <cc:Work
         rdf:about="">
        <dc:format>image/svg+xml</dc:format>
        <dc:type
           rdf:resource="http://purl.org/dc/dcmitype/StillImage" />
        <dc:title />
      </cc:Work>
    </rdf:RDF>
  </metadata>
  <defs
     id="defs5412">
    <marker
       inkscape:isstock="true"
       style="overflow:visible;"
       id="marker965"
       refX="0.0"
       refY="0.0"
       orient="auto"
       inkscape:stockid="Arrow1Lend">
      <path
         transform="scale(0.8) rotate(180) translate(12.5,0)"
         style="fill-rule:evenodd;stroke:#000000;stroke-width:1pt;stroke-opacity:1;fill:#000000;fill-opacity:1"
         d="M 0.0,0.0 L 5.0,-5.0 L -12.5,0.0 L 5.0,5.0 L 0.0,0.0 z "
         id="path963" />
    </marker>
    <marker
       inkscape:isstock="true"
       style="overflow:visible"
       id="marker955"
       refX="0.0"
       refY="0.0"
       orient="auto"
       inkscape:stockid="Arrow1Lstart">
      <path
         transform="scale(0.8) translate(12.5,0)"
         style="fill-rule:evenodd;stroke:#000000;stroke-width:1pt;stroke-opacity:1;fill:#000000;fill-opacity:1"
         d="M 0.0,0.0 L 5.0,-5.0 L -12.5,0.0 L 5.0,5.0 L 0.0,0.0 z "
         id="path953" />
    </marker>
    <marker
       inkscape:isstock="true"
       style="overflow:visible;"
       id="marker1568"
       refX="0.0"
       refY="0.0"
       orient="auto"
       inkscape:stockid="Arrow1Lend">
      <path
         transform="scale(0.8) rotate(180) translate(12.5,0)"
         style="fill-rule:evenodd;stroke:#000000;stroke-width:1pt;stroke-opacity:1;fill:#000000;fill-opacity:1"
         d="M 0.0,0.0 L 5.0,-5.0 L -12.5,0.0 L 5.0,5.0 L 0.0,0.0 z "
         id="path1566" />
    </marker>
    <marker
       inkscape:stockid="Arrow1Lstart"
       orient="auto"
       refY="0.0"
       refX="0.0"
       id="marker6466"
       style="overflow:visible"
       inkscape:isstock="true"
       inkscape:collect="always">
      <path
         id="path6464"
         d="M 0.0,0.0 L 5.0,-5.0 L -12.5,0.0 L 5.0,5.0 L 0.0,0.0 z "
         style="fill-rule:evenodd;stroke:#000000;stroke-width:1pt;stroke-opacity:1;fill:#000000;fill-opacity:1"
         transform="scale(0.8) translate(12.5,0)" />
    </marker>
    <marker
       inkscape:stockid="Arrow1Lend"
       orient="auto"
       refY="0.0"
       refX="0.0"
       id="marker6426"
       style="overflow:visible;"
       inkscape:isstock="true"
       inkscape:collect="always">
      <path
         id="path6424"
         d="M 0.0,0.0 L 5.0,-5.0 L -12.5,0.0 L 5.0,5.0 L 0.0,0.0 z "
         style="fill-rule:evenodd;stroke:#000000;stroke-width:1pt;stroke-opacity:1;fill:#000000;fill-opacity:1"
         transform="scale(0.8) rotate(180) translate(12.5,0)" />
    </marker>
    <marker
       inkscape:stockid="Arrow1Lstart"
       orient="auto"
       refY="0.0"
       refX="0.0"
       id="Arrow1Lstart"
       style="overflow:visible"
       inkscape:isstock="true">
      <path
         id="path6038"
         d="M 0.0,0.0 L 5.0,-5.0 L -12.5,0.0 L 5.0,5.0 L 0.0,0.0 z "
         style="fill-rule:evenodd;stroke:#000000;stroke-width:1pt;stroke-opacity:1;fill:#000000;fill-opacity:1"
         transform="scale(0.8) translate(12.5,0)" />
    </marker>
    <marker
       inkscape:isstock="true"
       style="overflow:visible;"
       id="marker6346"
       refX="0.0"
       refY="0.0"
       orient="auto"
       inkscape:stockid="Arrow1Lend">
      <path
         transform="scale(0.8) rotate(180) translate(12.5,0)"
         style="fill-rule:evenodd;stroke:#000000;stroke-width:1pt;stroke-opacity:1;fill:#000000;fill-opacity:1"
         d="M 0.0,0.0 L 5.0,-5.0 L -12.5,0.0 L 5.0,5.0 L 0.0,0.0 z "
         id="path6344" />
    </marker>
    <marker
       inkscape:stockid="Arrow1Lend"
       orient="auto"
       refY="0.0"
       refX="0.0"
       id="Arrow1Lend"
       style="overflow:visible;"
       inkscape:isstock="true"
       inkscape:collect="always">
      <path
         id="path6041"
         d="M 0.0,0.0 L 5.0,-5.0 L -12.5,0.0 L 5.0,5.0 L 0.0,0.0 z "
         style="fill-rule:evenodd;stroke:#000000;stroke-width:1pt;stroke-opacity:1;fill:#000000;fill-opacity:1"
         transform="scale(0.8) rotate(180) translate(12.5,0)" />
    </marker>
  </defs>
  <sodipodi:namedview
     pagecolor="#ffffff"
     bordercolor="#666666"
     borderopacity="1"
     objecttolerance="10"
     gridtolerance="10"
     guidetolerance="10"
     inkscape:pageopacity="0"
     inkscape:pageshadow="2"
     inkscape:window-width="2560"
     inkscape:window-height="1395"
     id="namedview5410"
     showgrid="false"
     inkscape:zoom="1"
     inkscape:cx="525.69508"
     inkscape:cy="71.1793"
     inkscape:window-x="0"
     inkscape:window-y="23"
     inkscape:window-maximized="0"
     inkscape:current-layer="svg5408"
     inkscape:document-rotation="0" />
  <path
     style="fill:#000000;stroke-width:0.862468"
     d="m 250.19979,270.53974 c -0.587,-0.89858 -1.13123,-2.36479 -1.2094,-3.25827 -0.12958,-1.48103 -1.34523,-1.61051 -13.76408,-1.46638 -7.49206,0.087 -17.15492,-0.14652 -21.47303,-0.51886 -5.38269,-0.4639 -12.52793,-0.22921 -22.72651,0.74724 l -14.87542,1.4242 0.10719,-1.99856 c 0.10349,-1.92876 0.53931,-2.06911 12.48394,-4.01971 12.99821,-2.12265 17.3729,-3.63829 28.1498,-9.75266 3.75739,-2.13178 12.36953,-6.27434 13.22835,-6.36301 1.45028,-0.14967 14.22133,-6.82925 16.51989,-8.64025 1.13716,-0.89595 2.41222,-1.65915 2.83346,-1.69601 0.4212,-0.0368 2.38685,-1.54532 4.36811,-3.35215 7.49757,-6.83755 19.25863,-13.36681 29.58803,-16.42606 10.48524,-3.10542 88.68434,-14.5219 141.44189,-20.64946 39.65884,-4.60621 132.5267,-13.07734 182.74726,-16.66966 30.46997,-2.17955 41.15787,-3.21284 44.03007,-4.25675 3.07197,-1.11651 4.16299,-1.19009 5.73996,-0.38707 1.30808,0.66607 6.25816,0.75617 15.08331,0.2745 14.83062,-0.80939 14.24848,-0.5754 24.00192,-9.64685 2.5608,-2.38177 5.84368,-5.21357 7.29524,-6.2929 1.45154,-1.07934 4.23383,-3.49682 6.18286,-5.37219 1.94903,-1.87537 4.68667,-4.25765 6.08365,-5.29395 3.52479,-2.61475 18.23356,-15.7826 19.16939,-17.16116 0.42179,-0.62137 1.87364,-1.83917 3.22629,-2.70619 1.35264,-0.86702 4.36579,-3.52807 6.69587,-5.91342 2.33007,-2.38538 4.78488,-4.385 5.45513,-4.44364 0.67024,-0.0586 1.18751,-0.46232 1.14947,-0.89707 -0.038,-0.43474 3.22221,-3.67973 7.24499,-7.21109 4.02279,-3.53136 7.97352,-7.20646 8.77943,-8.16689 0.80592,-0.960448 2.88207,-2.824118 4.61372,-4.141505 1.73163,-1.317405 4.35897,-3.723077 5.83853,-5.345954 1.47955,-1.622877 4.57451,-4.266912 6.87769,-5.875669 l 4.1876,-2.924994 12.40121,-0.430314 c 11.97594,-0.415563 12.41645,-0.364854 12.84491,1.47881 0.28547,1.228284 -0.001,1.948107 -0.80463,2.018378 -0.68658,0.06007 -1.3829,0.900173 -1.54737,1.866896 -0.2218,1.303763 0.12394,1.720696 1.33892,1.614399 2.85976,-0.250196 2.46607,5.234457 -1.24501,17.344413 -1.88807,6.16119 -3.35086,12.55851 -3.25055,14.21635 0.10027,1.65782 -0.28249,3.44448 -0.85056,3.97035 -1.10915,1.02674 -6.51505,17.84018 -6.34841,19.74481 0.0552,0.6304 -1.42029,6.03136 -3.27881,12.00218 -1.85847,5.97083 -3.32003,11.53063 -3.24791,12.35507 0.0922,1.0534 1.37237,1.73514 4.30638,2.29335 5.74375,1.09274 6.06768,2.92077 1.38713,7.82776 -2.64949,2.77769 -3.82943,4.85685 -4.18513,7.37468 -0.91017,6.44249 -0.44322,7.94423 2.7417,8.8173 6.43194,1.76319 8.68335,2.76788 8.78413,3.91988 0.1426,1.62998 -1.70495,2.42021 -6.67498,2.85503 -2.28474,0.19988 -4.25167,0.77205 -4.37097,1.27149 -0.29765,1.24609 -7.75572,3.89132 -17.9062,6.351 -15.04209,3.64504 -20.23958,5.30843 -23.79235,7.61441 -3.02914,1.96614 -4.24392,2.25122 -9.3318,2.1901 -3.5517,-0.0427 -10.5285,0.86521 -17.76163,2.31129 -18.43571,3.68575 -47.14364,7.3048 -96.54989,12.17146 -24.90335,2.45305 -45.24977,4.79197 -45.21427,5.19759 0.0355,0.40563 -0.90207,0.82205 -2.08345,0.92541 -2.00001,0.17498 -2.17344,-0.10312 -2.51766,-4.03775 -0.63375,-7.24377 -0.005,-6.99649 -14.55884,-5.72317 l -12.90826,1.12932 0.90468,3.16747 c 2.33143,8.16243 2.30737,7.80643 0.53806,7.96123 -0.91998,0.0805 -1.98807,-0.11821 -2.3735,-0.44168 -1.20685,-1.01256 -154.39037,13.32998 -156.14263,14.61962 -1.22667,0.90281 -1.76941,0.84736 -2.77309,-0.28337 -1.76061,-1.98351 -13.10417,-1.06677 -14.0971,1.13928 -0.4488,0.99711 -1.34647,1.37967 -2.75407,1.17372 -1.14852,-0.16804 -18.34617,0.8946 -38.21696,2.36139 -34.04996,2.51347 -75.86291,4.84044 -82.01605,4.56437 -2.64907,-0.11884 -2.77546,0.0211 -2.76257,3.05857 0.0107,2.51122 -0.37739,3.27407 -1.83818,3.61408 -1.16888,0.27206 -2.24525,-0.17143 -2.91895,-1.20277 z m 2.58138,-4.0148 c -0.41428,-1.03515 -1.18712,-2.23369 -1.71744,-2.66347 -0.65772,-0.53301 -0.74372,-0.2966 -0.27054,0.74381 0.38156,0.83886 0.74174,2.07352 0.80038,2.74369 0.0586,0.67018 0.51927,1.18242 1.02367,1.13828 0.55132,-0.0482 0.61667,-0.83086 0.16365,-1.96233 z m 69.71717,-7.3806 c -1.79889,-0.03 -4.50505,0.20987 -6.01371,0.53315 -1.50864,0.32324 -0.0364,0.34785 3.27071,0.0546 3.30759,-0.29239 4.54187,-0.55774 2.74301,-0.58773 z m 52.88497,-4.62763 c -2.00985,-0.006 -5.48975,0.29652 -7.73312,0.67154 -2.24336,0.37518 -0.59891,0.37989 3.65429,0.0104 4.25315,-0.3701 6.08867,-0.67636 4.07881,-0.68219 z m 39.49574,-3.46587 c -3.44027,0.13659 -9.04646,0.62708 -12.45819,1.08994 -3.41174,0.46288 -0.59698,0.35104 6.25504,-0.24844 6.85201,-0.59947 9.64343,-0.97812 6.20315,-0.8415 z m 10.31628,-0.83309 c -0.61156,-0.18664 -1.57813,-0.10213 -2.14798,0.18793 -0.56983,0.29003 -0.0693,0.44276 1.11191,0.33944 1.18138,-0.10337 1.6476,-0.34065 1.03605,-0.52733 z m -135.81795,10.98071 c -1.07458,-0.11148 -3.00821,0.0524 -4.29698,0.3638 -1.28874,0.31174 -0.40954,0.40298 1.95381,0.20266 2.36319,-0.20173 3.41772,-0.45539 2.34315,-0.56681 z m 264.39689,-23.17158 c -0.033,-0.35426 -4.61211,-0.377 -10.17716,-0.0505 -5.56504,0.3265 -13.62385,0.60231 -17.90845,0.61287 -4.50894,0.0111 -8.12323,0.38054 -8.58088,0.87715 -0.48923,0.53082 -0.23654,0.58952 0.66279,0.15395 0.80373,-0.38928 1.48824,-0.30696 1.5312,0.18415 0.0427,0.48846 -0.58343,1.12413 -1.3915,1.41258 -0.80805,0.28846 6.94399,-0.16639 17.22682,-1.01078 10.28281,-0.84442 18.66953,-1.82514 18.63717,-2.17943 z m 63.74652,-5.57509 c -6.30208,0.40319 -16.35451,1.28318 -22.33877,1.95528 -5.98425,0.67208 -0.82798,0.34224 11.45833,-0.73318 12.28632,-1.0754 17.18252,-1.62534 10.88044,-1.22213 z m 20.2595,-1.74356 c -1.30821,-0.0831 -3.62835,0.11591 -5.1559,0.44204 -1.52755,0.32635 -0.45717,0.39434 2.37855,0.15109 2.83576,-0.24308 4.08554,-0.51016 2.77734,-0.59332 z m -303.54704,25.54739 c -0.29348,-0.39346 -4.69454,-0.33794 -9.78015,0.12328 -9.03653,0.81971 -9.09904,0.83893 -2.75264,0.84692 10.30049,0.0131 13.10428,-0.20397 12.53277,-0.97023 z M 676.3435,226.56383 c -0.3105,-0.2605 -1.05421,-0.22615 -1.65271,0.0763 -0.66141,0.33423 -0.44001,0.52001 0.56451,0.47366 0.90899,-0.0419 1.39869,-0.28937 1.0882,-0.54991 z m -430.52758,36.80053 c -0.3105,-0.26051 -1.05421,-0.22616 -1.6527,0.0763 -0.66142,0.33424 -0.44002,0.52002 0.5645,0.47366 0.90897,-0.0419 1.39867,-0.28936 1.08821,-0.54992 z m 42.53866,-3.82475 c -1.55247,-0.0562 -4.06558,0.16367 -5.58472,0.4886 -1.51911,0.32497 -0.24889,0.37097 2.82269,0.10225 3.07159,-0.26874 4.31452,-0.53455 2.76203,-0.59085 z m 11.61502,-1.00916 c -1.3082,-0.0831 -3.62836,0.11591 -5.15591,0.44205 -1.52751,0.32633 -0.45718,0.39431 2.37858,0.15108 2.83574,-0.24308 4.08553,-0.51015 2.77731,-0.59331 z m 41.24613,-6.45312 c 1.96311,-0.17175 2.84705,0.21675 3.2854,1.44408 0.70998,1.98786 1.78129,2.0944 2.3156,0.23029 0.53885,-1.88007 6.06052,-2.26869 6.92892,-0.48761 0.60369,1.23808 3.54725,1.05939 33.03265,-2.00506 17.80344,-1.85033 42.63019,-4.27053 55.17054,-5.3782 l 22.80066,-2.01397 -0.24059,-2.35981 c -0.22283,-2.1867 -0.65897,-2.42335 -5.94385,-3.22619 l -5.70325,-0.86641 -0.79594,-4.14976 -0.79595,-4.14973 -5.28355,-1.01694 c -2.90594,-0.55931 -7.56143,-1.44827 -10.34553,-1.97549 -4.29154,-0.81268 -5.08844,-1.26085 -5.23575,-2.94462 -0.16501,-1.88615 2.39972,-4.16251 5.0589,-4.49011 0.56671,-0.0698 3.5655,-2.01617 6.66399,-4.32526 l 5.63364,-4.19832 -0.66714,-5.18116 -0.66713,-5.18117 5.49009,-1.54165 c 3.31145,-0.9299 5.63959,-2.06336 5.86687,-2.8563 0.42995,-1.49987 0.99998,-1.5623 -72.40355,7.92941 -34.35653,4.44256 -43.35177,5.84516 -43.81565,6.83196 -0.32685,0.69527 -1.98227,1.36966 -3.76185,1.53246 -2.98192,0.27303 -3.28691,0.58011 -4.93958,4.97742 l -1.76141,4.68665 -11.38817,3.34448 c -6.26347,1.83947 -12.06131,3.2037 -12.88409,3.03162 -0.96396,-0.20166 -1.80203,-1.58496 -2.35658,-3.88988 -0.85477,-3.55258 -0.88269,-3.57292 -4.09334,-2.9809 -2.97538,0.54864 -3.42807,1.03746 -5.68729,6.14141 -2.10305,4.75117 -2.87574,5.66492 -5.39557,6.38064 -17.39045,4.93939 -20.29001,5.39734 -20.47925,3.23435 -0.0393,-0.44988 -0.40503,-0.56925 -0.81261,-0.26526 -1.48783,1.10971 -17.41516,5.53364 -19.9736,5.54782 -1.44826,0.008 -3.87812,0.66266 -5.39971,1.45473 l -2.7665,1.44017 1.16357,7.03201 c 0.63996,3.86764 1.44327,7.60571 1.78514,8.30686 0.78227,1.6043 4.33886,1.73003 20.98348,0.7419 l 13.13467,-0.77976 -0.28337,-3.23893 c -0.22665,-2.59058 0.0775,-3.36785 1.51964,-3.88292 0.99167,-0.35418 11.72218,-1.27663 23.84557,-2.04998 20.52433,-1.30907 21.95216,-1.49758 20.72997,-2.73661 -1.12425,-1.13977 -1.14523,-1.93398 -0.14619,-5.53552 1.60553,-5.7879 2.19152,-6.45893 5.92572,-6.78563 1.80405,-0.15783 3.49545,0.17752 3.78726,0.75085 0.52691,1.03528 0.5501,-2.32191 0.0683,-9.88355 -0.16709,-2.62233 0.25293,-4.68262 1.21301,-5.95003 1.40417,-1.85357 2.28892,-2.01041 20.16118,-3.57403 l 18.69255,-1.63539 2.45562,2.44888 c 2.36285,2.35634 2.49209,2.86579 3.42093,13.48228 l 0.96529,11.03344 -2.7373,2.04161 c -2.5434,1.897 -4.00343,2.15241 -20.61116,3.60539 -15.42608,1.34961 -18.10605,1.38786 -19.56947,0.27929 -0.9326,-0.70647 -1.77676,-1.89878 -1.87593,-2.64962 -0.13172,-0.99839 -0.32251,-0.88749 -0.70969,0.41271 -0.39425,1.32413 -0.10746,1.89955 1.12386,2.25464 1.24136,0.35799 1.74706,1.39227 2.02963,4.15124 0.31429,3.06912 0.47651,3.34478 0.98427,1.67331 0.44866,-1.47692 1.31146,-2.06271 3.29359,-2.23612 z M 313.8141,246.2499 c -0.15035,-1.71837 0.2417,-2.18554 1.96004,-2.33588 1.71836,-0.15033 2.18555,0.2417 2.33589,1.96004 0.15034,1.71836 -0.24171,2.18555 -1.96003,2.33588 -1.71839,0.15034 -2.18557,-0.2417 -2.3359,-1.96004 z m 189.35845,-5.44681 c -0.60228,-0.18446 -1.76343,-0.0973 -2.58033,0.19373 -0.8169,0.29096 -0.32413,0.44189 1.09506,0.33534 1.41919,-0.1066 2.08756,-0.34458 1.48529,-0.52904 z M 695.1704,224.05042 c -0.31049,-0.26051 -1.05424,-0.22615 -1.65271,0.0763 -0.66142,0.33425 -0.44002,0.52001 0.5645,0.47367 0.90899,-0.0419 1.39867,-0.28936 1.08822,-0.54993 z M 486.94707,241.078 c -9.26889,-0.93253 -10.89726,-0.85983 -10.77994,0.48112 0.0929,1.06179 1.40639,1.16852 7.1937,0.58469 5.83436,-0.58863 6.46535,-0.77611 3.58623,-1.06577 z m 154.6815,-13.60797 c 0.26699,-0.53041 0.12007,-2.27074 -0.32621,-3.86739 l -0.81189,-2.90296 -27.45503,2.40201 -27.45504,2.402 0.33826,3.86634 0.33825,3.86634 27.44326,-2.40097 c 18.48349,-1.6171 27.60176,-2.71583 27.92869,-3.36538 z m 10.48937,-0.93165 c -1.89118,-0.89066 -2.43586,-4.77337 -0.78272,-5.57945 0.64381,-0.31392 1.32572,-1.54051 1.51534,-2.72571 l 0.34476,-2.15494 12.67168,-0.86917 12.67168,-0.86917 0.6955,4.96532 0.69549,4.96531 5.7153,-0.95957 c 3.14343,-0.52778 9.94894,-1.55271 15.12339,-2.2776 14.87559,-2.08395 47.88964,-9.10798 51.84646,-11.03076 0.91351,-0.44391 2.22809,-2.01411 2.92126,-3.48936 l 1.26035,-2.68225 -4.53676,-0.13239 c -2.49521,-0.0728 -13.85029,0.28742 -25.23346,0.80048 -11.38317,0.51306 -22.50932,0.91591 -24.72478,0.89522 -4.39149,-0.041 -4.96168,0.74808 -4.50806,6.23905 0.1662,2.01906 -0.12647,2.40594 -1.75697,2.31812 -1.67273,-0.0901 -2.04771,-0.69979 -2.5801,-4.19468 -0.5757,-3.77913 -0.82154,-4.11124 -3.2417,-4.37884 -3.6051,-0.39863 -3.54331,-3.66085 0.0875,-4.61764 1.97745,-0.52111 2.56984,-1.22774 2.81471,-3.35756 0.40224,-3.49844 1.08186,-4.77834 2.60825,-4.91188 0.85923,-0.0752 1.32486,0.88374 1.52173,3.13391 l 0.28366,3.24223 25.96159,-2.60265 c 14.27891,-1.43146 26.06039,-2.95838 26.18108,-3.39317 0.30023,-1.08183 4.98493,-1.41455 5.73609,-0.40749 0.98766,1.32418 5.29711,0.52327 6.60156,-1.22689 1.36453,-1.83081 7.31244,-16.44263 6.83248,-16.78481 -0.17124,-0.12207 -1.7841,-0.35723 -3.58421,-0.52257 -2.95798,-0.27174 -3.25724,-0.1213 -3.10986,1.56309 0.15226,1.74035 -0.16117,1.86517 -4.74053,1.88589 -3.51852,0.0159 -5.33844,-0.4281 -6.44311,-1.57209 -1.40328,-1.4532 -3.52089,-1.54282 -23.92829,-1.01293 -12.31383,0.31977 -22.68056,0.79901 -23.03721,1.065 -0.35662,0.26599 -0.43732,2.8966 -0.17929,5.8458 0.26465,3.02499 0.0591,5.85086 -0.47166,6.48339 -1.14847,1.36871 -20.1119,3.18509 -22.15106,2.12174 -1.06531,-0.55552 -1.41086,-0.1935 -1.59164,1.6676 l -0.23085,2.37718 -10.25816,1.42885 c -5.64197,0.78585 -12.90662,2.32795 -16.14366,3.42685 l -5.88554,1.99802 -7.54052,-2.07483 c -4.14729,-1.14118 -9.5252,-2.49491 -11.95099,-3.00825 -2.42575,-0.51338 -8.78299,-1.8733 -14.1272,-3.02207 -9.62234,-2.06842 -9.87934,-2.07465 -26.46195,-0.64244 -16.20147,1.39938 -42.16974,2.92168 -87.7434,5.14402 -18.28537,0.89167 -22.15656,0.8573 -23.56433,-0.2091 -1.56311,-1.18409 -2.28104,-1.11985 -9.96201,0.89144 -4.55262,1.19212 -8.41834,2.3353 -8.59045,2.54044 -0.17211,0.20511 0.42891,4.31721 1.33545,9.13801 1.36814,7.27495 1.49576,7.6325 0.75067,2.10313 -0.87172,-6.46899 -0.83669,-6.69147 1.20915,-7.6812 3.50193,-1.69417 7.8172,-1.72459 8.45558,-0.0596 0.30913,0.80624 1.29276,6.75887 2.18583,13.22808 l 1.62378,11.76217 -3.74177,0.48165 c -2.05797,0.26508 -4.41864,0.5379 -5.24594,0.60662 -1.00381,0.0848 -1.44591,0.79053 -1.32904,2.12636 0.0963,1.10077 0.46517,1.97712 0.81969,1.94746 0.3546,-0.029 5.15479,0.28729 10.66723,0.70432 5.51244,0.41703 12.0762,0.85219 14.58614,0.96703 l 4.56352,0.20884 -0.79252,-9.05836 -0.7925,-9.05837 2.68171,-2.44309 2.68172,-2.44308 22.41096,-1.96071 22.41096,-1.9607 5.48857,2.65117 5.48858,2.65118 0.39801,4.40922 c 0.78955,8.75616 -0.0796,8.34699 14.93846,7.03308 7.24154,-0.63356 13.33872,-1.49415 13.54925,-1.91241 0.45296,-0.89993 59.54727,-7.38212 61.69262,-6.76721 1.1397,0.32671 1.57144,1.5636 1.91453,5.48499 l 0.44296,5.06319 4.07888,-0.38315 c 3.18871,-0.29956 3.73399,-0.54559 2.49865,-1.12738 z m -50.13772,-25.33056 c -0.31281,-0.64158 -0.55802,-2.4707 -0.54488,-4.06473 0.0213,-2.58083 0.33316,-2.95545 2.84845,-3.42085 1.5535,-0.28741 3.37048,-0.14478 4.03773,0.31711 1.87128,1.29526 1.71843,6.09778 -0.22466,7.05998 -2.65043,1.31244 -5.5049,1.36309 -6.11664,0.10849 z m -14.90641,-0.68794 c -1.16968,-0.12089 -2.02051,-0.82907 -2.10096,-1.7487 -0.10014,-1.14453 0.71645,-1.73645 3.14762,-2.28165 4.28587,-0.96109 7.85848,-0.56233 7.98566,0.89143 0.20606,2.35521 -3.65014,3.69534 -9.03232,3.13892 z m 123.92982,21.2284 c -0.61156,-0.18663 -1.57814,-0.10213 -2.14798,0.18793 -0.56983,0.29002 -0.0693,0.44277 1.11188,0.33945 1.1814,-0.10337 1.64762,-0.34067 1.03608,-0.52734 z m -203.28616,16.97143 c -0.31047,-0.26053 -1.0542,-0.22626 -1.65271,0.0763 -0.6614,0.33424 -0.44002,0.52003 0.56452,0.47368 0.90898,-0.0419 1.39868,-0.28937 1.08821,-0.54993 z m 43.78848,-4.39012 c -0.33964,-0.7847 -4.79451,-0.68651 -18.00201,0.39669 -9.65288,0.79172 -16.57059,1.50946 -15.37267,1.59514 1.80857,0.12932 19.95218,-0.35485 30.9509,-0.82597 1.95686,-0.0838 2.73096,-0.45618 2.42378,-1.16586 z m 124.5519,-13.71063 -0.33826,-3.86633 -9.78314,0.85592 -9.78312,0.85591 -0.12878,2.39213 c -0.28964,5.37892 -0.1776,5.42654 10.55394,4.48766 l 9.81763,-0.85894 z m 45.18099,-0.63025 c -0.61157,-0.18665 -1.57813,-0.10213 -2.14798,0.18792 -0.56983,0.29002 -0.0693,0.44276 1.1119,0.33935 1.18139,-0.10336 1.64762,-0.34066 1.03609,-0.52732 z m -483.30141,34.84847 c -0.68007,-3.86891 -1.40859,-7.27493 -1.61893,-7.56897 -0.59404,-0.83029 -3.28794,0.27863 -15.43077,6.35673 -6.1951,3.10053 -11.71619,5.6769 -12.26911,5.72526 -0.5529,0.0484 -0.97544,0.42918 -0.93896,0.8462 0.0365,0.41703 2.90542,0.77539 6.37524,0.79713 3.46989,0.0214 9.62712,0.26303 13.68273,0.53693 12.59316,0.85047 11.63619,1.47845 10.1998,-6.69328 z m 95.5035,-1.95742 c -0.0755,-0.86294 -51.22912,2.20318 -52.4938,3.14645 -2.80359,2.09105 1.27762,2.07887 25.92363,-0.0774 14.64915,-1.28163 26.60572,-2.66271 26.57017,-3.06907 z m 163.95633,-14.18638 c -0.81633,-0.14069 -1.71358,-0.89361 -1.9939,-1.67309 -0.36112,-1.00418 -0.48943,-0.85126 -0.44023,0.52463 0.0535,1.49484 0.51249,1.88001 1.99394,1.67309 1.36351,-0.19046 1.49183,-0.34338 0.44019,-0.52463 z m 238.71347,-21.68701 c -0.31048,-0.26053 -1.05419,-0.22625 -1.6527,0.0763 -0.66143,0.33424 -0.44,0.52001 0.5645,0.47369 0.90898,-0.0419 1.39866,-0.28937 1.08821,-0.54994 z m 18.60027,-2.83578 c 1.33552,-1.06289 3.39066,-2.06451 4.56697,-2.22578 1.59434,-0.21869 1.72529,-0.36207 0.51437,-0.56359 -1.20589,-0.20066 -1.56579,-0.84483 -1.39697,-2.50045 0.22391,-2.19552 0.19933,-2.18645 -1.60255,0.58269 -1.66136,2.55357 -2.55255,2.98227 -9.6698,4.6513 -7.02405,1.64718 -7.47744,1.86156 -4.35733,2.06026 6.63811,0.42278 9.49873,-0.0572 11.94531,-2.00443 z m -281.07772,23.82543 c -0.47625,-0.3636 -2.07742,-0.77869 -3.55817,-0.92245 -1.96247,-0.19047 -2.66383,0.0641 -2.58724,0.93953 0.0578,0.66048 0.34974,1.01837 0.64881,0.79533 0.29904,-0.22305 1.69796,-0.19001 3.10872,0.0735 2.78548,0.52014 3.75728,0.1596 2.38788,-0.88591 z M 199.41197,262.1796 c -0.61155,-0.18664 -1.57812,-0.10213 -2.14797,0.18792 -0.56983,0.29002 -0.0694,0.44277 1.1119,0.33945 1.18138,-0.10336 1.6476,-0.34066 1.03605,-0.52732 z m 95.28993,-9.25547 c -1.55247,-0.0562 -4.06559,0.16366 -5.58471,0.48859 -1.51912,0.32496 -0.2489,0.37098 2.82268,0.10225 3.07158,-0.26873 4.31451,-0.53454 2.76203,-0.59084 z m 8.59324,-0.73616 c -1.08118,-0.11175 -2.82102,0.0405 -3.86634,0.33827 -1.04534,0.29781 -0.16073,0.38928 1.96573,0.20319 2.12648,-0.18604 2.98176,-0.42978 1.90062,-0.54148 z m 196.75697,-17.17636 c -0.61156,-0.18664 -1.57814,-0.10213 -2.14797,0.18793 -0.56986,0.29001 -0.0693,0.44276 1.11187,0.33943 1.18139,-0.10336 1.64764,-0.34067 1.03609,-0.52732 z m 49.85238,-11.55784 c -0.51597,-5.89754 -0.57044,-6.01073 -3.44037,-7.1624 -1.60383,-0.64359 -3.54513,-1.62886 -4.31395,-2.18946 -1.01557,-0.7406 -6.70086,-0.72244 -20.78945,0.0663 -17.05751,0.95496 -19.70434,1.28366 -21.98956,2.7308 -3.47832,2.20268 -3.59658,2.56114 -3.27529,9.92829 l 0.27845,6.38423 2.74317,0.10325 c 1.50873,0.0568 13.67099,-0.79046 27.02721,-1.88279 l 24.28405,-1.98597 z M 765.4072,210.06994 c -0.60229,-0.18446 -1.76344,-0.0973 -2.58034,0.19373 -0.81691,0.29097 -0.32413,0.44189 1.09506,0.33535 1.4192,-0.1066 2.08757,-0.34458 1.48529,-0.52906 z m -391.80755,32.58928 c 1.09195,-0.53241 1.16819,-2.30069 0.45211,-10.48562 -0.47375,-5.41487 -1.32701,-10.55805 -1.89616,-11.4293 -0.96952,-1.48409 -2.10656,-1.4903 -18.01648,-0.0984 -12.06237,1.05531 -17.25421,1.81052 -17.9225,2.60692 -1.29744,1.54624 0.37809,20.69774 1.92434,21.99519 1.18403,0.99352 32.85379,-1.31868 35.45869,-2.58883 z m 238.26931,-20.96585 c -4.62091,0.2486 -12.16026,0.90822 -16.75415,1.4658 -4.59385,0.55759 -0.81312,0.35417 8.40166,-0.45202 9.21477,-0.80619 12.9734,-1.26232 8.35249,-1.01378 z m 176.37987,-17.53824 c 4.04938,-1.33872 7.33283,-2.77299 7.29659,-3.18727 -0.0362,-0.41428 1.86728,-0.92239 4.23002,-1.1291 2.36277,-0.20671 4.26605,-0.71739 4.22954,-1.13485 -0.0942,-1.07686 -3.8151,-1.32215 -5.71993,-0.37708 -0.8814,0.4373 -5.46254,1.20535 -10.18034,1.70682 -4.71784,0.5014 -7.88579,1.02936 -7.03993,1.17314 0.84589,0.14377 1.5826,0.77159 1.63715,1.39522 0.11316,1.29338 -1.08754,2.01089 -6.99335,4.17907 l -4.1941,1.53976 4.68593,-0.86585 c 2.57728,-0.47622 7.99906,-1.96115 12.04842,-3.29986 z m -459.04447,39.88344 c -0.11693,-1.33652 -0.67479,-2.10537 -1.4767,-2.03522 -0.70882,0.062 -1.25772,0.46778 -1.21975,0.90167 0.0379,0.4339 -0.11218,1.42103 -0.3336,2.1936 -0.28866,1.00699 0.10994,1.35983 1.40768,1.24629 1.35818,-0.11881 1.76336,-0.6948 1.62237,-2.30634 z m 2.32879,0.0668 c -0.33424,-0.66137 -0.52003,-0.43999 -0.47368,0.56452 0.0419,0.90899 0.28937,1.3987 0.54992,1.08821 0.26053,-0.31049 0.22625,-1.05418 -0.0763,-1.6527 z m 333.11553,-27.8594 c -1.07458,-0.11149 -3.0082,0.0524 -4.29695,0.36379 -1.28876,0.31176 -0.40955,0.40297 1.95376,0.20275 2.36321,-0.20174 3.41776,-0.45539 2.34317,-0.56682 z m 5.56252,-0.40023 c -0.31048,-0.26054 -1.05419,-0.22626 -1.6527,0.0763 -0.66139,0.33423 -0.44001,0.52003 0.5645,0.47368 0.90899,-0.0419 1.39869,-0.28936 1.08821,-0.54993 z m 3.43675,-0.30069 c -0.31049,-0.26053 -1.05419,-0.22625 -1.65271,0.0763 -0.66138,0.33422 -0.44001,0.52002 0.56451,0.47367 0.90899,-0.0419 1.39869,-0.28937 1.08822,-0.54993 z m 95.96024,-9.31168 c 3.50655,-1.0984 6.0451,-2.26775 5.64115,-2.59851 -0.4039,-0.33079 -3.38551,-0.46239 -6.62574,-0.29247 -5.90217,0.30953 -7.35509,1.11499 -7.14134,3.95902 0.10299,1.37572 0.48442,1.3256 8.12593,-1.06804 z m -393.03193,27.83233 c -0.32633,-1.5275 -0.39431,-0.45715 -0.15107,2.37858 0.24307,2.83576 0.51015,4.08555 0.59331,2.77732 0.0831,-1.30818 -0.11592,-3.62833 -0.44205,-5.15589 z m 79.43043,-15.7889 c -2.84415,-17.22698 -2.57,-16.06721 -3.87121,-16.37757 -1.30748,-0.31182 -1.02282,3.6136 1.44144,19.87691 1.19039,7.85628 2.0228,11.1645 2.92395,11.6207 1.97842,1.00148 1.93175,-0.42601 -0.49418,-15.12004 z m 5.56426,7.92094 c -0.291,-0.8169 -0.44191,-0.32411 -0.33536,1.09508 0.1066,1.41918 0.3446,2.08756 0.52906,1.48528 0.18447,-0.6023 0.0973,-1.76344 -0.19373,-2.58035 z m 310.81721,-25.39652 c -0.60228,-0.18446 -1.76344,-0.0973 -2.58034,0.19373 -0.81692,0.29098 -0.32414,0.4419 1.09508,0.33534 1.41919,-0.10639 2.08755,-0.34458 1.48527,-0.52904 z m -16.85967,0.65411 c -0.31049,-0.26051 -1.05421,-0.22616 -1.65271,0.0763 -0.66138,0.33424 -0.44001,0.52 0.56451,0.47366 0.90899,-0.0419 1.3987,-0.28937 1.08821,-0.54992 z M 468.46247,222.7645 c -0.25056,-2.86396 -0.58707,-3.4117 -2.01904,-3.28641 -1.43199,0.12529 -1.66826,0.72313 -1.4177,3.58708 0.25057,2.86395 0.58707,3.41167 2.01905,3.2864 1.43197,-0.12528 1.66826,-0.72312 1.41769,-3.58707 z m 272.8278,-20.97968 c -0.61156,-0.18664 -1.57813,-0.10212 -2.14797,0.18793 -0.56984,0.29002 -0.0693,0.44276 1.11192,0.33935 1.18137,-0.10336 1.6476,-0.34067 1.03606,-0.52732 z m 22.69124,-2.87441 c -0.84588,-0.14377 -2.1991,-0.0254 -3.00715,0.2631 -0.80806,0.28846 -0.11603,0.40606 1.53794,0.26139 1.65394,-0.1447 2.31508,-0.38073 1.46921,-0.52449 z m -62.89996,3.50256 c 0.12131,-0.0107 0.18744,-0.39627 0.14714,-0.85702 -0.0414,-0.47254 -1.17716,-0.51469 -2.60573,-0.0967 -2.07478,0.6071 -2.57592,0.45145 -2.77307,-0.86124 -0.21521,-1.43294 -0.26823,-1.43975 -0.50202,-0.0644 -0.14376,0.84589 -0.66697,1.57345 -1.16274,1.61683 -0.57828,0.0506 -0.50152,0.48303 0.2142,1.20651 0.84024,0.84933 1.77532,0.87437 3.78869,0.10141 1.4702,-0.56444 2.77231,-1.03493 2.89358,-1.04554 z m 50.52341,-3.45833 c -0.48566,-0.38079 -8.82514,-0.18309 -18.53216,0.43935 -18.88072,1.21066 -19.23778,1.53629 -1.2027,1.09671 16.30045,-0.3973 20.74596,-0.74331 19.73486,-1.53606 z m 36.42919,-4.67509 c -2.65885,-0.45645 -6.68976,-0.88403 -8.9576,-0.9502 -3.43391,-0.10019 -4.02151,0.0884 -3.51461,1.12804 0.41396,0.84893 -0.0213,1.41464 -1.35999,1.76808 -1.08278,0.28585 2.67423,0.15165 8.34892,-0.29814 l 10.31759,-0.81785 z m -74.53851,6.47389 c -0.61156,-0.18664 -1.57815,-0.10213 -2.14799,0.18793 -0.56984,0.29002 -0.0696,0.44278 1.11189,0.33945 1.18138,-0.10336 1.64762,-0.34067 1.03608,-0.52735 z m 50.6913,-5.0458 c 0.27347,-0.95415 -0.46911,-1.04951 -3.46133,-0.44449 -2.30916,0.4669 -4.67317,0.40182 -6.00264,-0.16768 -2.73457,-1.16948 -3.88294,-0.0628 -1.49182,1.43772 2.31736,1.4542 10.47862,0.83927 10.95578,-0.82566 z m 4.32954,-0.4932 c 0.23254,-0.81142 -0.11076,-1.28895 -0.88,-1.22165 -0.69399,0.0607 -1.2111,0.69033 -1.14907,1.39918 0.062,0.70882 0.45803,1.25856 0.88002,1.22163 0.42199,-0.037 0.93906,-0.66654 1.14905,-1.39916 z m -318.72919,25.61255 c -0.42455,-1.45089 -0.85569,-3.59549 -0.95806,-4.76577 l -0.18616,-2.12781 -3.4534,2.58419 c -1.89938,1.42134 -4.57415,3.13341 -5.94393,3.80462 -2.48538,1.21788 -2.47874,1.22243 3.22281,2.20185 8.15917,1.4016 8.22122,1.38719 7.31874,-1.69708 z M 749.42785,195.8406 c -1.08117,-0.11176 -2.82102,0.0404 -3.86634,0.33826 -1.04533,0.29781 -0.16073,0.38926 1.96573,0.2032 2.12649,-0.18605 2.98176,-0.4298 1.90062,-0.54147 z m -492.50467,41.53779 c 9.71957,-2.89106 9.96686,-3.00013 9.84928,-4.34387 -0.0612,-0.69983 0.26317,-1.30519 0.7209,-1.34523 0.45772,-0.0401 0.59259,-0.56426 0.29973,-1.16493 -0.2929,-0.60069 -0.28061,-2.01306 0.0273,-3.1386 0.51572,-1.8849 0.7095,-1.73833 2.4557,1.85749 l 1.89582,3.9039 4.36113,-0.98983 c 7.9018,-1.79346 8.42228,-2.28145 7.35424,-6.89552 -1.1961,-5.16735 -1.9085,-6.9605 -2.73654,-6.88806 -0.9132,0.0799 -9.17118,3.81711 -11.87747,5.37523 -1.21179,0.69768 -2.36114,2.25529 -2.55409,3.46139 -0.33603,2.10036 -0.40936,2.12958 -1.7381,0.69275 -1.34916,-1.45892 -1.42471,-1.44747 -2.7513,0.41713 -0.75023,1.0545 -1.81702,1.80907 -2.37068,1.67681 -0.55362,-0.13226 -1.22257,0.18867 -1.48653,0.71298 -0.26394,0.5244 -0.0477,0.91565 0.4807,0.86942 0.52834,-0.0462 0.73358,0.36699 0.45609,0.91828 -0.35298,0.7013 -0.74672,0.67757 -1.31104,-0.0791 -0.63069,-0.84561 -1.2432,-0.59281 -2.80929,1.15949 -1.1015,1.23248 -3.39818,3.04744 -5.10374,4.03325 -4.07165,2.35339 -1.571,2.26817 6.83787,-0.23302 z m 532.10983,-51.53435 c -0.31673,-3.65467 -0.12644,-7.22465 0.46009,-8.63708 1.1467,-2.76121 0.33611,-3.33682 -4.1468,-2.94461 l -2.50727,0.21935 0.74646,8.53211 c 0.80428,9.19289 0.41985,8.54416 5.33257,8.99917 0.36002,0.0334 0.41177,-2.74267 0.11495,-6.16894 z m -454.57958,42.36784 c -0.29003,-0.56982 -0.44277,-0.0696 -0.33936,1.11193 0.10337,1.18138 0.34066,1.6476 0.52732,1.03606 0.18664,-0.61156 0.10213,-1.57813 -0.18792,-2.14797 z m -55.89258,5.97219 c 0.25069,-0.49811 0.0692,-0.8718 -0.40337,-0.83047 -0.47255,0.0414 -1.0643,0.4827 -1.31501,0.98081 -0.25072,0.49811 -0.0693,0.8718 0.40335,0.83047 0.47256,-0.0414 1.06431,-0.4827 1.31503,-0.98081 z m 498.73791,-51.64224 c -0.26778,-4.61921 -0.8107,-8.37025 -1.20609,-8.33566 -0.67322,0.0589 -1.889,2.61232 -5.86699,12.32186 -0.89713,2.18972 -1.35442,4.35234 -1.01619,4.80578 0.3382,0.45348 2.40624,0.55044 4.5956,0.21554 l 3.98066,-0.60891 z m -491.27309,50.37815 c -1.08118,-0.11177 -2.82102,0.0404 -3.86635,0.33826 -1.04533,0.2978 -0.16071,0.38925 1.96575,0.2032 2.12649,-0.18605 2.98174,-0.42979 1.90059,-0.54147 z m 221.25529,-19.36436 c -1.30821,-0.0831 -3.62837,0.11592 -5.1559,0.44205 -1.52753,0.3263 -0.45717,0.3943 2.37855,0.15108 2.83575,-0.24308 4.08553,-0.51014 2.77733,-0.59332 z m 15.01901,-1.32965 c -2.02417,-0.005 -5.31056,0.28235 -7.30308,0.63894 -1.99254,0.35658 -0.3364,0.36084 3.68032,0.009 4.01669,-0.3514 5.64695,-0.64309 3.62276,-0.64835 z m 257.15949,-23.75848 c -0.33424,-0.66141 -0.52002,-0.44001 -0.47368,0.5645 0.0419,0.90899 0.28937,1.39867 0.54992,1.08821 0.26054,-0.31048 0.22627,-1.05419 -0.0763,-1.6527 z m -489.76737,41.38195 c 3.09772,-8.26847 4.32679,-10.46556 6.08666,-10.88041 1.89693,-0.44714 1.87897,-0.49136 -0.61911,-1.52458 -2.67399,-1.10596 -9.33745,-0.14515 -10.14696,1.46306 -0.22333,0.44379 0.19872,2.55013 0.93791,4.68077 1.01122,2.91475 1.14729,4.42955 0.54921,6.11804 -0.74143,2.09424 -0.66831,2.19241 1.09516,1.4701 1.0393,-0.42566 1.98286,-1.02282 2.09682,-1.32696 z m 176.70992,-18.80856 c -0.44561,-2.92199 -0.97974,-4.02665 -1.90769,-3.94546 -0.92794,0.0812 -1.26214,1.2618 -1.19365,4.21678 0.0854,3.68232 0.28154,4.08775 1.90772,3.94547 1.62625,-0.14226 1.74892,-0.57559 1.19356,-4.21681 z m -9.58847,0.46012 c -0.33423,-0.66141 -0.52001,-0.44 -0.47367,0.56453 0.0419,0.90898 0.28936,1.39866 0.54992,1.08819 0.26052,-0.3105 0.22616,-1.05421 -0.0763,-1.6527 z M 653.4601,194.87454 c 2.77541,-0.93267 9.00868,-2.04852 13.85169,-2.47966 l 8.80545,-0.78433 -0.45102,-5.15514 c -0.30987,-3.54189 -0.78758,-5.13124 -1.52653,-5.07881 -0.5916,0.0413 -8.08238,0.14309 -16.64629,0.22472 -16.46124,0.15692 -25.76676,1.08883 -39.20691,3.92654 l -8.2309,1.73786 8.57478,2.19268 c 4.71614,1.20601 10.56161,2.55454 12.98993,2.99678 2.42832,0.44223 7.00579,1.55272 10.17217,2.46775 6.90553,1.99548 5.56754,2.00108 11.66758,-0.0488 z m 115.61219,-9.52025 c -0.0344,-0.39379 -0.62559,-0.66674 -1.31364,-0.60654 -0.68804,0.0602 -1.02366,0.41423 -0.74584,0.78673 0.27784,0.3725 0.86897,0.64544 1.31363,0.60654 0.44466,-0.0389 0.78029,-0.39293 0.74585,-0.78673 z m 26.94155,-4.44934 c 0.79463,-1.14091 0.93673,-1.54294 0.31578,-0.89339 -1.53671,1.60738 -2.77051,1.60647 -2.30956,-0.002 0.31623,-1.10328 0.11729,-1.1226 -1.21634,-0.11816 -1.97129,1.48466 -1.95687,2.30076 0.0467,2.64126 0.84586,0.14377 1.5786,0.303 1.62831,0.3539 0.0497,0.051 0.74051,-0.84097 1.53516,-1.98186 z M 315.9465,220.49413 c 1.64007,-1.07141 1.8397,-4.03328 0.39899,-5.9196 -0.60324,-0.78985 -1.88598,-0.82612 -4.7602,-0.13455 -3.74384,0.90077 -3.92271,1.08065 -3.69241,3.71304 0.13312,1.52152 0.52235,3.00161 0.86494,3.28906 0.95398,0.80048 5.41211,0.2126 7.18868,-0.94795 z m 11.49486,-1.88958 c 0.45424,-0.43496 1.59894,-2.49992 2.54373,-4.58882 l 1.71787,-3.798 -2.01536,0.73273 c -1.10844,0.403 -4.04469,0.91562 -6.52504,1.13911 l -4.50965,0.40669 0.38244,4.37145 0.38245,4.37145 3.59884,-0.92172 c 1.97937,-0.50697 3.97052,-1.27761 4.42475,-1.71257 z m 372.84064,-37.76531 -0.45102,-5.15512 -7.7461,0.52307 c -4.26034,0.2877 -8.60553,0.57045 -9.65593,0.62833 -1.75908,0.097 -1.85944,0.44247 -1.2717,4.37823 0.35101,2.35012 1.08009,4.72129 1.62026,5.26926 0.6646,0.67417 3.72595,0.75623 9.46879,0.2538 l 8.48666,-0.74249 z m 100.86803,-7.22715 c -0.37896,-0.31477 -2.3337,-0.79213 -4.34386,-1.06081 -3.6328,-0.48554 -3.64816,-0.47666 -2.54599,1.47176 0.60986,1.07811 1.82004,1.898 2.68929,1.82195 0.86924,-0.0761 1.61395,0.24456 1.65489,0.71249 0.041,0.46794 0.7855,0.12534 1.65457,-0.76116 0.86906,-0.88655 1.27006,-1.86948 0.8911,-2.18423 z m -495.36354,45.20408 c 0.2507,-0.49811 0.0463,-0.86982 -0.45404,-0.82603 -0.50045,0.0438 -0.87608,0.46625 -0.83474,0.93879 0.0414,0.47256 0.24574,0.84427 0.45406,0.82604 0.20841,-0.0183 0.584,-0.44068 0.83472,-0.9388 z M 678.35996,179.727 c -0.29582,-2.59305 -0.77738,-4.69368 -1.07027,-4.66805 -0.29287,0.0256 -0.37475,1.10415 -0.18188,2.39674 0.19289,1.2926 0.49353,3.40905 0.66815,4.70325 0.60036,4.44921 1.12138,2.27945 0.58402,-2.43194 z m -88.7526,10.16872 c -1.55246,-0.0562 -4.06559,0.16366 -5.5847,0.4886 -1.51913,0.32497 -0.24893,0.37097 2.82267,0.10224 3.07159,-0.26872 4.3145,-0.53453 2.76203,-0.59084 z m 16.32914,-1.37571 c -0.61154,-0.18664 -1.57813,-0.10214 -2.14798,0.18792 -0.56983,0.29002 -0.0696,0.44278 1.11193,0.33935 1.18138,-0.10336 1.6476,-0.34066 1.03607,-0.52733 z m -39.56781,2.52926 c -2.94843,0.0894 -7.97477,0.52794 -11.1696,0.97521 -3.19489,0.44651 -0.78252,0.3734 5.36082,-0.16256 6.14332,-0.53546 8.75729,-0.90128 5.80885,-0.81191 z m 193.67774,-17.38704 c -0.67925,-1.58649 -4.79438,-1.43238 -5.26139,0.19702 -0.31195,1.08848 0.24937,1.32368 2.65622,1.1131 2.05674,-0.17994 2.90615,-0.60711 2.60517,-1.31012 z m -445.50767,38.62541 c -0.6023,-0.18446 -1.76346,-0.0973 -2.58034,0.19372 -0.81691,0.29096 -0.32413,0.4419 1.09507,0.33536 1.41918,-0.1066 2.08755,-0.34458 1.48526,-0.52906 z m 211.33976,-18.533 c -1.08117,-0.11176 -2.82102,0.0404 -3.86634,0.33827 -1.04533,0.29781 -0.16072,0.38927 1.96574,0.2032 2.12648,-0.18605 2.98176,-0.4298 1.90061,-0.5415 z m 8.60384,-0.75073 c -1.07458,-0.11148 -3.0082,0.0524 -4.29698,0.36379 -1.28873,0.31176 -0.40952,0.40296 1.95381,0.20265 2.3632,-0.20173 3.41773,-0.45537 2.34315,-0.5668 z m -26.7018,1.5119 c -0.60226,-0.18448 -1.76342,-0.0974 -2.58035,0.19352 -0.81692,0.29097 -0.32413,0.44191 1.09507,0.33536 1.41919,-0.1066 2.08757,-0.34458 1.48527,-0.52906 z m 103.53797,-10.63885 3.83292,-1.35644 -8.21187,0.14731 c -28.0976,0.50401 -60.76338,2.79226 -85.9616,6.02163 -14.40992,1.84677 -26.29609,3.46984 -26.41371,3.60687 -0.46132,0.53739 17.79544,-0.21649 40.34785,-1.66608 13.02145,-0.83696 32.97647,-2.08312 44.34451,-2.76925 21.92941,-1.32359 25.95921,-1.82432 32.0619,-3.98404 z M 327.2594,209.43792 c -0.61156,-0.18664 -1.57813,-0.10214 -2.14797,0.18791 -0.56983,0.29004 -0.0693,0.44278 1.1119,0.33945 1.18137,-0.10336 1.6476,-0.34066 1.03605,-0.52734 z m 462.2535,-46.86864 c 1.12475,-3.94844 2.00077,-7.68411 1.94679,-8.30147 -0.054,-0.61737 1.34843,-6.26122 3.11657,-12.54189 1.76809,-6.28066 3.38089,-12.70075 3.58392,-14.2669 0.34557,-2.66509 0.19659,-2.8666 -2.32459,-3.14539 -2.86946,-0.3173 -3.74714,-2.05612 -1.57294,-3.11625 0.72133,-0.35172 2.22483,-0.49337 3.34112,-0.3148 1.86722,0.29873 2.22163,-0.33854 4.42906,-7.96369 1.31973,-4.55861 2.89245,-10.96129 3.49503,-14.228154 l 1.09562,-5.939742 -11.01592,0.963767 c -12.23921,1.070793 -11.03844,0.522151 -21.1621,9.669009 -2.64319,2.38816 -6.25864,5.5484 -8.03432,7.02277 -5.59012,4.64153 -10.45318,8.83345 -15.36217,13.24215 -2.61258,2.3463 -6.84266,5.95361 -9.40018,8.01629 -2.55751,2.06265 -4.62441,4.04292 -4.5931,4.40061 0.0312,0.35766 -0.99749,1.19919 -2.28616,1.87002 -1.28867,0.67084 -4.46552,3.32371 -7.05967,5.89528 -2.59414,2.57153 -5.01681,4.71171 -5.38373,4.75589 -0.36691,0.0443 -2.9114,2.13178 -5.65448,4.63905 -2.74303,2.50728 -6.62927,5.83032 -8.63607,7.38453 -2.00679,1.55422 -4.70871,4.06909 -6.00428,5.58861 -1.29555,1.51953 -3.38539,3.23774 -4.64407,3.81828 -1.25867,0.58055 -2.26434,1.33159 -2.23483,1.66897 0.0295,0.33738 10.82624,0.17178 23.99273,-0.368 13.16648,-0.53978 32.31211,-1.018 42.54583,-1.06274 10.23374,-0.0447 20.22008,-0.17714 22.19187,-0.29426 l 3.58507,-0.21299 2.04498,-7.179 z m -167.21166,20.24038 c -0.31047,-0.26053 -1.05418,-0.22626 -1.65269,0.0763 -0.66141,0.33422 -0.44002,0.52 0.56449,0.47367 0.90902,-0.0419 1.3987,-0.28937 1.0882,-0.54992 z m -247.59602,19.93038 c -0.31047,-0.26052 -1.0542,-0.22625 -1.6527,0.0763 -0.6614,0.33425 -0.44001,0.52003 0.56451,0.47371 0.90898,-0.0419 1.39867,-0.28938 1.0882,-0.54994 z m 264.83237,-23.51253 c -0.0445,-0.50823 -2.9683,-0.58121 -7.15819,-0.17863 -4.75539,0.45699 -6.49707,0.87376 -5.30002,1.26859 2.52071,0.8314 12.54954,-0.046 12.45821,-1.08996 z m 22.99509,-1.66912 c -0.31049,-0.26051 -1.05419,-0.22625 -1.6527,0.0763 -0.6614,0.33423 -0.44002,0.52001 0.5645,0.47368 0.90899,-0.0419 1.39869,-0.28938 1.08821,-0.54993 z m -269.4166,22.6546 c -0.61156,-0.18664 -1.57814,-0.10212 -2.14798,0.18793 -0.56982,0.29001 -0.0696,0.44275 1.11189,0.33943 1.18139,-0.10335 1.64762,-0.34064 1.03607,-0.5273 z m 89.46882,-7.97552 c 0.20896,-0.41509 -0.166,-0.70695 -0.83333,-0.64857 -0.66725,0.0584 -0.98588,0.41091 -0.70802,0.78342 0.27781,0.37251 0.65281,0.66434 0.83331,0.64855 0.18051,-0.0158 0.49912,-0.36832 0.70804,-0.7834 z m 160.9705,-13.88471 c -0.31047,-0.26052 -1.05418,-0.22625 -1.65271,0.0763 -0.6614,0.33423 -0.43999,0.52001 0.56451,0.47368 0.90898,-0.0419 1.39868,-0.28937 1.08821,-0.54993 z m -229.87721,19.201 c -0.60227,-0.18447 -1.76342,-0.0973 -2.58033,0.19373 -0.81691,0.29097 -0.32412,0.4419 1.09507,0.33535 1.41919,-0.1066 2.08755,-0.34459 1.48529,-0.52904 z m 202.30807,-17.65469 c -0.31048,-0.26051 -1.05418,-0.22626 -1.65271,0.0763 -0.66138,0.33424 -0.44,0.52002 0.56451,0.47367 0.909,-0.0419 1.3987,-0.28936 1.08821,-0.5499 z m 75.81136,-6.97537 c -0.0942,-1.07648 -1.006,-0.99671 -2.57756,0.22552 -0.98324,0.76466 -0.84578,0.91576 0.71839,0.78965 1.06386,-0.0861 1.9005,-0.54262 1.85917,-1.01517 z m -248.12307,21.13999 c -0.60227,-0.18447 -1.76343,-0.0973 -2.58034,0.19373 -0.81689,0.29097 -0.3241,0.44189 1.09508,0.33535 1.41919,-0.10659 2.08755,-0.34458 1.48527,-0.52903 z m 22.32205,-1.95794 c -0.61153,-0.18664 -1.5781,-0.10214 -2.14795,0.18791 -0.56984,0.29001 -0.0694,0.44276 1.11189,0.33944 1.18138,-0.10336 1.64761,-0.34065 1.03607,-0.52731 z m 28.77871,-2.56449 c -1.31674,-0.0832 -3.44323,0.10287 -4.7255,0.41344 -1.28232,0.31055 -0.20498,0.3786 2.39406,0.15123 2.59904,-0.2274 3.64818,-0.48149 2.33144,-0.56466 z m 96.24108,-8.39481 c -0.84028,-0.14318 -2.38746,-0.0157 -3.43824,0.28344 -1.05078,0.299 -0.36329,0.41614 1.52777,0.26031 1.8911,-0.15501 2.75077,-0.40052 1.9105,-0.54366 z m 64.42879,-5.6388 c -0.84587,-0.14377 -2.19908,-0.0254 -3.00714,0.26309 -0.80806,0.28847 -0.11603,0.40606 1.53795,0.26139 1.65395,-0.14469 2.31507,-0.3807 1.46919,-0.52448 z m -134.5358,10.92801 c -0.61154,-0.18662 -1.57812,-0.10213 -2.14797,0.18794 -0.56983,0.29003 -0.0696,0.44278 1.11189,0.33943 1.18139,-0.10334 1.64762,-0.34065 1.03607,-0.52734 z m 45.11546,-3.96848 c -0.84029,-0.14317 -2.38751,-0.0157 -3.43826,0.28345 -1.05077,0.29901 -0.36328,0.41615 1.52776,0.26033 1.89112,-0.15501 2.75077,-0.40052 1.91052,-0.54368 z m 226.97795,-27.21733 c -0.33425,-0.6614 -0.52003,-0.44 -0.47367,0.56451 0.0419,0.90898 0.28936,1.39868 0.5499,1.08821 0.26052,-0.3105 0.22627,-1.05418 -0.0763,-1.65271 z m -89.16621,5.582 c 0.9495,-1.45623 0.91646,-1.48394 -0.35276,-0.29601 -1.333,1.24763 -1.72639,1.99301 -1.01926,1.93113 0.17843,-0.0156 0.79583,-0.7514 1.37202,-1.63512 z m 7.58286,-6.07442 c 0.77263,-1.01994 1.21146,-1.83751 0.97521,-1.81684 -0.2363,0.0207 -1.06174,0.87206 -1.83439,1.89199 -0.77263,1.01992 -1.21145,1.83753 -0.97516,1.81686 0.23627,-0.0207 1.06172,-0.8721 1.83434,-1.89201 z m 3.69407,-3.56981 c 0.94949,-1.45623 0.91644,-1.48395 -0.35277,-0.29601 -0.77023,0.7209 -1.38765,1.45671 -1.37204,1.63511 0.0619,0.70714 0.7276,0.1903 1.72481,-1.3391 z m 87.47017,-23.15287 c 0.57032,-1.78961 0.84588,-3.41417 0.61223,-3.6102 -0.35546,-0.29828 -2.60144,5.60988 -2.51373,6.6125 0.10519,1.20232 1.02372,-0.24802 1.9015,-3.0023 z m -68.12756,6.74264 c 0.94947,-1.45622 0.91644,-1.48395 -0.35279,-0.29601 -0.77021,0.72091 -1.38763,1.4567 -1.37202,1.63511 0.0619,0.70715 0.72761,0.19031 1.72481,-1.3391 z m 7.10438,-6.59548 c -0.0544,-0.62151 -3.19062,1.6686 -3.71685,2.71407 -0.27536,0.54711 0.45539,0.24147 1.62389,-0.67917 1.1685,-0.92065 2.11033,-1.83636 2.09296,-2.0349 z m 11.27923,-9.61786 c -0.0769,-0.87925 -4.70952,2.7183 -6.48547,5.03645 -1.62248,2.11784 -1.24554,1.94237 2.28769,-1.06486 2.32663,-1.98029 4.21564,-3.76749 4.19778,-3.97159 z m 53.4798,-5.44118 0.28604,-2.62232 -0.9729,2.77802 c -0.53507,1.5279 -1.09143,3.91413 -1.23627,5.30274 l -0.26335,2.52472 0.95025,-2.68042 c 0.52264,-1.47422 1.07893,-3.86048 1.23628,-5.30274 z m -45.01312,-1.68933 c 2.01163,-2.0741 4.46819,-4.28912 5.45899,-4.92227 0.99086,-0.63314 3.96405,-3.15169 6.60717,-5.59673 6.13027,-5.670962 10.31512,-8.754359 12.09267,-8.909874 0.77118,-0.06747 1.35418,-0.671008 1.29554,-1.341188 -0.0586,-0.67018 0.0923,-1.912485 0.33539,-2.760686 0.40386,-1.409071 0.2149,-1.379951 -2.18963,0.337141 -1.44741,1.033654 -3.71101,3.135518 -5.03026,4.670801 -1.31923,1.53529 -3.95443,4.103416 -5.85604,5.706913 -7.54708,6.364063 -14.47262,12.678073 -17.15949,15.644343 -3.92501,4.33314 -0.20442,1.96593 4.44564,-2.82852 z M 810.7985,97.641335 c 0.68052,-2.644805 1.06336,-4.954662 0.85083,-5.133017 -0.91422,-0.76711 -3.16724,7.065721 -4.79549,16.671862 -0.40708,2.4016 2.68529,-6.64407 3.94466,-11.538845 z m -8.23081,-6.901098 c -2.02417,-0.0052 -5.31058,0.282352 -7.30309,0.638938 -1.99253,0.356597 -0.33637,0.36084 3.68032,0.0094 4.01669,-0.351415 5.64692,-0.64327 3.62277,-0.648363 z m 5.82698,-3.771808 c 0.54923,-1.916049 -14.83243,-0.595082 -17.11781,1.47011 -1.40136,1.266346 -0.64088,1.329937 7.5893,0.634675 7.35533,-0.621424 9.22149,-1.03359 9.52851,-2.104755 z"
     id="path5961"
     inkscape:connector-curvature="0" />
  <path
     style="fill:none;fill-rule:evenodd;stroke:#000000;stroke-width:2;stroke-linecap:butt;stroke-linejoin:miter;stroke-miterlimit:4;stroke-dasharray:none;stroke-opacity:1;marker-end:url(#Arrow1Lend)"
     d="M 317.39667,32.494601 86.168406,94.452027"
     id="path6036"
     inkscape:connector-curvature="0" />
  <text
     xml:space="preserve"
     style="font-style:italic;font-weight:normal;font-size:10px;line-height:125%;font-family:Sans;-inkscape-font-specification:'Sans Italic';letter-spacing:0px;word-spacing:0px;fill:#000000;fill-opacity:1;stroke:none;stroke-width:1px;stroke-linecap:butt;stroke-linejoin:miter;stroke-opacity:1"
     x="159.90677"
     y="75.691368"
     id="text6334"
     transform="rotate(-10)"><tspan
       sodipodi:role="line"
       id="tspan6332"
       x="159.90677"
       y="75.691368">$V_{a/c}$</tspan></text>
  <path
     style="fill:none;fill-rule:evenodd;stroke:#000000;stroke-width:2;stroke-linecap:butt;stroke-linejoin:miter;stroke-miterlimit:4;stroke-dasharray:none;stroke-opacity:1;marker-start:url(#Arrow1Lstart)"
     d="m 469.8805,89.17746 44.48351,128.87259"
     id="path6336"
     inkscape:connector-curvature="0"
     sodipodi:nodetypes="cc" />
  <path
     style="fill:none;fill-rule:evenodd;stroke:#000000;stroke-width:2;stroke-linecap:butt;stroke-linejoin:miter;stroke-miterlimit:4;stroke-dasharray:none;stroke-opacity:1;marker-start:url(#marker6466);marker-end:url(#marker6426)"
     d="M 123.94154,360.34716 901.36329,77.388764"
     id="path6422"
     inkscape:connector-curvature="0" />
  <text
     xml:space="preserve"
     style="font-style:italic;font-weight:normal;font-size:10px;line-height:125%;font-family:Sans;-inkscape-font-specification:'Sans Italic';letter-spacing:0px;word-spacing:0px;fill:#000000;fill-opacity:1;stroke:none;stroke-width:1px;stroke-linecap:butt;stroke-linejoin:miter;stroke-opacity:1"
     x="489.94528"
     y="68.961327"
     id="text6782"><tspan
       sodipodi:role="line"
       id="tspan6780"
       x="489.94528"
       y="68.961327"
       style="font-size:21.33333397px">L</tspan></text>
  <text
     id="text6786"
     y="377.25989"
     x="509.11685"
     style="font-style:italic;font-weight:normal;font-size:10px;line-height:125%;font-family:Sans;-inkscape-font-specification:'Sans Italic';letter-spacing:0px;word-spacing:0px;fill:#000000;fill-opacity:1;stroke:none;stroke-width:1px;stroke-linecap:butt;stroke-linejoin:miter;stroke-opacity:1"
     xml:space="preserve"><tspan
       style="font-size:21.33333397px"
       y="377.25989"
       x="509.11685"
       id="tspan6784"
       sodipodi:role="line">W</tspan></text>
  <text
     id="text6794"
     y="154.76746"
     x="932.2804"
     style="font-style:italic;font-weight:normal;font-size:10px;line-height:125%;font-family:Sans;-inkscape-font-specification:'Sans Italic';letter-spacing:0px;word-spacing:0px;fill:#000000;fill-opacity:1;stroke:none;stroke-width:1px;stroke-linecap:butt;stroke-linejoin:miter;stroke-opacity:1"
     xml:space="preserve"><tspan
       style="font-size:21.33333397px"
       y="154.76746"
       x="932.2804"
       id="tspan6792"
       sodipodi:role="line">D</tspan></text>
  <text
     xml:space="preserve"
     style="font-style:italic;font-weight:normal;font-size:10px;line-height:125%;font-family:Sans;-inkscape-font-specification:'Sans Italic';letter-spacing:0px;word-spacing:0px;fill:#000000;fill-opacity:1;stroke:none;stroke-width:1px;stroke-linecap:butt;stroke-linejoin:miter;stroke-opacity:1"
     x="210.61012"
     y="360.88016"
     id="text6798"><tspan
       sodipodi:role="line"
       id="tspan6796"
       x="210.61012"
       y="360.88016"
       style="font-size:21.3333px">$V_f$</tspan></text>
  <path
     style="fill:none;fill-rule:evenodd;stroke:#000000;stroke-width:1px;stroke-linecap:butt;stroke-linejoin:miter;stroke-opacity:1;marker-end:url(#marker1568)"
     d="M 514.53306,221.17648 V 346.85429"
     id="path1528"
     inkscape:connector-curvature="0" />
  <path
     style="fill:none;fill-rule:evenodd;stroke:#000000;stroke-width:1;stroke-linecap:butt;stroke-linejoin:miter;stroke-miterlimit:4;stroke-dasharray:1, 1;stroke-dashoffset:0;stroke-opacity:1"
     d="M 116,86.999999 H 268"
     id="path1636"
     inkscape:connector-curvature="0" />
  <text
     id="text1640"
     y="79.961327"
     x="269.94528"
     style="font-style:italic;font-weight:normal;font-size:10px;line-height:125%;font-family:Sans;-inkscape-font-specification:'Sans Italic';letter-spacing:0px;word-spacing:0px;fill:#000000;fill-opacity:1;stroke:none;stroke-width:1px;stroke-linecap:butt;stroke-linejoin:miter;stroke-opacity:1"
     xml:space="preserve"><tspan
       style="font-size:21.33333397px"
       y="79.961327"
       x="269.94528"
       id="tspan1638"
       sodipodi:role="line">$\theta$</tspan></text>
  <path
     inkscape:connector-curvature="0"
     id="path92"
     d="M 100.56903,254.9206 924.7358,182.81533"
     style="fill:none;fill-rule:evenodd;stroke:#000000;stroke-width:2;stroke-linecap:butt;stroke-linejoin:miter;stroke-miterlimit:4;stroke-dasharray:2,6;stroke-opacity:1;stroke-dashoffset:0" />
  <path
     style="fill:none;fill-rule:evenodd;stroke:#000000;stroke-width:2;stroke-linecap:butt;stroke-linejoin:miter;stroke-miterlimit:4;stroke-dasharray:2, 6;stroke-dashoffset:0;stroke-opacity:1"
     d="m 98.999766,218.87199 827.314954,-2e-5"
     id="path932"
     inkscape:connector-curvature="0" />
</svg>
