<?xml version="1.0" encoding="UTF-8" standalone="no"?>
<svg
   xmlns:dc="http://purl.org/dc/elements/1.1/"
   xmlns:cc="http://creativecommons.org/ns#"
   xmlns:rdf="http://www.w3.org/1999/02/22-rdf-syntax-ns#"
   xmlns:svg="http://www.w3.org/2000/svg"
   xmlns="http://www.w3.org/2000/svg"
   xmlns:sodipodi="http://sodipodi.sourceforge.net/DTD/sodipodi-0.dtd"
   xmlns:inkscape="http://www.inkscape.org/namespaces/inkscape"
   inkscape:version="1.0 (4035a4f, 2020-05-01)"
   sodipodi:docname="GlideForces.svg"
   viewBox="0 0 1000 431"
   height="431"
   width="1000"
   id="svg5408"
   version="1.1">
  <metadata
     id="metadata5414">
    <rdf:RDF>
      <cc:Work
         rdf:about="">
        <dc:format>image/svg+xml</dc:format>
        <dc:type
           rdf:resource="http://purl.org/dc/dcmitype/StillImage" />
        <dc:title />
      </cc:Work>
    </rdf:RDF>
  </metadata>
  <defs
     id="defs5412">
    <marker
       inkscape:stockid="Arrow1Lend"
       orient="auto"
       refY="0.0"
       refX="0.0"
       id="marker1568"
       style="overflow:visible;"
       inkscape:isstock="true">
      <path
         id="path1566"
         d="M 0.0,0.0 L 5.0,-5.0 L -12.5,0.0 L 5.0,5.0 L 0.0,0.0 z "
         style="fill-rule:evenodd;stroke:#000000;stroke-width:1pt;stroke-opacity:1;fill:#000000;fill-opacity:1"
         transform="scale(0.8) rotate(180) translate(12.5,0)" />
    </marker>
    <marker
       inkscape:isstock="true"
       style="overflow:visible"
       id="marker6466"
       refX="0.0"
       refY="0.0"
       orient="auto"
       inkscape:stockid="Arrow1Lstart">
      <path
         transform="scale(0.8) translate(12.5,0)"
         style="fill-rule:evenodd;stroke:#000000;stroke-width:1pt;stroke-opacity:1;fill:#000000;fill-opacity:1"
         d="M 0.0,0.0 L 5.0,-5.0 L -12.5,0.0 L 5.0,5.0 L 0.0,0.0 z "
         id="path6464" />
    </marker>
    <marker
       inkscape:collect="always"
       inkscape:isstock="true"
       style="overflow:visible;"
       id="marker6426"
       refX="0.0"
       refY="0.0"
       orient="auto"
       inkscape:stockid="Arrow1Lend">
      <path
         transform="scale(0.8) rotate(180) translate(12.5,0)"
         style="fill-rule:evenodd;stroke:#000000;stroke-width:1pt;stroke-opacity:1;fill:#000000;fill-opacity:1"
         d="M 0.0,0.0 L 5.0,-5.0 L -12.5,0.0 L 5.0,5.0 L 0.0,0.0 z "
         id="path6424" />
    </marker>
    <marker
       inkscape:isstock="true"
       style="overflow:visible"
       id="Arrow1Lstart"
       refX="0.0"
       refY="0.0"
       orient="auto"
       inkscape:stockid="Arrow1Lstart">
      <path
         transform="scale(0.8) translate(12.5,0)"
         style="fill-rule:evenodd;stroke:#000000;stroke-width:1pt;stroke-opacity:1;fill:#000000;fill-opacity:1"
         d="M 0.0,0.0 L 5.0,-5.0 L -12.5,0.0 L 5.0,5.0 L 0.0,0.0 z "
         id="path6038" />
    </marker>
    <marker
       inkscape:stockid="Arrow1Lend"
       orient="auto"
       refY="0.0"
       refX="0.0"
       id="marker6346"
       style="overflow:visible;"
       inkscape:isstock="true">
      <path
         id="path6344"
         d="M 0.0,0.0 L 5.0,-5.0 L -12.5,0.0 L 5.0,5.0 L 0.0,0.0 z "
         style="fill-rule:evenodd;stroke:#000000;stroke-width:1pt;stroke-opacity:1;fill:#000000;fill-opacity:1"
         transform="scale(0.8) rotate(180) translate(12.5,0)" />
    </marker>
    <marker
       inkscape:collect="always"
       inkscape:isstock="true"
       style="overflow:visible;"
       id="Arrow1Lend"
       refX="0.0"
       refY="0.0"
       orient="auto"
       inkscape:stockid="Arrow1Lend">
      <path
         transform="scale(0.8) rotate(180) translate(12.5,0)"
         style="fill-rule:evenodd;stroke:#000000;stroke-width:1pt;stroke-opacity:1;fill:#000000;fill-opacity:1"
         d="M 0.0,0.0 L 5.0,-5.0 L -12.5,0.0 L 5.0,5.0 L 0.0,0.0 z "
         id="path6041" />
    </marker>
  </defs>
  <sodipodi:namedview
     inkscape:document-rotation="0"
     inkscape:current-layer="svg5408"
     inkscape:window-maximized="1"
     inkscape:window-y="23"
     inkscape:window-x="0"
     inkscape:cy="284.817"
     inkscape:cx="422.94955"
     inkscape:zoom="1"
     showgrid="false"
     id="namedview5410"
     inkscape:window-height="1155"
     inkscape:window-width="1920"
     inkscape:pageshadow="2"
     inkscape:pageopacity="0"
     guidetolerance="10"
     gridtolerance="10"
     objecttolerance="10"
     borderopacity="1"
     bordercolor="#666666"
     pagecolor="#ffffff" />
  <path
     inkscape:connector-curvature="0"
     id="path5961"
     d="m 259.86111,291.86455 c -0.66308,-0.844 -1.33303,-2.25721 -1.48877,-3.14047 -0.25816,-1.4641 -1.48047,-1.48714 -13.83951,-0.26118 -7.45597,0.73961 -17.10241,1.34919 -21.43653,1.35461 -5.40265,0.007 -12.50024,0.86354 -22.57491,2.72514 l -14.69469,2.71526 -0.0674,-2.00029 c -0.065,-1.93044 0.35692,-2.10824 12.08609,-5.09247 12.76375,-3.24744 16.98969,-5.13859 27.19269,-12.16896 3.55728,-2.45115 11.77561,-7.32854 12.62343,-7.49172 1.43172,-0.27551 13.57201,-8.04274 15.70398,-10.04718 1.05474,-0.99165 2.25844,-1.86308 2.67486,-1.93651 0.41639,-0.0734 2.24309,-1.74746 4.05934,-3.7201 6.8731,-7.46499 18.02035,-14.99445 28.0438,-18.94232 10.17469,-4.00745 87.08121,-22.19599 139.10395,-32.89836 39.10646,-8.04517 130.88263,-24.57803 180.59899,-32.53369 30.16406,-4.82689 40.72124,-6.78776 43.49152,-8.07803 2.96297,-1.38 4.04343,-1.54839 5.68438,-0.88587 1.36116,0.54954 6.30026,0.20786 15.04984,-1.04113 14.70365,-2.09889 14.14411,-1.81506 23.06981,-11.70206 2.34347,-2.59589 5.36705,-5.70304 6.71902,-6.90477 1.35195,-1.20174 3.91295,-3.85252 5.69112,-5.89062 1.77816,-2.0381 4.29775,-4.64991 5.5991,-5.80403 3.28348,-2.912 16.78863,-17.3117 17.60074,-18.76658 0.36604,-0.65576 1.70622,-1.99546 2.97816,-2.97708 1.27193,-0.98161 4.04169,-3.89515 6.155,-6.474507 2.11331,-2.579372 4.3845,-4.785342 5.04709,-4.902175 0.66258,-0.11683 1.14269,-0.564055 1.06691,-0.993835 -0.0758,-0.42977 2.88924,-3.946568 6.58893,-7.815095 3.69971,-3.868528 7.31509,-7.873967 8.03423,-8.900995 0.71914,-1.027028 2.62496,-3.064558 4.23521,-4.527855 1.61022,-1.463313 4.01789,-4.088818 5.35038,-5.834472 1.33247,-1.745652 4.18521,-4.64937 6.33942,-6.45274 l 3.91673,-3.278828 12.31652,-1.509523 c 11.89414,-1.457753 12.3374,-1.44563 12.92491,0.353684 0.39144,1.198722 0.16837,1.94081 -0.62565,2.08082 -0.67873,0.119676 -1.29918,1.017272 -1.37877,1.99466 -0.10733,1.318124 0.27344,1.703338 1.47453,1.491555 2.82707,-0.498491 2.9129,4.999603 0.27139,17.386918 -1.3439,6.302303 -2.24356,12.802776 -1.99915,14.44556 0.24437,1.642772 0.0188,3.455992 -0.50128,4.029372 -1.01544,1.119507 -4.93538,18.340116 -4.60337,20.222986 0.10987,0.62318 -0.88923,6.13219 -2.22028,12.24227 -1.33101,6.11008 -2.30243,11.77611 -2.15873,12.59113 0.18362,1.04135 1.51837,1.60893 4.48987,1.9093 5.81713,0.58798 6.29915,2.38082 2.06408,7.67707 -2.39731,2.99804 -3.39155,5.17213 -3.52645,7.71138 -0.34522,6.4973 0.25085,7.95263 3.49974,8.54479 6.56114,1.1959 8.89154,2.00054 9.09234,3.13938 0.28412,1.61134 -1.48753,2.55959 -6.40075,3.42592 -2.25862,0.39825 -4.1682,1.13968 -4.24352,1.64761 -0.18791,1.26729 -7.38705,4.55247 -17.28453,7.88746 -14.66716,4.94218 -19.69991,7.05223 -23.03818,9.65908 -2.84625,2.22266 -4.03155,2.61253 -9.1054,2.99508 -3.54191,0.26704 -10.41303,1.77954 -17.4926,3.85052 -18.04432,5.27851 -46.32759,11.38584 -95.12168,20.54003 -24.59478,4.61418 -44.65993,8.7175 -44.58922,9.11849 0.0707,0.40099 -0.82699,0.89755 -1.99486,1.10347 -1.97715,0.34863 -2.17415,0.0867 -2.86,-3.80295 -1.26267,-7.16097 -0.61447,-6.96946 -15.00224,-4.43251 l -12.76072,2.25005 1.17731,3.07658 c 3.03395,7.92816 2.97896,7.57562 1.22988,7.88404 -0.90947,0.16035 -1.99081,0.0555 -2.40297,-0.23314 -1.29051,-0.90353 -152.64108,26.73526 -154.27427,28.17271 -1.14332,1.00629 -1.68882,0.99835 -2.78724,-0.0406 -1.92678,-1.82252 -13.14728,0.0794 -13.94416,2.36359 -0.36019,1.03243 -1.2211,1.49177 -2.64129,1.40928 -1.1588,-0.0673 -18.19839,2.49017 -37.86572,5.68324 -33.70134,5.47156 -75.15237,11.43391 -81.30615,11.69517 -2.64935,0.11249 -2.76306,0.26286 -2.48549,3.28771 0.22949,2.50073 -0.0906,3.2945 -1.51619,3.76053 -1.14073,0.3729 -2.25165,0.0249 -3.01268,-0.94379 z m 2.22164,-4.22451 c -0.50291,-0.9951 -1.37727,-2.12173 -1.94303,-2.50365 -0.70168,-0.47366 -0.76674,-0.23065 -0.20468,0.76456 0.45322,0.80241 0.91963,2.00098 1.03645,2.66349 0.11682,0.66252 0.62035,1.13266 1.11899,1.04473 0.54502,-0.0961 0.54191,-0.88145 -0.008,-1.96913 z m 68.80862,-13.42877 c -1.79467,0.12686 -4.46962,0.60171 -5.94435,1.05526 -1.47473,0.45349 -0.006,0.3497 3.26301,-0.23067 3.26953,-0.57956 4.47598,-0.95147 2.68135,-0.82457 z m 52.2804,-9.21925 c -2.0027,0.16945 -5.44301,0.77386 -7.64516,1.34296 -2.20212,0.56928 -0.56352,0.43065 3.64129,-0.30811 4.20471,-0.73937 6.00656,-1.20445 4.00383,-1.03508 z m 39.04338,-6.89497 c -3.41527,0.43591 -8.95738,1.41314 -12.31579,2.1716 -3.35842,0.75847 -0.56411,0.40173 6.20958,-0.79266 6.7737,-1.19438 9.52149,-1.81488 6.10621,-1.37894 z m 10.20441,-1.72904 c -0.62549,-0.13263 -1.58102,0.0358 -2.12342,0.37442 -0.54238,0.33859 -0.0305,0.44712 1.13726,0.24124 1.16787,-0.20593 1.61164,-0.48295 0.98615,-0.61562 z m -134.34408,22.77624 c -1.08022,-0.0174 -2.99221,0.31435 -4.24893,0.73692 -1.25666,0.42288 -0.37286,0.43714 1.96404,0.0316 2.33661,-0.40692 3.36503,-0.75152 2.28483,-0.76887 z m 261.37123,-46.12711 c -0.0638,-0.35003 -4.62741,0.0264 -10.14282,0.83673 -5.51541,0.81028 -13.51951,1.78742 -17.78689,2.17136 -4.49082,0.40404 -8.05915,1.08708 -8.47178,1.62169 -0.44111,0.57144 -0.18426,0.60789 0.67369,0.0956 0.76674,-0.45785 1.45582,-0.4355 1.54142,0.05 0.0851,0.48288 -0.48324,1.1707 -1.26309,1.52848 -0.77984,0.35779 6.90307,-0.77096 17.07317,-2.50835 10.17009,-1.73741 18.43942,-3.44535 18.3763,-3.79547 z m 63.01805,-11.10976 c -6.24296,0.95091 -16.18044,2.70369 -22.08335,3.89478 -5.9029,1.1911 -0.79501,0.41311 11.35082,-1.72905 12.14584,-2.14212 16.97548,-3.11671 10.73253,-2.16576 z m 20.03045,-3.50266 c -1.31048,0.0312 -3.60445,0.43171 -5.09776,0.88973 -1.49329,0.45824 -0.42106,0.43268 2.38267,-0.0568 2.80378,-0.48931 4.02553,-0.8643 2.71506,-0.83312 z m -300.16536,51.90606 c -0.32665,-0.36638 -4.70612,0.0725 -9.73218,0.97521 -8.9307,1.60417 -8.9913,1.62877 -2.66835,1.0836 10.26243,-0.88472 13.03664,-1.34531 12.40052,-2.05884 z m 338.22061,-59.39567 c -0.33201,-0.23245 -1.06991,-0.13341 -1.63976,0.22009 -0.62976,0.3906 -0.39301,0.55638 0.60364,0.42265 0.90188,-0.12095 1.36815,-0.41017 1.03613,-0.64266 z m -425.68191,74.18344 c -0.33202,-0.23246 -1.06991,-0.13342 -1.63976,0.22008 -0.62977,0.39061 -0.39302,0.55639 0.60364,0.42266 0.90186,-0.12094 1.36812,-0.41016 1.03614,-0.64268 z m 42.04344,-7.51769 c -1.55146,0.0793 -4.03585,0.51739 -5.52088,0.97349 -1.48501,0.45613 -0.21562,0.39125 2.82085,-0.14416 3.03649,-0.53542 4.25151,-0.90855 2.70003,-0.82933 z m 11.48286,-2.01762 c -1.31046,0.0312 -3.60444,0.4317 -5.09775,0.88973 -1.49326,0.45822 -0.42108,0.43265 2.38269,-0.0568 2.80376,-0.48931 4.02552,-0.86429 2.71503,-0.83311 z m 40.52676,-10.02341 c 1.94067,-0.34219 2.8551,-0.0322 3.39875,1.15225 0.88054,1.91841 1.95706,1.93118 2.32686,0.0276 0.37295,-1.91988 5.83973,-2.78827 6.86006,-1.08966 0.7093,1.18076 3.62608,0.7462 32.7322,-4.87641 17.57443,-3.39496 42.09577,-7.96975 54.49186,-10.16617 l 22.53836,-3.99352 -0.44534,-2.32985 c -0.41257,-2.15896 -0.86767,-2.35671 -6.20241,-2.69588 l -5.75707,-0.36604 -1.15458,-4.0646 -1.15459,-4.06457 -5.35208,-0.55257 c -2.94363,-0.30392 -7.65888,-0.78375 -10.47834,-1.06631 -4.34604,-0.43555 -5.17897,-0.81256 -5.47247,-2.47709 -0.32877,-1.86458 2.02781,-4.35582 4.64831,-4.91393 0.55848,-0.11888 3.37622,-2.31926 6.26167,-4.88961 l 5.24629,-4.67335 -1.11617,-5.1033 -1.11616,-5.10331 5.33483,-2.01428 c 3.21781,-1.21497 5.4383,-2.54702 5.59561,-3.35676 0.29759,-1.53163 0.86001,-1.64351 -71.43695,14.20962 -33.83859,7.42003 -42.67736,9.60128 -43.05347,10.62475 -0.265,0.72112 -1.85535,1.53721 -3.61397,1.8545 -2.94678,0.53189 -3.22384,0.86437 -4.48697,5.38899 l -1.34624,4.82234 -11.05334,4.32429 c -6.07932,2.37837 -11.7362,4.24272 -12.57084,4.14301 -0.97787,-0.11688 -1.93331,-1.42188 -2.68665,-3.66969 -1.16113,-3.46457 -1.19073,-3.48239 -4.33756,-2.6128 -2.91624,0.80588 -3.3246,1.33229 -5.13038,6.61372 -1.68096,4.91639 -2.37107,5.894 -4.81893,6.82661 -16.89378,6.43628 -19.7424,7.1452 -20.11943,5.00693 -0.0784,-0.44474 -0.45311,-0.53178 -0.83264,-0.19342 -1.38545,1.23516 -16.8666,7.03041 -19.41407,7.26752 -1.44205,0.13414 -3.80561,0.99814 -5.25237,1.91981 l -2.63046,1.6758 1.77203,6.90385 c 0.97461,3.79714 2.10066,7.45097 2.50234,8.11966 0.9191,1.53001 4.47312,1.34529 20.96829,-1.08975 l 13.01672,-1.92156 -0.56458,-3.2019 c -0.45157,-2.56098 -0.21628,-3.3618 1.17544,-4.00059 0.95703,-0.43927 11.56631,-2.29343 23.57616,-4.12045 20.33214,-3.09291 21.73811,-3.40514 20.41258,-4.53293 -1.21931,-1.03745 -1.30943,-1.82682 -0.62809,-5.50172 1.09497,-5.90581 1.62025,-6.62536 5.31176,-7.27627 1.78343,-0.31447 3.49763,-0.12781 3.83829,0.41791 0.61514,0.98542 0.34564,-2.36102 -0.79335,-9.85189 -0.395,-2.5978 -0.15616,-4.68685 0.68981,-6.03311 1.23728,-1.9689 2.10499,-2.20226 19.77296,-5.3176 l 18.47889,-3.25832 2.65971,2.22553 c 2.55922,2.14144 2.73238,2.63769 4.58297,13.13283 l 1.92325,10.90732 -2.54895,2.27242 c -2.36839,2.11145 -3.80061,2.49313 -20.21849,5.38805 -15.24976,2.68894 -17.9162,2.96062 -19.47067,1.98381 -0.99063,-0.62249 -1.93549,-1.7367 -2.09972,-2.47603 -0.21823,-0.98311 -0.39863,-0.85601 -0.67102,0.47299 -0.27734,1.35345 0.0585,1.90169 1.31609,2.1481 1.26784,0.24844 1.86176,1.23471 2.38371,3.95856 0.58059,3.03004 0.76621,3.29052 1.12637,1.58116 0.31822,-1.51041 1.12668,-2.16916 3.08616,-2.51467 z m -27.80526,-3.41704 c -0.29954,-1.69873 0.0503,-2.19829 1.749,-2.49782 1.69872,-0.29953 2.1983,0.0503 2.49783,1.74899 0.29953,1.69873 -0.0503,2.1983 -1.74899,2.49783 -1.69874,0.29953 -2.19831,-0.0503 -2.49784,-1.749 z m 188.16317,-21.92976 c -0.61606,-0.13127 -1.7652,0.0568 -2.55363,0.41789 -0.78843,0.36106 -0.28438,0.46846 1.12013,0.23863 1.4045,-0.22988 2.04958,-0.52522 1.43352,-0.65648 z m 189.80715,-33.42262 c -0.33202,-0.23246 -1.06994,-0.13342 -1.63977,0.22008 -0.62977,0.39062 -0.39302,0.55638 0.60363,0.42267 0.90188,-0.12095 1.36813,-0.41017 1.03615,-0.64268 z m -205.94693,35.11064 c -9.31489,-0.12115 -10.93072,0.0932 -10.69698,1.41882 0.18508,1.04965 1.50288,1.0415 7.21728,-0.0445 5.76086,-1.0949 6.3731,-1.33665 3.4797,-1.37428 z m 152.90688,-27.03756 c 0.21974,-0.55166 -0.0783,-2.27256 -0.66202,-3.82425 l -1.06181,-2.82114 -27.14121,4.78572 -27.14122,4.78573 0.67395,3.82215 0.67394,3.82215 27.12957,-4.78368 c 18.27221,-3.22188 27.26002,-5.11114 27.5291,-5.78672 z m 10.36826,-1.84233 c -1.96161,-0.72245 -2.84262,-4.54291 -1.26602,-5.49001 0.614,-0.36883 1.1864,-1.65018 1.272,-2.8474 l 0.15563,-2.17679 12.54772,-1.97027 12.5477,-1.97027 1.12561,4.88581 1.1256,4.88579 5.60992,-1.45404 c 3.08547,-0.79974 9.77576,-2.4139 14.86734,-3.58702 14.63735,-3.37252 46.91358,-13.24717 50.68777,-15.5075 0.87134,-0.52184 2.04407,-2.20064 2.60603,-3.73068 l 1.02178,-2.7819 -4.53104,0.26352 c -2.49206,0.14495 -13.77253,1.49346 -25.06767,2.99667 -11.29514,1.50322 -22.34384,2.87425 -24.55267,3.04673 -4.37836,0.34189 -4.8776,1.17767 -3.94714,6.60821 0.34154,1.99689 0.0837,2.40781 -1.54825,2.46243 -1.67422,0.056 -2.10091,-0.51865 -2.93587,-3.95385 -0.90288,-3.71457 -1.17673,-4.02399 -3.611,-4.07965 -3.62613,-0.0829 -3.8489,-3.3381 -0.31532,-4.60769 1.92451,-0.69147 2.45305,-1.44704 2.51137,-3.5901 0.0958,-3.52019 0.66128,-4.85444 2.17022,-5.12051 0.84941,-0.14977 1.39685,0.76491 1.78908,2.98936 l 0.56516,3.20517 25.63597,-4.85545 c 14.09981,-2.6705 25.70338,-5.21844 25.78571,-5.6621 0.2048,-1.10387 4.84268,-1.84363 5.67875,-0.90587 1.09931,1.23306 5.32256,0.0596 6.46951,-1.79759 1.19976,-1.94277 5.85155,-17.01738 5.34358,-17.31643 -0.18122,-0.10668 -1.80844,-0.20037 -3.61611,-0.20819 -2.97041,-0.0129 -3.25541,0.16304 -2.96179,1.82818 0.30336,1.72045 0.002,1.87212 -4.55813,2.29188 -3.50374,0.32254 -5.35544,0.0388 -6.55561,-1.00456 -1.5246,-1.32536 -3.64196,-1.23008 -23.92552,1.07642 -12.2391,1.39177 -22.52461,2.77271 -22.85672,3.06877 -0.33208,0.29606 -0.1832,2.9237 0.33088,5.83918 0.52729,2.99042 0.56877,5.82345 0.0952,6.49983 -1.02481,1.4636 -19.75776,4.92584 -21.88185,4.04426 -1.10966,-0.46057 -1.42235,-0.0698 -1.44023,1.79997 l -0.0228,2.38825 -10.09458,2.31747 c -5.55202,1.2746 -12.65461,3.44399 -15.78356,4.82083 l -5.689,2.50338 -7.69267,-1.40974 c -4.23096,-0.77538 -9.7064,-1.65524 -12.16769,-1.95521 -2.46127,-0.3 -8.91284,-1.10068 -14.33683,-1.77931 -9.766,-1.2219 -10.02257,-1.2057 -26.41726,1.66633 -16.01785,2.8061 -41.75462,6.5859 -86.96118,12.77178 -18.13807,2.48195 -21.99752,2.78511 -23.49288,1.84546 -1.66036,-1.04335 -2.36996,-0.91678 -9.84641,1.75629 -4.4314,1.58437 -8.18277,3.06012 -8.33634,3.27948 -0.15359,0.21933 0.80353,4.2634 2.12679,8.98685 1.99699,7.12802 2.15529,7.47309 0.93112,2.02969 -1.43222,-6.36839 -1.41671,-6.59308 0.53509,-7.75736 3.34094,-1.99293 7.63714,-2.39933 8.41821,-0.79633 0.37822,0.77624 1.87691,6.62048 3.33041,12.98724 l 2.64274,11.57589 -3.68555,0.80594 c -2.02704,0.44342 -4.35495,0.92096 -5.17311,1.06152 -0.99259,0.17197 -1.37151,0.91354 -1.13866,2.2341 0.19187,1.08818 0.63572,1.92906 0.98631,1.86861 0.35072,-0.0598 5.1602,-0.16307 10.68802,-0.22807 5.52781,-0.065 12.10451,-0.20356 14.61491,-0.30791 l 4.56436,-0.1897 -1.57899,-8.95481 -1.57897,-8.95484 2.45857,-2.66751 2.45858,-2.66752 22.1548,-3.90648 22.1548,-3.90649 5.69875,2.16272 5.69876,2.16273 0.78078,4.35776 c 1.54969,8.65402 0.64822,8.32216 15.49458,5.70434 7.15878,-1.26229 13.15775,-2.65101 13.33102,-3.08603 0.3728,-0.93598 58.67728,-12.54391 60.86806,-12.11832 1.16384,0.22613 1.70174,1.42069 2.38529,5.29725 l 0.88257,5.00532 4.02996,-0.73719 c 3.15047,-0.57633 3.67223,-0.86895 2.39088,-1.34087 z m -52.15464,-20.86438 c -0.36753,-0.61188 -0.77123,-2.41266 -0.89707,-4.00177 -0.20375,-2.57287 0.0743,-2.97325 2.53946,-3.6561 1.52254,-0.42171 3.34504,-0.43798 4.05001,-0.036 1.97704,1.12723 2.24335,5.9248 0.39151,7.05269 -2.52596,1.53845 -5.36515,1.83768 -6.08391,0.64118 z m -14.90964,0.61386 c -1.17577,-0.0185 -2.08508,-0.64983 -2.24538,-1.55894 -0.19951,-1.13145 0.56238,-1.79229 2.93678,-2.5473 4.1858,-1.33098 7.77957,-1.2451 8.03297,0.19204 0.41055,2.32829 -3.31418,3.99941 -8.72437,3.9142 z m 125.3084,10.34642 c -0.62549,-0.13262 -1.58103,0.0358 -2.12342,0.37442 -0.54239,0.33858 -0.0305,0.44713 1.13723,0.24125 1.16789,-0.20594 1.61166,-0.48297 0.98618,-0.61563 z m -201.03343,34.62441 c -0.332,-0.23248 -1.06991,-0.13352 -1.63977,0.22008 -0.62976,0.39062 -0.39302,0.5564 0.60365,0.42268 0.90188,-0.12094 1.36814,-0.41016 1.03614,-0.64268 z m 43.23923,-8.18984 c -0.40675,-0.75211 -4.83611,-0.26603 -17.89894,1.96416 -9.54715,1.63001 -16.37598,2.94794 -15.17514,2.92889 1.81295,-0.0288 19.84532,-2.09245 30.76113,-3.52038 1.94211,-0.254 2.6808,-0.69246 2.31295,-1.37267 z m 122.88298,-24.51386 -0.67395,-3.82214 -9.67131,1.70531 -9.6713,1.70531 0.0802,2.39425 c 0.18027,5.3837 0.29603,5.42138 10.9049,3.55075 l 9.70542,-1.71133 z m 44.95413,-4.56564 c -0.62551,-0.13264 -1.58103,0.0358 -2.12343,0.37441 -0.54238,0.33858 -0.0305,0.44712 1.13725,0.24115 1.16788,-0.20593 1.61166,-0.48296 0.98619,-0.61561 z m -478.42506,76.83835 c -1.01468,-3.79492 -2.03728,-7.12448 -2.27245,-7.39906 -0.66414,-0.77537 -3.25115,0.56412 -14.81802,7.67741 -5.9013,3.62867 -11.17683,6.67643 -11.72343,6.7728 -0.54659,0.0964 -0.93433,0.51256 -0.86164,0.92481 0.0727,0.41227 2.96194,0.51923 6.42045,0.23847 3.45855,-0.28108 9.61341,-0.57703 13.67746,-0.65765 12.61937,-0.25033 11.72077,0.45867 9.57763,-7.55678 z m 94.96948,-10.27365 c -0.15042,-0.85307 -50.84216,6.65971 -52.01981,7.70961 -2.61068,2.32745 1.45394,1.95961 25.81824,-2.33647 14.48169,-2.55352 26.2724,-4.97143 26.20157,-5.37314 z M 503.34234,238.5947 c -0.8255,-0.069 -1.78495,-0.74086 -2.13214,-1.49294 -0.44726,-0.96889 -0.56176,-0.80537 -0.39283,0.561 0.18357,1.48449 0.67439,1.82819 2.13217,1.49294 1.34172,-0.30858 1.45623,-0.47209 0.3928,-0.561 z m 235.91494,-42.40973 c -0.33201,-0.23248 -1.0699,-0.13351 -1.63976,0.22008 -0.62978,0.39062 -0.39301,0.55639 0.60364,0.42269 0.90187,-0.12095 1.36812,-0.41017 1.03614,-0.64268 z m 18.28233,-4.44611 c 1.23781,-1.17525 3.19782,-2.35217 4.3556,-2.61536 1.56922,-0.35682 1.68717,-0.51105 0.4633,-0.60627 -1.2188,-0.0948 -1.63346,-0.70514 -1.60958,-2.36918 0.0317,-2.20668 0.008,-2.1955 -1.54568,0.72014 -1.43247,2.68866 -2.2829,3.19339 -9.22761,5.47638 -6.85376,2.2531 -7.28674,2.50618 -4.16118,2.43219 6.64969,-0.15737 9.45759,-0.88488 11.72515,-3.0379 z M 479.608,239.97115 c -0.50612,-0.32071 -2.13738,-0.59467 -3.62503,-0.60883 -1.9716,-0.0187 -2.6481,0.29606 -2.49551,1.16145 0.11513,0.65294 0.43717,0.98402 0.71566,0.73576 0.27847,-0.24826 1.67494,-0.33728 3.10329,-0.19777 2.82022,0.27539 3.7569,-0.16848 2.30159,-1.09066 z m -271.07008,47.99152 c -0.62548,-0.13263 -1.58101,0.0358 -2.12341,0.37441 -0.54239,0.33858 -0.0305,0.44713 1.13725,0.24125 1.16787,-0.20593 1.61164,-0.48296 0.98615,-0.61561 z m 94.12066,-17.52532 c -1.55146,0.0793 -4.03585,0.51738 -5.52087,0.97348 -1.48502,0.45612 -0.21563,0.39125 2.82085,-0.14416 3.03647,-0.53541 4.2515,-0.90854 2.70002,-0.82932 z m 8.49638,-1.4823 c -1.0868,-0.0171 -2.80676,0.28616 -3.82215,0.67395 -1.0154,0.38778 -0.12618,0.4018 1.97596,0.0311 2.10218,-0.37067 2.93295,-0.68803 1.84619,-0.70507 z m 194.51123,-34.25949 c -0.6255,-0.13263 -1.58103,0.0358 -2.12341,0.37441 -0.54242,0.33858 -0.0305,0.44712 1.13722,0.24124 1.16788,-0.20593 1.61167,-0.48297 0.98619,-0.61561 z m 48.65535,-15.85879 c -1.02801,-5.83013 -1.09215,-5.93814 -4.05152,-6.83529 -1.65383,-0.50136 -3.67361,-1.31368 -4.48836,-1.80515 -1.07625,-0.64926 -6.73833,-0.13567 -20.70457,1.878 -16.90937,2.43799 -19.51747,2.99612 -21.66787,4.63693 -3.27311,2.49745 -3.35967,2.86485 -2.39752,10.17597 l 0.83381,6.33567 2.74173,-0.13623 c 1.50794,-0.0749 13.55007,-1.97896 26.76027,-4.2312 l 24.01855,-4.09491 z m 213.51617,-32.11519 c -0.61607,-0.13127 -1.7652,0.0568 -2.55363,0.41788 -0.78844,0.36106 -0.28438,0.46846 1.12012,0.23863 1.4045,-0.22989 2.04959,-0.52521 1.43353,-0.65649 z m -387.47625,66.61354 c 1.04139,-0.62556 0.96322,-2.39374 -0.4635,-10.48512 -0.94388,-5.35297 -2.24216,-10.40222 -2.88508,-11.22055 -1.09517,-1.39394 -2.22842,-1.30102 -17.95649,1.47226 -11.92449,2.1026 -17.03075,3.30742 -17.62708,4.15904 -1.15775,1.65345 2.18057,20.58603 3.83402,21.74378 1.26611,0.88654 32.61384,-4.17706 35.09813,-5.66941 z m 235.53533,-41.6526 c -4.58167,0.65039 -12.03484,1.96459 -16.56264,2.92044 -4.52778,0.95585 -0.77917,0.42368 8.33028,-1.18256 9.10944,-1.60624 12.81402,-2.38822 8.23236,-1.73788 z m 174.18013,-32.84403 c 3.91729,-1.68655 7.06324,-3.40154 6.99103,-3.81108 -0.0722,-0.40954 1.77978,-1.08162 4.11552,-1.49347 2.33576,-0.41186 4.18729,-1.08647 4.11453,-1.49916 -0.18772,-1.06455 -3.91581,-0.98461 -5.73103,0.12288 -0.83992,0.51245 -5.33669,1.67685 -9.99284,2.5876 -4.65618,0.91067 -7.76606,1.71273 -6.91089,1.78224 0.8552,0.0695 1.64383,0.63073 1.75253,1.24723 0.22545,1.27859 -0.90815,2.09802 -6.60251,4.77268 l -4.04395,1.89944 4.59264,-1.27096 c 2.52596,-0.69904 7.79769,-2.65086 11.71497,-4.3374 z m -453.8216,79.74003 c -0.23297,-1.32123 -0.85572,-2.03854 -1.64846,-1.89876 -0.70072,0.12355 -1.21217,0.57561 -1.13653,1.00455 0.0756,0.42894 0.0121,1.42539 -0.14114,2.21432 -0.1998,1.02831 0.22803,1.34507 1.51095,1.11886 1.34265,-0.23674 1.69609,-0.84584 1.41518,-2.43897 z m 2.32575,-0.13642 c -0.39061,-0.62973 -0.5564,-0.39299 -0.42267,0.60366 0.12095,0.90187 0.41017,1.36815 0.64267,1.03613 0.23247,-0.33201 0.13351,-1.06989 -0.22009,-1.63976 z m 329.41982,-56.78633 c -1.08021,-0.0174 -2.99219,0.31435 -4.2489,0.73691 -1.25668,0.4229 -0.37286,0.43714 1.96401,0.0317 2.33663,-0.40694 3.36506,-0.75154 2.28484,-0.76888 z m 5.50647,-0.8835 c -0.33201,-0.23249 -1.0699,-0.13352 -1.63976,0.22008 -0.62975,0.3906 -0.39301,0.5564 0.60364,0.42267 0.90188,-0.12095 1.36814,-0.41016 1.03613,-0.64268 z m 3.39747,-0.59907 c -0.33202,-0.23248 -1.0699,-0.13351 -1.63977,0.22008 -0.62974,0.3906 -0.39301,0.5564 0.60364,0.42268 0.90189,-0.12095 1.36815,-0.41017 1.03615,-0.64268 z m 94.78351,-17.63973 c 3.39748,-1.39985 5.82445,-2.78599 5.39321,-3.08029 -0.4312,-0.29432 -3.41293,-0.16556 -6.62602,0.28612 -5.85273,0.82276 -7.22992,1.75178 -6.76912,4.56636 0.22251,1.36151 0.59812,1.27834 8.00193,-1.77219 z m -389.11057,61.98141 c -0.45822,-1.49325 -0.43266,-0.42105 0.0568,2.38269 0.4893,2.80378 0.86429,4.02554 0.83312,2.71504 -0.0312,-1.31045 -0.43171,-3.60443 -0.88974,-5.09775 z m 77.75207,-22.65164 c -4.33475,-16.91354 -3.96057,-15.78208 -5.28388,-15.97785 -1.32967,-0.19669 -0.70398,3.68899 3.16835,19.67564 1.87058,7.72264 2.98815,10.94572 3.92563,11.32164 2.05818,0.82524 1.88727,-0.59276 -1.8101,-15.01943 z m 6.23344,7.40584 c -0.36108,-0.78843 -0.46847,-0.28436 -0.23863,1.12014 0.22988,1.40449 0.52522,2.04959 0.65649,1.43351 0.13128,-0.61608 -0.0568,-1.7652 -0.41788,-2.55364 z M 773.98429,176.8797 c -0.61607,-0.13127 -1.76521,0.0568 -2.55363,0.41789 -0.78845,0.36107 -0.28439,0.46847 1.12013,0.23863 1.40453,-0.22968 2.04958,-0.52522 1.43351,-0.65648 z m -16.7385,2.12103 c -0.33201,-0.23246 -1.06992,-0.13342 -1.63977,0.22009 -0.62974,0.3906 -0.39302,0.55637 0.60365,0.42265 0.90187,-0.12095 1.36814,-0.41017 1.03613,-0.64267 z m -284.11643,46.24754 c -0.49922,-2.83122 -0.88219,-3.34754 -2.29779,-3.09792 -1.41562,0.24961 -1.59889,0.86577 -1.09967,3.69699 0.49922,2.83121 0.88218,3.34752 2.2978,3.09791 1.4156,-0.2496 1.59888,-0.86576 1.09966,-3.69698 z m 269.9611,-44.67834 c -0.62549,-0.13263 -1.58102,0.0358 -2.12341,0.37441 -0.5424,0.33858 -0.0305,0.44712 1.13726,0.24115 1.16787,-0.20593 1.61164,-0.48296 0.98616,-0.61561 z m 22.35438,-4.84115 c -0.85519,-0.0695 -2.19294,0.1664 -2.97278,0.52418 -0.77985,0.3578 -0.0802,0.41464 1.55487,0.12636 1.63503,-0.2883 2.27309,-0.58105 1.41791,-0.65054 z m -62.35535,8.97132 c 0.11993,-0.0212 0.1522,-0.4111 0.0719,-0.86658 -0.0824,-0.46714 -1.21755,-0.41014 -2.60425,0.13079 -2.01397,0.78562 -2.52677,0.67424 -2.83758,-0.61627 -0.33928,-1.40873 -0.39269,-1.4109 -0.50571,-0.0204 -0.0695,0.8552 -0.5273,1.6256 -1.01741,1.71202 -0.57167,0.1008 -0.45752,0.5249 0.31854,1.18326 0.91106,0.77286 1.84477,0.71631 3.78311,-0.22919 1.41541,-0.69043 2.67156,-1.27261 2.79144,-1.29375 z m 50.02975,-7.84857 c -0.51701,-0.33702 -8.80752,0.58676 -18.42335,2.05285 -18.70336,2.85162 -19.03068,3.20713 -1.10254,1.19737 16.2038,-1.81647 20.60223,-2.54861 19.52589,-3.25022 z m 35.88311,-7.83232 c -2.68852,-0.22297 -6.74136,-0.29761 -9.00634,-0.16588 -3.42957,0.19948 -3.9985,0.43859 -3.40291,1.43007 0.48636,0.80962 0.10208,1.41111 -1.20073,1.87988 -1.05374,0.37913 2.67728,-0.082 8.29117,-1.02466 l 10.20705,-1.71397 z m -73.69064,12.94573 c -0.6255,-0.13263 -1.58104,0.0358 -2.12343,0.37442 -0.54239,0.33859 -0.0307,0.44716 1.13724,0.24125 1.16787,-0.20592 1.61166,-0.48297 0.98618,-0.61564 z m 50.05863,-9.44464 c 0.18927,-0.97435 -0.55879,-1.00463 -3.48689,-0.14113 -2.25968,0.66639 -4.62037,0.80759 -5.99442,0.35613 -2.82608,-0.9267 -3.87363,0.2759 -1.36084,1.56227 2.43529,1.24669 10.5119,-0.0772 10.84213,-1.77737 z m 4.27009,-0.86867 c 0.16093,-0.8286 -0.22268,-1.27439 -0.98313,-1.1403 -0.68606,0.12096 -1.14632,0.79326 -1.02275,1.494 0.12355,0.70072 0.56598,1.21385 0.98314,1.14029 0.41717,-0.0736 0.8774,-0.74585 1.02274,-1.49399 z M 454.35637,224.9458 c -0.54939,-1.40837 -1.16579,-3.50723 -1.36977,-4.66414 l -0.37091,-2.10349 -3.21502,2.87535 c -1.76828,1.58146 -4.28365,3.52015 -5.58972,4.30819 -2.36978,1.42986 -2.36277,1.43381 3.40244,1.91258 8.25029,0.68515 8.31085,0.66539 7.14298,-2.32849 z m 296.32264,-51.00671 c -1.0868,-0.0171 -2.80676,0.28615 -3.82215,0.67395 -1.0154,0.38778 -0.12619,0.40179 1.97596,0.0311 2.10218,-0.37067 2.93295,-0.68803 1.84619,-0.70506 z m -487.01029,84.30434 c 9.43062,-3.72717 9.66745,-3.85738 9.43321,-5.18576 -0.12198,-0.69183 0.14842,-1.32316 0.60092,-1.40294 0.45248,-0.0798 0.54115,-0.61377 0.19705,-1.18663 -0.34414,-0.57287 -0.45499,-1.98093 -0.24632,-3.12903 0.34948,-1.92268 0.5553,-1.79356 2.60824,1.63639 l 2.22886,3.72382 4.25827,-1.36617 c 7.71542,-2.47532 8.19138,-3.00682 6.72527,-7.51025 -1.64192,-5.04343 -2.50788,-6.76767 -3.32647,-6.62333 -0.90276,0.15918 -8.80359,4.6019 -11.36378,6.38996 -1.14638,0.80064 -2.1556,2.4525 -2.24269,3.67082 -0.1517,2.12166 -0.2222,2.15716 -1.67112,0.8416 -1.47118,-1.33578 -1.54544,-1.31778 -2.70447,0.65534 -0.65547,1.11587 -1.65244,1.96054 -2.21551,1.87704 -0.56305,-0.0835 -1.20148,0.29451 -1.41874,0.83983 -0.21723,0.54541 0.0323,0.91632 0.55465,0.82422 0.5223,-0.0921 0.76277,0.30165 0.53439,0.87503 -0.29052,0.7294 -0.68483,0.74007 -1.31295,0.0355 -0.70199,-0.78743 -1.29013,-0.48221 -2.69754,1.39992 -0.98989,1.32379 -3.11965,3.33201 -4.7328,4.46272 -3.85104,2.6993 -1.36733,2.39646 6.79154,-0.82809 z M 789.2622,160.52876 c -0.63405,-3.61316 -0.75563,-7.18614 -0.29443,-8.64431 0.90168,-2.85065 0.044,-3.35342 -4.38766,-2.572 l -2.47861,0.43705 1.48724,8.43458 c 1.60243,9.08781 1.16293,8.47506 6.09661,8.50016 0.36157,0.002 0.17116,-2.76812 -0.42315,-6.15548 z M 340.10503,242.3546 c -0.33858,-0.54238 -0.44714,-0.0307 -0.24115,1.13727 0.20593,1.16788 0.48296,1.61164 0.61561,0.98616 0.13263,-0.6255 -0.0358,-1.58103 -0.37441,-2.12342 z m -55.15938,10.82082 c 0.20633,-0.51806 -0.007,-0.87452 -0.47422,-0.79216 -0.46714,0.0824 -1.01818,0.57363 -1.22452,1.09169 -0.20635,0.51806 0.007,0.87452 0.4742,0.79216 0.46716,-0.0824 1.01819,-0.57363 1.22454,-1.09169 z m 492.33915,-94.9136 c -0.66935,-4.57829 -1.53713,-8.26774 -1.928,-8.19882 -0.66552,0.11735 -1.65414,2.76701 -4.77075,12.78631 -0.70287,2.25958 -0.96994,4.45382 -0.59347,4.87606 0.37644,0.42228 2.44506,0.33863 4.59689,-0.18581 l 3.91245,-0.95354 z m -485.01291,93.00371 c -1.0868,-0.0171 -2.80676,0.28616 -3.82215,0.67395 -1.0154,0.38778 -0.12618,0.40178 1.97598,0.0311 2.10218,-0.37067 2.93294,-0.68802 1.84617,-0.70506 z M 510.99753,212.6912 c -1.31048,0.0312 -3.60447,0.4317 -5.09776,0.88973 -1.49328,0.4582 -0.42107,0.43264 2.38267,-0.0568 2.80377,-0.48929 4.02552,-0.86427 2.71505,-0.83312 z m 14.84597,-2.63359 c -2.01693,0.17127 -5.26575,0.74412 -7.21961,1.27301 -1.95387,0.52889 -0.30366,0.38879 3.66714,-0.31138 3.97078,-0.70015 5.56941,-1.13281 3.55247,-0.96163 z m 254.11023,-46.08099 c -0.39061,-0.62977 -0.55639,-0.39302 -0.42268,0.60363 0.12095,0.90188 0.41017,1.36813 0.64268,1.03614 0.23247,-0.33201 0.13352,-1.0699 -0.22009,-1.63976 z m -484.29698,83.91051 c 2.36528,-8.50699 3.39819,-10.80283 5.11521,-11.36949 1.85074,-0.61077 1.82899,-0.65326 -0.74963,-1.46482 -2.76022,-0.8687 -9.31458,0.66921 -9.98083,2.34186 -0.18381,0.46156 0.42023,2.5231 1.34229,4.58121 1.26141,2.81552 1.52898,4.31271 1.08034,6.04689 -0.55609,2.1509 -0.47469,2.24231 1.21912,1.36906 0.99825,-0.51462 1.88617,-1.19175 1.97319,-1.50466 z m 174.39821,-34.13827 c -0.69859,-2.87204 -1.32696,-3.92593 -2.2443,-3.76418 -0.91734,0.16175 -1.14736,1.367 -0.82159,4.30477 0.40602,3.66086 0.63674,4.04765 2.24433,3.76419 1.60766,-0.28347 1.69209,-0.72584 0.8215,-4.30479 z m -9.51188,1.29406 c -0.39061,-0.62976 -0.55638,-0.39301 -0.42267,0.60366 0.12094,0.90187 0.41016,1.36812 0.64267,1.03613 0.23247,-0.33203 0.13342,-1.06992 -0.22008,-1.63977 z m 194.44916,-33.70207 c 2.68357,-1.17101 8.79586,-2.82588 13.58287,-3.67748 l 8.70358,-1.54879 -0.8986,-5.09621 c -0.61739,-3.5014 -1.2318,-5.04307 -1.96337,-4.92644 -0.58576,0.0927 -8.03915,0.84697 -16.56336,1.67468 -16.38492,1.59101 -25.57381,3.33041 -38.71549,7.32871 l -8.04812,2.44862 8.73326,1.43699 c 4.8033,0.79039 10.74406,1.62431 13.20168,1.85323 2.45763,0.22891 7.11446,0.93622 10.34855,1.57179 7.05316,1.38604 5.72075,1.50823 11.61892,-1.06553 z m 114.34251,-19.56029 c -0.0686,-0.38929 -0.68132,-0.60968 -1.3615,-0.48974 -0.68018,0.11993 -0.98367,0.50187 -0.67444,0.84874 0.30925,0.34687 0.92192,0.56725 1.3615,0.48974 0.43958,-0.0775 0.74308,-0.45944 0.67444,-0.84874 z m 26.45124,-6.78052 c 0.69218,-1.20583 0.79869,-1.6187 0.23672,-0.91751 -1.39077,1.7352 -2.61995,1.84183 -2.30092,0.19959 0.21887,-1.12665 0.019,-1.12856 -1.22201,-0.0117 -1.83439,1.65082 -1.7489,2.46255 0.27669,2.62714 0.85517,0.0695 1.59901,0.16427 1.65296,0.21063 0.054,0.0464 0.6644,-0.9023 1.35659,-2.10812 z m -474.79011,81.27913 c 1.54045,-1.21027 1.48117,-4.17827 -0.11846,-5.93185 -0.66979,-0.73427 -1.9508,-0.6586 -4.75381,0.28084 -3.65109,1.22364 -3.8136,1.41842 -3.35475,4.02073 0.26522,1.50413 0.78197,2.94466 1.14831,3.20116 1.02012,0.71429 5.41004,-0.25991 7.07871,-1.57088 z m 11.28643,-2.88424 c 0.4146,-0.47289 1.37496,-2.62976 2.1341,-4.79306 l 1.38032,-3.93326 -1.94383,0.90559 c -1.0691,0.49807 -3.94949,1.26465 -6.40093,1.70347 l -4.45705,0.79818 0.76199,4.32149 0.76199,4.32148 3.50482,-1.23188 c 1.92765,-0.67754 3.84405,-1.61879 4.25865,-2.09169 z m 368.1304,-70.1168 -0.8986,-5.09619 -7.67104,1.19619 c -4.21905,0.65793 -8.52306,1.3183 -9.56442,1.46751 -1.74394,0.24993 -1.8138,0.60285 -0.88528,4.47241 0.55451,2.31059 1.48748,4.60919 2.07335,5.10799 0.72083,0.61368 3.77768,0.42862 9.45488,-0.57243 l 8.38965,-1.47932 z m 99.85431,-15.99088 c -0.40495,-0.28054 -2.39386,-0.58572 -4.41978,-0.67817 -3.6613,-0.16707 -3.67582,-0.1569 -2.40804,1.68805 0.70151,1.02086 1.97854,1.73215 2.83786,1.58063 0.8593,-0.15152 1.62912,0.10297 1.71068,0.56555 0.0816,0.46259 0.79344,0.0564 1.58194,-0.90247 0.78849,-0.95893 1.10229,-1.97306 0.69734,-2.25359 z M 310.72829,235.4931 c 0.20633,-0.51806 -0.0297,-0.87054 -0.52431,-0.78332 -0.49473,0.0872 -0.83212,0.54083 -0.74975,1.00798 0.0824,0.46715 0.31839,0.81963 0.52433,0.78332 0.20602,-0.0364 0.54338,-0.48991 0.74973,-1.00798 z m 367.74887,-71.41235 c -0.52069,-2.5574 -1.18351,-4.60806 -1.47305,-4.557 -0.28953,0.051 -0.27709,1.13261 0.0277,2.40348 0.30482,1.27086 0.78877,3.35306 1.07552,4.62711 0.98585,4.37996 1.31579,2.17304 0.36985,-2.47358 z m -87.52861,17.86533 c -1.55146,0.0793 -4.03586,0.51738 -5.52087,0.97348 -1.48502,0.45613 -0.21564,0.39126 2.82084,-0.14416 3.03648,-0.53541 4.2515,-0.90853 2.70003,-0.82932 z m 16.1471,-2.79366 c -0.62549,-0.13263 -1.58102,0.0358 -2.12343,0.37442 -0.54238,0.33858 -0.0307,0.44715 1.13728,0.24115 1.16787,-0.20593 1.61164,-0.48297 0.98616,-0.61562 z m -39.1968,5.96821 c -2.92943,0.34603 -7.89842,1.22097 -11.0421,1.945 -3.14382,0.72326 -0.747,0.44018 5.32624,-0.62917 6.07329,-1.06885 8.64542,-1.6611 5.71599,-1.3151 z M 759.3242,150.91962 c -0.81494,-1.52126 -4.90097,-1.00907 -5.2242,0.65483 -0.21589,1.11153 0.36379,1.2969 2.74313,0.87736 2.03323,-0.35851 2.84218,-0.85809 2.48107,-1.53219 z M 318.87825,228.2266 c -0.61608,-0.13127 -1.76522,0.0568 -2.55364,0.41789 -0.78844,0.36105 -0.28438,0.46846 1.12014,0.23863 1.40448,-0.22988 2.04957,-0.52521 1.4335,-0.65649 z m 208.9203,-36.88195 c -1.0868,-0.0171 -2.80676,0.28616 -3.82215,0.67395 -1.0154,0.38779 -0.12619,0.4018 1.97597,0.0311 2.10217,-0.37067 2.93295,-0.68803 1.84618,-0.70508 z m 8.50567,-1.49774 c -1.08022,-0.0174 -2.9922,0.31435 -4.24893,0.73691 -1.25666,0.42289 -0.37284,0.43713 1.96403,0.0316 2.33663,-0.40693 3.36505,-0.75152 2.28484,-0.76887 z m -26.46843,3.83336 c -0.61605,-0.13128 -1.76519,0.0567 -2.55366,0.41767 -0.78845,0.36106 -0.28438,0.46847 1.12013,0.23864 1.40449,-0.22988 2.04959,-0.52521 1.4335,-0.6565 z m 102.21674,-19.62229 3.70011,-1.68534 -8.16778,0.86246 c -27.94675,2.95096 -60.28879,8.07751 -85.10967,13.49077 -14.19413,3.09564 -25.89361,5.74849 -25.99883,5.89524 -0.41273,0.57555 17.70885,-1.76664 40.0491,-5.17628 12.89895,-1.96867 32.66943,-4.94928 43.93441,-6.62359 21.7306,-3.22983 25.70143,-4.07988 31.59266,-6.76326 z m -280.75042,50.22107 c -0.62549,-0.13263 -1.58102,0.0358 -2.12341,0.37441 -0.54239,0.3386 -0.0305,0.44714 1.13725,0.24125 1.16787,-0.20593 1.61164,-0.48296 0.98615,-0.61563 z m 456.40962,-86.97833 c 0.77634,-4.03144 1.32344,-7.82925 1.21586,-8.43956 -0.10761,-0.61031 0.7976,-6.35492 2.01161,-12.76578 1.21397,-6.41086 2.26109,-12.94709 2.32685,-14.52497 0.11197,-2.685068 -0.054,-2.872835 -2.58989,-2.930831 -2.8862,-0.066 -3.91208,-1.721709 -1.83855,-2.967299 0.68792,-0.413245 2.17336,-0.68539 3.30097,-0.604795 1.88615,0.134851 2.18367,-0.530886 3.71813,-8.319406 0.91739,-4.656285 1.9261,-11.171674 2.24166,-14.478625 l 0.57376,-6.012627 -10.88999,1.9202 c -12.09932,2.133435 -10.95094,1.482228 -20.23887,11.476619 -2.42499,2.609439 -5.75125,6.072763 -7.39167,7.696284 -5.16431,5.111072 -9.64352,9.710886 -14.14959,14.53065 -2.39814,2.56508 -6.29772,6.52734 -8.66573,8.80507 -2.36801,2.2777 -4.25446,4.43058 -4.1921,4.78418 0.0623,0.35358 -0.88917,1.28157 -2.11447,2.06216 -1.2253,0.7806 -4.15885,3.70026 -6.519,6.48814 -2.36014,2.78784 -4.58706,5.13101 -4.94874,5.20701 -0.36165,0.0761 -2.71453,2.37741 -5.22864,5.11421 -2.51407,2.73682 -6.0959,6.38592 -7.9596,8.10912 -1.86369,1.72321 -4.33615,4.46399 -5.49435,6.09065 -1.15819,1.62666 -3.09033,3.52048 -4.29362,4.20851 -1.20329,0.68804 -2.13967,1.52387 -2.08086,1.8574 0.0588,0.33352 10.80001,-0.77245 23.86935,-2.45771 13.06933,-1.68526 32.10043,-3.83031 42.29131,-4.76681 10.1909,-0.93646 20.1277,-1.93876 22.08177,-2.22729 l 3.55287,-0.52464 1.41151,-7.32991 z m -164.8113,34.73681 c -0.332,-0.23247 -1.06989,-0.13351 -1.63975,0.22009 -0.62976,0.3906 -0.39302,0.55637 0.60363,0.42268 0.9019,-0.12096 1.36815,-0.41018 1.03613,-0.64268 z m -244.91679,41.43396 c -0.33201,-0.23247 -1.06991,-0.13351 -1.63977,0.22008 -0.62975,0.39061 -0.39301,0.55639 0.60365,0.42269 0.90187,-0.12095 1.36813,-0.41017 1.03613,-0.64268 z m 261.77534,-46.50472 c -0.0886,-0.50242 -3.00766,-0.32029 -7.14652,0.44592 -4.69746,0.86971 -6.39619,1.4367 -5.16929,1.7257 2.58359,0.60854 12.49778,-1.1396 12.31581,-2.17162 z m 22.76212,-3.66692 c -0.33201,-0.23246 -1.0699,-0.13351 -1.63976,0.2201 -0.62976,0.3906 -0.39302,0.55638 0.60364,0.42267 0.90188,-0.12095 1.36814,-0.41017 1.03613,-0.64267 z m -266.41692,46.0496 c -0.62549,-0.13263 -1.58103,0.0358 -2.12342,0.37441 -0.54238,0.33858 -0.0307,0.44714 1.13724,0.24124 1.16789,-0.20592 1.61166,-0.48295 0.98617,-0.6156 z m 88.43326,-15.7429 c 0.17198,-0.43172 -0.22698,-0.68979 -0.88669,-0.57347 -0.65962,0.11631 -0.94631,0.49527 -0.63705,0.84215 0.30922,0.34687 0.70823,0.60491 0.88667,0.57345 0.17844,-0.0315 0.46512,-0.41042 0.63707,-0.84213 z m 159.14782,-27.86137 c -0.33199,-0.23248 -1.06989,-0.13352 -1.63976,0.22008 -0.62976,0.39061 -0.393,0.55639 0.60365,0.42268 0.90187,-0.12095 1.36813,-0.41017 1.03613,-0.64268 z m -227.32897,39.16304 c -0.61606,-0.13127 -1.7652,0.0568 -2.55363,0.41788 -0.78844,0.36107 -0.28438,0.46847 1.12013,0.23864 1.4045,-0.22988 2.04958,-0.52522 1.43352,-0.65648 z M 616.3558,169.6884 c -0.332,-0.23246 -1.06989,-0.13351 -1.63976,0.22008 -0.62974,0.39061 -0.39301,0.55639 0.60364,0.42267 0.90189,-0.12095 1.36815,-0.41017 1.03614,-0.64266 z m 74.91493,-13.55622 c -0.18765,-1.06417 -1.08903,-0.90523 -2.5481,0.44931 -0.91285,0.84745 -0.76274,0.986 0.78449,0.72404 1.05231,-0.17845 1.84598,-0.70619 1.76361,-1.17335 z m -245.33641,42.6849 c -0.61606,-0.13127 -1.7652,0.0568 -2.55363,0.41789 -0.78843,0.36105 -0.28436,0.46845 1.12013,0.23863 1.4045,-0.22987 2.04958,-0.52521 1.43352,-0.65647 z m 22.06647,-3.89598 c -0.62548,-0.13263 -1.58101,0.0358 -2.12341,0.37441 -0.54239,0.33857 -0.0305,0.44712 1.13725,0.24124 1.16787,-0.20593 1.61165,-0.48296 0.98616,-0.61561 z m 28.44568,-5.06297 c -1.31898,0.0319 -3.42116,0.40258 -4.67149,0.82372 -1.25037,0.42114 -0.1712,0.39503 2.39813,-0.058 2.56934,-0.45305 3.59234,-0.79761 2.27336,-0.76571 z m 95.1432,-16.75082 c -0.84956,-0.0694 -2.37975,0.19247 -3.40046,0.58203 -1.02072,0.38945 -0.32563,0.44622 1.54465,0.12617 1.8704,-0.31925 2.70539,-0.63874 1.85584,-0.70811 z m 63.69217,-11.23268 c -0.85519,-0.0695 -2.19293,0.1664 -2.97277,0.52417 -0.77985,0.3578 -0.0802,0.41464 1.55487,0.12636 1.63505,-0.28829 2.27309,-0.58103 1.4179,-0.65053 z m -133.07142,22.61199 c -0.62548,-0.13262 -1.58102,0.0358 -2.12342,0.37443 -0.54238,0.33859 -0.0307,0.44716 1.13725,0.24124 1.16789,-0.20592 1.61166,-0.48296 0.98616,-0.61564 z m 44.5979,-7.88544 c -0.84956,-0.0694 -2.37979,0.19248 -3.40047,0.58203 -1.02071,0.38945 -0.32562,0.44624 1.54464,0.1262 1.87041,-0.31925 2.7054,-0.63875 1.85586,-0.70813 z m 223.74209,-46.89619 c -0.39062,-0.62976 -0.55639,-0.393 -0.42267,0.60365 0.12095,0.90187 0.41017,1.36813 0.64266,1.03613 0.23247,-0.33202 0.13352,-1.06989 -0.22009,-1.63976 z m -88.3404,13.3321 c 0.81897,-1.53344 0.78364,-1.55817 -0.37722,-0.26414 -1.21918,1.35907 -1.54612,2.13589 -0.84707,2.01262 0.17639,-0.0311 0.72731,-0.8179 1.22429,-1.74848 z m 7.02459,-6.7122 c 0.68079,-1.08339 1.0467,-1.9361 0.81314,-1.89491 -0.23359,0.0412 -0.98169,0.96128 -1.6625,2.04467 -0.6808,1.08338 -1.04669,1.93612 -0.8131,1.89493 0.23356,-0.0412 0.98167,-0.96131 1.66246,-2.04469 z m 3.36888,-3.87817 c 0.81896,-1.53345 0.78362,-1.55818 -0.37723,-0.26414 -0.70447,0.78529 -1.25541,1.5721 -1.22431,1.74847 0.12326,0.69906 0.74142,0.12616 1.60154,-1.48433 z m 85.11941,-30.6883 c 0.41218,-1.832501 0.5451,-3.474908 0.29525,-3.649817 -0.38011,-0.266168 -2.10261,5.815257 -1.92785,6.806417 0.20958,1.18858 0.99821,-0.3363 1.6326,-3.1566 z m -67.28065,12.65469 c 0.81894,-1.53343 0.78362,-1.55818 -0.37725,-0.26414 -0.70445,0.7853 -1.25539,1.5721 -1.22429,1.74847 0.12326,0.69907 0.74143,0.12617 1.60154,-1.48433 z m 6.50251,-7.18957 c -0.10834,-0.61441 -3.03306,1.94033 -3.46616,3.02769 -0.22663,0.56902 0.4747,0.20086 1.55852,-0.81812 1.08382,-1.01899 1.94225,-2.0133 1.90764,-2.20957 z m 10.39806,-10.564308 c -0.15327,-0.869202 -4.45468,3.118412 -6.02184,5.582528 -1.43172,2.25119 -1.07151,2.04354 2.18618,-1.2602 2.14518,-2.175526 3.87124,-4.12056 3.83566,-4.322328 z m 52.80206,-10.081552 0.0564,-2.637267 -0.72707,2.852246 c -0.39987,1.568719 -0.74615,3.994357 -0.76941,5.390305 l -0.0423,2.53806 0.71302,-2.753039 c 0.39216,-1.51416 0.73836,-3.939819 0.76941,-5.390305 z m -44.98906,2.240252 c 1.8232,-2.241529 4.07736,-4.662225 5.00921,-5.379325 0.9319,-0.717086 3.67427,-3.485178 6.09423,-6.151285 5.61269,-6.183665 9.51288,-9.620063 11.27011,-9.929911 0.76237,-0.134427 1.29055,-0.786479 1.17373,-1.448998 -0.11682,-0.662519 -0.0747,-1.913253 0.0935,-2.779408 0.27951,-1.438914 0.0938,-1.393436 -2.15192,0.526699 -1.35181,1.155861 -3.42361,3.447014 -4.60403,5.091441 -1.1804,1.644427 -3.58175,4.432452 -5.33636,6.195584 -6.9637,6.997605 -13.31259,13.891198 -15.7307,17.080349 -3.53242,4.658751 -0.0323,1.97628 4.18219,-3.205215 z m 48.10169,-18.05324 c 0.44742,-2.694052 0.62748,-5.028486 0.40021,-5.187638 -0.97759,-0.684513 -2.53937,7.314876 -3.32419,17.026378 -0.19621,2.427938 2.096,-6.852825 2.92398,-11.83874 z m -8.80096,-6.157475 c -2.01693,0.171269 -5.26577,0.744125 -7.21962,1.273012 -1.95387,0.528899 -0.30364,0.388784 3.66713,-0.311371 3.97079,-0.700157 5.56937,-1.132984 3.55249,-0.961641 z m 5.47607,-4.26531 c 0.38014,-1.956625 -14.82786,0.699914 -16.92455,2.956432 -1.28566,1.383663 -0.52252,1.380731 7.61573,-0.02919 7.27318,-1.260116 9.09633,-1.833363 9.30882,-2.92721 z"
     style="fill:#000000;stroke-width:0.86246842" />
  <path
     inkscape:connector-curvature="0"
     id="path6036"
     d="M 319.81698,46.841288 84.068667,88.410076"
     style="fill:none;fill-rule:evenodd;stroke:#000000;stroke-width:2;stroke-linecap:butt;stroke-linejoin:miter;stroke-miterlimit:4;stroke-dasharray:none;stroke-opacity:1;marker-end:url(#Arrow1Lend)" />
  <text
     transform="rotate(-10)"
     id="text6334"
     y="75.691368"
     x="159.90677"
     style="font-style:italic;font-weight:normal;font-size:10px;line-height:125%;font-family:Sans;-inkscape-font-specification:'Sans Italic';letter-spacing:0px;word-spacing:0px;fill:#000000;fill-opacity:1;stroke:none;stroke-width:1px;stroke-linecap:butt;stroke-linejoin:miter;stroke-opacity:1"
     xml:space="preserve"><tspan
       y="75.691368"
       x="159.90677"
       id="tspan6332"
       sodipodi:role="line">$V_{a/c}$</tspan></text>
  <path
     sodipodi:nodetypes="cc"
     inkscape:connector-curvature="0"
     id="path6336"
     d="M 493.10384,86.537275 514.53306,221.17648"
     style="fill:none;fill-rule:evenodd;stroke:#000000;stroke-width:2;stroke-linecap:butt;stroke-linejoin:miter;stroke-miterlimit:4;stroke-dasharray:none;stroke-opacity:1;marker-start:url(#Arrow1Lstart)" />
  <path
     inkscape:connector-curvature="0"
     id="path6422"
     d="M 105.27933,290.69883 920.0255,147.03709"
     style="fill:none;fill-rule:evenodd;stroke:#000000;stroke-width:2;stroke-linecap:butt;stroke-linejoin:miter;stroke-miterlimit:4;stroke-dasharray:none;stroke-opacity:1;marker-start:url(#marker6466);marker-end:url(#marker6426)" />
  <text
     id="text6782"
     y="68.961327"
     x="489.94528"
     style="font-style:italic;font-weight:normal;font-size:10px;line-height:125%;font-family:Sans;-inkscape-font-specification:'Sans Italic';letter-spacing:0px;word-spacing:0px;fill:#000000;fill-opacity:1;stroke:none;stroke-width:1px;stroke-linecap:butt;stroke-linejoin:miter;stroke-opacity:1"
     xml:space="preserve"><tspan
       style="font-size:21.3333px"
       y="68.961327"
       x="489.94528"
       id="tspan6780"
       sodipodi:role="line">L</tspan></text>
  <text
     xml:space="preserve"
     style="font-style:italic;font-weight:normal;font-size:10px;line-height:125%;font-family:Sans;-inkscape-font-specification:'Sans Italic';letter-spacing:0px;word-spacing:0px;fill:#000000;fill-opacity:1;stroke:none;stroke-width:1px;stroke-linecap:butt;stroke-linejoin:miter;stroke-opacity:1"
     x="509.11685"
     y="377.25989"
     id="text6786"><tspan
       sodipodi:role="line"
       id="tspan6784"
       x="509.11685"
       y="377.25989"
       style="font-size:21.3333px">W</tspan></text>
  <text
     xml:space="preserve"
     style="font-style:italic;font-weight:normal;font-size:10px;line-height:125%;font-family:Sans;-inkscape-font-specification:'Sans Italic';letter-spacing:0px;word-spacing:0px;fill:#000000;fill-opacity:1;stroke:none;stroke-width:1px;stroke-linecap:butt;stroke-linejoin:miter;stroke-opacity:1"
     x="932.2804"
     y="154.76746"
     id="text6794"><tspan
       sodipodi:role="line"
       id="tspan6792"
       x="932.2804"
       y="154.76746"
       style="font-size:21.3333px">D</tspan></text>
  <text
     id="text6798"
     y="259.88016"
     x="80.610123"
     style="font-style:italic;font-weight:normal;font-size:10px;line-height:125%;font-family:Sans;-inkscape-font-specification:'Sans Italic';letter-spacing:0px;word-spacing:0px;fill:#000000;fill-opacity:1;stroke:none;stroke-width:1px;stroke-linecap:butt;stroke-linejoin:miter;stroke-opacity:1"
     xml:space="preserve"><tspan
       style="font-size:21.3333px"
       y="259.88016"
       x="80.610123"
       id="tspan6796"
       sodipodi:role="line">$W\cdot\sin\theta$</tspan></text>
  <path
     inkscape:connector-curvature="0"
     id="path1528"
     d="M 514.53306,221.17648 V 346.85429"
     style="fill:none;fill-rule:evenodd;stroke:#000000;stroke-width:1px;stroke-linecap:butt;stroke-linejoin:miter;stroke-opacity:1;marker-end:url(#marker1568)" />
  <path
     inkscape:connector-curvature="0"
     id="path1636"
     d="M 116,86.999999 H 268"
     style="fill:none;fill-rule:evenodd;stroke:#000000;stroke-width:1;stroke-linecap:butt;stroke-linejoin:miter;stroke-miterlimit:4;stroke-dasharray:1, 1;stroke-dashoffset:0;stroke-opacity:1" />
  <text
     xml:space="preserve"
     style="font-style:italic;font-weight:normal;font-size:10px;line-height:125%;font-family:Sans;-inkscape-font-specification:'Sans Italic';letter-spacing:0px;word-spacing:0px;fill:#000000;fill-opacity:1;stroke:none;stroke-width:1px;stroke-linecap:butt;stroke-linejoin:miter;stroke-opacity:1"
     x="269.94528"
     y="79.961327"
     id="text1640"><tspan
       sodipodi:role="line"
       id="tspan1638"
       x="269.94528"
       y="79.961327"
       style="font-size:21.3333px">$\bar{\gamma}$</tspan></text>
</svg>
