<?xml version="1.0" encoding="UTF-8" standalone="no"?>
<svg
   xmlns:dc="http://purl.org/dc/elements/1.1/"
   xmlns:cc="http://creativecommons.org/ns#"
   xmlns:rdf="http://www.w3.org/1999/02/22-rdf-syntax-ns#"
   xmlns:svg="http://www.w3.org/2000/svg"
   xmlns="http://www.w3.org/2000/svg"
   xmlns:sodipodi="http://sodipodi.sourceforge.net/DTD/sodipodi-0.dtd"
   xmlns:inkscape="http://www.inkscape.org/namespaces/inkscape"
   inkscape:version="1.0beta2 (2b71d25, 2019-12-03)"
   sodipodi:docname="TurningMain.svg"
   id="svg200"
   version="1.1"
   xml:space="preserve"
   viewBox="-0.2822 -0.5161 1482.4213 2065.2722"
   height="2065.2722"
   width="1482.4213"><metadata
     id="metadata204"><rdf:RDF><cc:Work
         rdf:about=""><dc:format>image/svg+xml</dc:format><dc:type
           rdf:resource="http://purl.org/dc/dcmitype/StillImage" /><dc:title></dc:title></cc:Work></rdf:RDF></metadata><sodipodi:namedview
     fit-margin-bottom="0"
     fit-margin-right="0"
     fit-margin-left="0"
     fit-margin-top="0"
     inkscape:document-rotation="0"
     inkscape:current-layer="svg200"
     inkscape:window-maximized="1"
     inkscape:window-y="23"
     inkscape:window-x="0"
     inkscape:cy="475.98396"
     inkscape:cx="822.83949"
     inkscape:zoom="0.35368524"
     showgrid="false"
     id="namedview202"
     inkscape:window-height="1395"
     inkscape:window-width="2560"
     inkscape:pageshadow="2"
     inkscape:pageopacity="0"
     guidetolerance="10"
     gridtolerance="10"
     objecttolerance="10"
     borderopacity="1"
     bordercolor="#666666"
     pagecolor="#ffffff" /><defs
     id="defs2"><marker
       inkscape:isstock="true"
       style="overflow:visible"
       id="marker1192"
       refX="0"
       refY="0"
       orient="auto"
       inkscape:stockid="Arrow1Lend"><path
         inkscape:connector-curvature="0"
         transform="matrix(-0.8,0,0,-0.8,-10,0)"
         style="fill:#000000;fill-opacity:1;fill-rule:evenodd;stroke:#000000;stroke-width:1pt;stroke-opacity:1"
         d="M 0,0 5,-5 -12.5,0 5,5 Z"
         id="path1190" /></marker><marker
       inkscape:collect="always"
       inkscape:stockid="Arrow1Lend"
       orient="auto"
       refY="0"
       refX="0"
       id="marker1162"
       style="overflow:visible"
       inkscape:isstock="true"><path
         inkscape:connector-curvature="0"
         id="path1160"
         d="M 0,0 5,-5 -12.5,0 5,5 Z"
         style="fill:#f80000;fill-opacity:1;fill-rule:evenodd;stroke:#f80000;stroke-width:1pt;stroke-opacity:1"
         transform="matrix(-0.8,0,0,-0.8,-10,0)" /></marker><marker
       inkscape:collect="always"
       inkscape:isstock="true"
       style="overflow:visible"
       id="Arrow1Lend"
       refX="0"
       refY="0"
       orient="auto"
       inkscape:stockid="Arrow1Lend"><path
         inkscape:connector-curvature="0"
         transform="matrix(-0.8,0,0,-0.8,-10,0)"
         style="fill:#000000;fill-opacity:1;fill-rule:evenodd;stroke:#000000;stroke-width:1pt;stroke-opacity:1"
         d="M 0,0 5,-5 -12.5,0 5,5 Z"
         id="path885" /></marker></defs><g
     transform="rotate(-135,745.22589,796.81617)"
     id="g2318"><path
       style="fill:#ffffff;stroke:#000000;stroke-width:2"
       inkscape:connector-curvature="0"
       id="path26"
       d="m 426.2363,465.856 c 0,0 -7.6304,1.3374 -8.0825,-1.3555 -0.4502,-2.6924 -0.2451,-7.2549 -0.2451,-7.2549 0,0 44.0317,-40.5752 48.4878,-41.8853 4.4551,-1.3085 -40.1602,50.4957 -40.1602,50.4957 z" /><polyline
       style="fill:none;stroke:#000000;stroke-width:2"
       id="polyline52"
       points="843.6133,377.8994 829.3564,363.6416 714.5361,480.3716 " /><line
       style="fill:#ffffff;stroke:#000000;stroke-width:2"
       id="line62"
       y2="1106.271"
       x2="798.97272"
       y1="969.89893"
       x1="940.0332" /><g
       id="g1725"><path
         d="m 272.4541,663.2969 c -5.8853,24.9019 37.5796,78.3286 37.5796,78.3286 0,0 81.6069,84.2988 98.252,94.6289 26.2607,16.3008 50.709,18.1113 50.709,18.1113 z"
         id="path4"
         inkscape:connector-curvature="0"
         style="fill:#ffffff;stroke:#000000;stroke-width:2" /><path
         d="m 353.8462,584.061 c 24.9014,-5.8848 78.3281,37.5791 78.3281,37.5791 0,0 84.2979,81.6055 94.6284,98.2505 16.3013,26.2622 18.1128,50.7134 18.1128,50.7134 z"
         id="path6"
         inkscape:connector-curvature="0"
         style="fill:#ffffff;stroke:#000000;stroke-width:2" /><path
         d="m 839.3125,1146.7036 c 0,0 10.4121,3.9971 -2.957,-18.9824 -39.9482,-68.6738 -148.1367,-234.1484 -230.7041,-316.7109 0,0 -274.4673,-274.4697 -327.5264,-319.3652 -53.0581,-44.894 -129.5825,-56.1187 -139.8569,-45.8447 l -1.5337,1.5342 c -10.2739,10.2739 0.9502,86.7983 45.8442,139.8569 44.8955,53.0591 319.3643,327.5278 319.3643,327.5278 82.5649,82.5645 248.0396,190.7559 316.7134,230.7041 22.9805,13.3662 18.9795,2.957 18.9795,2.957 z"
         id="path8"
         inkscape:connector-curvature="0"
         style="fill:#ffffff;stroke:#000000;stroke-width:2" /><path
         d="M 271.6543,808.2935 C 240,776.6392 204.4038,741.3829 192.6538,735.3809 c -8.9946,-4.5952 -24.0967,-7.2593 -26.9102,-4.4478 l -0.2651,0.2666 c -2.813,2.812 -0.1489,17.9141 4.4473,26.9102 6.0024,11.748 41.2573,47.3447 72.9111,78.999 z"
         id="path10"
         inkscape:connector-curvature="0"
         style="fill:#ffffff;stroke:#000000;stroke-width:2" /><path
         d="m 144.6299,708.7949 c 0,0 7.1846,-0.5669 16.7231,4.937 9.5405,5.5029 21.9146,18.0605 21.9146,18.0605 l -16.1333,16.1338 c 0,0 -12.5586,-12.374 -18.061,-21.9141 -5.5024,-9.5391 -4.6865,-16.9756 -4.6865,-16.9756 z"
         id="path12"
         inkscape:connector-curvature="0"
         style="fill:#ffffff;stroke:#000000;stroke-width:2" /><path
         d="m 158.604,733.4888 c 0,0 1.3389,-7.6313 -1.354,-8.083 -2.6938,-0.4507 -7.2544,-0.2461 -7.2544,-0.2461 0,0 -40.5776,44.0322 -41.8872,48.4854 -1.3071,4.4599 50.4956,-40.1563 50.4956,-40.1563 z"
         id="path14"
         inkscape:connector-curvature="0"
         style="fill:#ffffff;stroke:#000000;stroke-width:2" /><path
         d="m 169.71,722.3833 c 0,0 -7.6309,1.3374 -8.0825,-1.3564 -0.4512,-2.6924 -0.2456,-7.2539 -0.2456,-7.2539 0,0 44.0313,-40.5757 48.4878,-41.8862 4.4555,-1.3077 -40.1597,50.4965 -40.1597,50.4965 z"
         id="path16"
         inkscape:connector-curvature="0"
         style="fill:#ffffff;stroke:#000000;stroke-width:2" /><path
         d="m 153.8857,728.1719 c 0,0 -0.3955,-5.9077 1.7065,-8.0093 2.1001,-2.1006 9.9785,-2.1006 9.9785,-2.1006 0,0 -0.5254,5.7773 -1.9697,9.3213 -1.4443,3.5449 -9.7153,0.7886 -9.7153,0.7886 z"
         id="path18"
         inkscape:connector-curvature="0"
         style="fill:#ffffff;stroke:#000000;stroke-width:2" /><path
         d="m 528.1807,551.7666 c -31.6543,-31.6553 -67.25,-66.9102 -79,-72.9126 -8.9941,-4.5947 -24.0967,-7.2603 -26.9102,-4.4473 l -0.2646,0.2661 c -2.8135,2.812 -0.1489,17.9141 4.4473,26.9097 6.002,11.749 41.2573,47.3457 72.9111,78.9995 z"
         id="path20"
         inkscape:connector-curvature="0"
         style="fill:#ffffff;stroke:#000000;stroke-width:2" /><path
         d="m 401.1572,452.2681 c 0,0 7.1836,-0.5664 16.7227,4.936 9.54,5.5039 21.915,18.0601 21.915,18.0601 l -16.1343,16.1357 c 0,0 -12.5576,-12.375 -18.061,-21.915 -5.5024,-9.5391 -4.6865,-16.9746 -4.6865,-16.9746 z"
         id="path22"
         inkscape:connector-curvature="0"
         style="fill:#ffffff;stroke:#000000;stroke-width:2" /><path
         d="m 415.1313,476.9614 c 0,0 1.3384,-7.6309 -1.3545,-8.0825 -2.6938,-0.4512 -7.2539,-0.248 -7.2539,-0.248 0,0 -40.5776,44.0332 -41.8862,48.4897 -1.3086,4.4561 50.4946,-40.1592 50.4946,-40.1592 z"
         id="path24"
         inkscape:connector-curvature="0"
         style="fill:#ffffff;stroke:#000000;stroke-width:2" /><path
         d="M 410.4126,471.6445"
         id="path28"
         inkscape:connector-curvature="0"
         style="fill:#ffffff;stroke:#000000;stroke-width:2" /><path
         d="m 396.9834,702.5752 36.2988,-36.2988 c 0,0 -69.5044,-69.5044 -86.2808,-86.2808 -16.7764,-16.7773 -50.6787,-37.9985 -80.6377,-8.0391 l -1.5444,1.5439 c -29.9585,29.958 -12.5815,67.7065 4.1943,84.4834 16.7769,16.7759 86.2808,86.2803 86.2808,86.2803 l 40.145,-40.145 z"
         id="path30"
         inkscape:connector-curvature="0"
         style="fill:#ffffff;stroke:#000000;stroke-width:2" /><path
         d="m 385.5107,696.1108 c 33.4531,-33.4541 26.9077,-51.6372 26.9077,-51.6372 l 378.8979,-323.627 54.542,54.5435 -330.8964,370.17 c 0,0 13.8188,13.8193 32.0005,32.002 18.1802,18.1787 28.3608,48.7227 28.3608,48.7227 0,0 -74.9092,-48.7227 -91.6362,-31.999 l -0.3281,0.332 c -16.7261,16.7246 31.998,91.6338 31.998,91.6338 0,0 -30.543,-10.1836 -48.7241,-28.3623 -18.1811,-18.1787 -31.9995,-31.999 -31.9995,-31.999 L 64.4609,1156.7896 9.9184,1102.2447 333.5454,723.3468 c 0,0 18.1816,6.5454 51.6357,-26.9077 z"
         id="path32"
         inkscape:connector-curvature="0"
         style="fill:#ffffff;stroke:#000000;stroke-width:2" /><polyline
         points="189.2344,1045.2534 164.6738,1020.6948 398.9629,790.2192     434.6333,825.8901 "
         id="polyline34"
         style="fill:none;stroke:#000000;stroke-width:2" /><path
         d="m 420.9082,812.1646 c -2.0796,2.0791 -241.604,223.1592 -241.604,223.1592"
         id="path36"
         inkscape:connector-curvature="0"
         style="fill:none;stroke:#000000;stroke-width:2" /><line
         x1="214.731"
         y1="971.45172"
         x2="230.9399"
         y2="987.66162"
         id="line38"
         style="fill:none;stroke:#000000;stroke-width:2" /><line
         x1="282.06641"
         y1="905.21039"
         x2="300.39209"
         y2="923.53662"
         id="line40"
         style="fill:none;stroke:#000000;stroke-width:2" /><polyline
         points="66.9712,1154.5444 52.7134,1140.2856 169.4438,1025.4644 "
         id="polyline42"
         style="fill:none;stroke:#000000;stroke-width:2" /><polyline
         points="734.3281,500.1626 709.7666,475.6016 479.292,709.8911     514.9619,745.5601 "
         id="polyline44"
         style="fill:none;stroke:#000000;stroke-width:2" /><path
         d="m 501.2363,731.8364 c 2.0796,-2.0811 223.1592,-241.604 223.1592,-241.604"
         id="path46"
         inkscape:connector-curvature="0"
         style="fill:none;stroke:#000000;stroke-width:2" /><line
         x1="660.52643"
         y1="525.65918"
         x2="676.7334"
         y2="541.8667"
         id="line48"
         style="fill:none;stroke:#000000;stroke-width:2" /><line
         x1="594.28223"
         y1="592.99463"
         x2="612.6084"
         y2="611.32031"
         id="line50"
         style="fill:none;stroke:#000000;stroke-width:2" /><polygon
         points="920.1035,949.9702 755.9912,1063.2876 756.9766,1062.3022 643.6602,1226.4146 677.6563,1260.4106 826.5244,1131.855 825.542,1132.8413 954.0996,983.9673 "
         id="polygon54"
         style="fill:#ffffff;stroke:#000000;stroke-width:2" /><polyline
         points="868.6709,1082.895 859.9268,1077.355 829.4502,1111.7417     837.1299,1119.4214 "
         id="polyline56"
         style="fill:none;stroke:#000000;stroke-width:2" /><line
         x1="663.58893"
         y1="1246.3433"
         x2="799.95697"
         y2="1105.2847"
         id="line58"
         style="fill:#ffffff;stroke:#000000;stroke-width:2" /><polyline
         points="776.585,1174.9819 771.0449,1166.2427 805.4258,1135.7622     813.1104,1143.4429 "
         id="polyline60"
         style="fill:none;stroke:#000000;stroke-width:2" /><path
         d="m 842.0225,1149.3501 c 0,0 -131.3916,-149.2383 -156.1807,-174.0273 -24.7891,-24.7881 -96.3535,-86.0615 -99.6289,-82.7891 l -0.9912,0.9941 c -3.2734,3.2725 58,74.8379 82.7891,99.626 24.7881,24.7891 174.0273,156.1807 174.0273,156.1807 z"
         id="path64"
         inkscape:connector-curvature="0"
         style="fill:#ffffff;stroke:#000000;stroke-width:2" /><path
         d="m 750.4727,1068.2056 c 0,-6.2305 0.5898,-6.8232 2.751,-8.9814 2.1563,-2.1563 8.8398,-0.1289 8.8398,-0.1289"
         id="path66"
         inkscape:connector-curvature="0"
         style="fill:#ffffff;stroke:#000000;stroke-width:2" /><rect
         x="-229.7484"
         y="537.8736"
         transform="rotate(-45)"
         width="22.537785"
         height="22.537085"
         id="rect68"
         style="fill:#ffffff;stroke:#000000;stroke-width:1.99998" /><polygon
         points="193.9678,570.5986 190.5854,554.1689 180.2607,564.1226 187.9736,576.5933 "
         id="polygon70"
         style="fill:#ffffff;stroke:#000000;stroke-width:2" /><polygon
         points="181.249,532.063 188.3687,547.3403 176.9536,557.8931 163.1699,525.5884 "
         id="polygon72"
         style="fill:#ffffff;stroke:#000000;stroke-width:2" /><polygon
         points="188.1528,504.0527 169.4165,485.3159 161.8789,516.1118 182.0566,524.3613 "
         id="polygon74"
         style="fill:#ffffff;stroke:#000000;stroke-width:2" /><polygon
         points="261.3774,503.1909 244.2744,500.4507 254.7295,489.6353 267.4624,497.104 "
         id="polygon76"
         style="fill:#ffffff;stroke:#000000;stroke-width:2" /><polygon
         points="223.4741,489.8379 238.1172,497.5918 248.6689,486.1768 216.3662,472.3931 "
         id="polygon78"
         style="fill:#ffffff;stroke:#000000;stroke-width:2" /><polygon
         points="194.8296,497.376 176.0933,478.6392 206.8887,471.1006 216.3662,490.0532 "
         id="polygon80"
         style="fill:#ffffff;stroke:#000000;stroke-width:2" /></g></g><path
     d="M -0.26829439,1.9983673 A 922.80194,1030.3284 0 0 1 927.3585,1024.5503 922.80194,1030.3284 0 0 1 13.635863,2062.5913"
     sodipodi:arc-type="arc"
     sodipodi:open="true"
     sodipodi:end="1.5609857"
     sodipodi:start="4.7071321"
     sodipodi:ry="1030.3284"
     sodipodi:rx="922.80194"
     sodipodi:cy="1032.3125"
     sodipodi:cx="4.5827427"
     sodipodi:type="arc"
     id="path55"
     style="fill:none;fill-rule:evenodd;stroke:#000000;stroke-width:5;stroke-miterlimit:4;stroke-dasharray:10, 30;stroke-dashoffset:0;stroke-opacity:1" /><path
     inkscape:connector-curvature="0"
     id="path880"
     d="M 60.753297,1061.2002 818.25331,1488.0963"
     style="fill:none;stroke:#000000;stroke-width:5;stroke-linecap:butt;stroke-linejoin:miter;stroke-miterlimit:4;stroke-dasharray:none;stroke-opacity:1;marker-end:url(#Arrow1Lend)" /><path
     inkscape:connector-curvature="0"
     id="path1158"
     d="m 926.64607,1069.385 -627.67675,2.8274"
     style="fill:none;stroke:#f80000;stroke-width:5;stroke-linecap:butt;stroke-linejoin:miter;stroke-miterlimit:4;stroke-dasharray:none;stroke-opacity:1;marker-end:url(#marker1162)" /><path
     inkscape:connector-curvature="0"
     id="path1188"
     d="m 923.81869,441.70829 2.82738,1255.35341"
     style="fill:none;stroke:#000000;stroke-width:5;stroke-linecap:butt;stroke-linejoin:miter;stroke-miterlimit:4;stroke-dasharray:15, 5;stroke-dashoffset:0;stroke-opacity:1;marker-end:url(#marker1192)" /><text
     id="text1238"
     y="1685.7522"
     x="997.33032"
     style="font-style:normal;font-weight:normal;font-size:40px;line-height:1.25;font-family:sans-serif;fill:#000000;fill-opacity:1;stroke:none"
     xml:space="preserve"><tspan
       y="1685.7522"
       x="997.33032"
       id="tspan1236"
       sodipodi:role="line">$V$</tspan></text><text
     id="text1242"
     y="1552.8657"
     x="714.59314"
     style="font-style:normal;font-weight:normal;font-size:40px;line-height:1.25;font-family:sans-serif;fill:#000000;fill-opacity:1;stroke:none"
     xml:space="preserve"><tspan
       y="1552.8657"
       x="714.59314"
       id="tspan1240"
       sodipodi:role="line">$R$</tspan></text><text
     id="text1246"
     y="998.70068"
     x="397.92737"
     style="font-style:normal;font-weight:normal;font-size:40px;line-height:1.25;font-family:sans-serif;fill:#000000;fill-opacity:1;stroke:none"
     xml:space="preserve"><tspan
       y="998.70068"
       x="397.92737"
       id="tspan1244"
       sodipodi:role="line">\color{red}{$F_C$}</tspan></text></svg>
